<?xml version="1.0" encoding="utf-8"?>
<!-- Generator: Adobe Illustrator 19.0.0, SVG Export Plug-In . SVG Version: 6.00 Build 0)  -->
<svg version="1.1" id="Capa_1" xmlns="http://www.w3.org/2000/svg" xmlns:xlink="http://www.w3.org/1999/xlink" x="0px" y="0px"
	 viewBox="0 0 34 34" style="enable-background:new 0 0 34 34;" xml:space="preserve">
<style type="text/css">
	.st0{fill:#E9644B;}
	.st1{fill:#FFFFFF;}
	.st2{fill:#3FC0F0;}
	.st3{fill:#79CCF0;}
	.st4{fill:#1385C8;}
	.st5{fill:#696969;}
</style>
<g>
	<path class="st0" d="M-223.8,48.2c9.4,0,17-7.6,17-17c0-9.4-7.6-17-17-17c-9.4,0-17,7.6-17,17C-240.8,40.6-233.2,48.2-223.8,48.2"
		/>
	<path class="st1" d="M-220.5,31.2l-5.6,3.3v-6.5L-220.5,31.2z M-215.3,34.2v-6.1c0,0,0-2.9-2.9-2.9h-11.1c0,0-2.9,0-2.9,2.9v6.1
		c0,0,0,2.9,2.9,2.9h11.1C-218.2,37.1-215.3,37.1-215.3,34.2"/>
</g>
<g>
	<path class="st2" d="M17,34c9.4,0,17-7.6,17-17c0-9.4-7.6-17-17-17C7.6,0,0,7.6,0,17C0,26.4,7.6,34,17,34"/>
	<path class="st1" d="M16.3,12.7c0.3,0.4,0.5,1,0.5,1.6c0,0.6-0.2,1.2-0.5,1.5c-0.2,0.2-0.4,0.4-0.8,0.6c0.5,0.2,0.9,0.5,1.2,0.9
		c0.3,0.4,0.4,0.9,0.4,1.5c0,0.6-0.2,1.2-0.5,1.7c-0.2,0.3-0.4,0.6-0.7,0.8c-0.3,0.3-0.7,0.4-1.2,0.5c-0.5,0.1-1,0.1-1.5,0.1H8.5
		V11.6h5.1C14.9,11.6,15.8,12,16.3,12.7z M10.6,13.4v2.3h2.6c0.5,0,0.8-0.1,1.1-0.3c0.3-0.2,0.4-0.5,0.4-0.9c0-0.5-0.2-0.8-0.6-1
		c-0.3-0.1-0.7-0.2-1.2-0.2H10.6z M10.6,17.5v2.8h2.6c0.5,0,0.8-0.1,1.1-0.2c0.5-0.2,0.7-0.7,0.7-1.3c0-0.5-0.2-0.9-0.7-1.1
		c-0.3-0.1-0.6-0.2-1.1-0.2H10.6z M23.5,14.5c0.5,0.2,1,0.6,1.3,1.1c0.3,0.5,0.5,1,0.6,1.6c0.1,0.4,0.1,0.9,0.1,1.5h-5.7
		c0,0.8,0.3,1.3,0.8,1.6c0.3,0.2,0.7,0.3,1.1,0.3c0.5,0,0.8-0.1,1.1-0.4c0.2-0.1,0.3-0.3,0.4-0.5h2.1c-0.1,0.5-0.3,0.9-0.8,1.4
		C24,22,23,22.4,21.7,22.4c-1,0-1.9-0.3-2.7-1c-0.8-0.6-1.2-1.7-1.2-3.1c0-1.3,0.4-2.4,1.1-3.1c0.7-0.7,1.6-1.1,2.8-1.1
		C22.3,14.2,22.9,14.3,23.5,14.5z M20.4,16.3c-0.3,0.3-0.5,0.7-0.5,1.2h3.5c0-0.5-0.2-0.9-0.5-1.2c-0.3-0.3-0.7-0.4-1.2-0.4
		C21.1,15.8,20.7,16,20.4,16.3z M23.9,12.1h-4.5v1.3h4.5V12.1z"/>
</g>
<g>
	<path class="st3" d="M-334.3,62.6c9.4,0,17-7.6,17-17c0-9.4-7.6-17-17-17c-9.4,0-17,7.6-17,17C-351.3,54.9-343.7,62.6-334.3,62.6"
		/>
	<path class="st1" d="M-325.8,41.1c-0.6,0.3-1.3,0.5-2,0.6c0.7-0.4,1.3-1.1,1.5-1.9c-0.7,0.4-1.4,0.7-2.2,0.8
		c-0.6-0.7-1.5-1.1-2.6-1.1c-1.9,0-3.5,1.6-3.5,3.5c0,0.3,0,0.5,0.1,0.8c-2.9-0.1-5.5-1.5-7.2-3.7c-0.3,0.5-0.5,1.1-0.5,1.8
		c0,1.2,0.6,2.3,1.6,2.9c-0.6,0-1.1-0.2-1.6-0.4v0c0,1.7,1.2,3.1,2.8,3.4c-0.3,0.1-0.6,0.1-0.9,0.1c-0.2,0-0.4,0-0.7-0.1
		c0.4,1.4,1.7,2.4,3.3,2.4c-1.2,0.9-2.7,1.5-4.3,1.5c-0.3,0-0.6,0-0.8,0c1.5,1,3.4,1.6,5.4,1.6c6.4,0,9.9-5.3,9.9-9.9
		c0-0.2,0-0.3,0-0.5C-326.8,42.4-326.2,41.8-325.8,41.1"/>
</g>
<g>
	<path class="st4" d="M-80.9,42.2c9.4,0,17-7.6,17-17c0-9.4-7.6-17-17-17c-9.4,0-17,7.6-17,17C-97.9,34.6-90.3,42.2-80.9,42.2"/>
	<path class="st1" d="M-85.7,32.3H-89V21.7h3.3V32.3z M-87.4,20.4L-87.4,20.4c-1.2,0-2-0.8-2-1.8c0-1,0.8-1.8,2-1.8
		c1.2,0,2,0.8,2,1.8C-85.4,19.6-86.2,20.4-87.4,20.4z M-72.4,32.3h-3.8v-5.5c0-1.4-0.6-2.4-1.9-2.4c-1,0-1.5,0.7-1.8,1.3
		c-0.1,0.2-0.1,0.5-0.1,0.9v5.7h-3.7c0,0,0-9.7,0-10.6h3.7v1.7c0.2-0.7,1.4-1.8,3.3-1.8c2.4,0,4.2,1.5,4.2,4.8V32.3z"/>
</g>
<g>
	<path class="st5" d="M-137.6,42.2c9.4,0,17-7.6,17-17c0-9.4-7.6-17-17-17c-9.4,0-17,7.6-17,17C-154.6,34.6-147,42.2-137.6,42.2"/>
	<path class="st1" d="M-132.4,16.7h-10.4c-1.8,0-3.3,1.5-3.3,3.3v3.5v7c0,1.8,1.5,3.3,3.3,3.3h10.4c1.8,0,3.3-1.5,3.3-3.3v-7V20
		C-129.1,18.2-130.6,16.7-132.4,16.7z M-131.4,18.6l0.4,0V19v2.5l-2.9,0l0-2.9L-131.4,18.6z M-140,23.4c0.5-0.8,1.4-1.2,2.4-1.2
		s1.9,0.5,2.4,1.2c0.4,0.5,0.6,1.1,0.6,1.7c0,1.7-1.3,3-3,3s-3-1.3-3-3C-140.6,24.5-140.4,23.9-140,23.4z M-130.7,30.4
		c0,0.9-0.7,1.6-1.6,1.6h-10.4c-0.9,0-1.6-0.7-1.6-1.6v-7h2.5c-0.2,0.5-0.3,1.1-0.3,1.7c0,2.6,2.1,4.7,4.7,4.7
		c2.6,0,4.7-2.1,4.7-4.7c0-0.6-0.1-1.2-0.3-1.7h2.5V30.4z"/>
</g>
</svg>
