<?xml version="1.0" encoding="utf-8"?>
<!-- Generator: Adobe Illustrator 19.0.0, SVG Export Plug-In . SVG Version: 6.00 Build 0)  -->
<svg version="1.1" id="Layer_1" xmlns="http://www.w3.org/2000/svg" xmlns:xlink="http://www.w3.org/1999/xlink" x="0px" y="0px"
	 viewBox="-219 365.7 173 63.3" style="enable-background:new -219 365.7 173 63.3;" xml:space="preserve">
<style type="text/css">
	.st0{fill:#FFFFFF;}
</style>
<g id="XMLID_1_">
	<path class="st0" d="M-48,367.7V427h-169v-59.3H-48 M-46,365.7h-173V429h173V365.7L-46,365.7z"/>
</g>
<g id="XMLID_3_">
	<path id="XMLID_4_" class="st0" d="M-172,391.5h1.6l1.3,6.6c0.2,1.3,0.5,2.6,0.7,3.9h0.1c0.3-1.3,0.6-2.6,0.9-3.9l1.7-6.6h1.4
		l1.7,6.6c0.3,1.3,0.6,2.6,0.9,3.9h0.1c0.2-1.3,0.5-2.6,0.7-3.9l1.3-6.6h1.5l-2.7,12.2h-1.9l-1.8-7.3c-0.2-0.9-0.4-1.8-0.6-2.8h-0.1
		c-0.2,0.9-0.4,1.8-0.6,2.8l-1.8,7.3h-1.8L-172,391.5z"/>
	<path id="XMLID_6_" class="st0" d="M-154.4,391.5h7v1.3h-5.5v3.9h4.6v1.3h-4.6v4.4h5.7v1.3h-7.2V391.5z"/>
	<path id="XMLID_8_" class="st0" d="M-142.8,391.5h3.6c2.5,0,4.2,0.8,4.2,3c0,1.2-0.7,2.3-2.1,2.7v0.1c1.8,0.3,2.8,1.2,2.8,2.9
		c0,2.4-1.9,3.6-4.6,3.6h-3.9V391.5z M-139.4,396.7c2.1,0,2.9-0.7,2.9-2.1c0-1.3-1-1.9-2.9-1.9h-1.9v4H-139.4z M-139.1,402.5
		c2.1,0,3.3-0.8,3.3-2.4c0-1.5-1.2-2.2-3.3-2.2h-2.1v4.6C-141.2,402.5-139.1,402.5-139.1,402.5z"/>
	<path id="XMLID_12_" class="st0" d="M-130.3,401.1c0.9,0.9,2.1,1.5,3.4,1.5c1.6,0,2.5-0.8,2.5-2c0-1.2-0.9-1.6-2-2.2l-1.8-0.7
		c-1.1-0.5-2.5-1.4-2.5-3.1c0-1.9,1.6-3.2,3.9-3.2c1.5,0,2.7,0.6,3.6,1.5l-0.8,1c-0.7-0.7-1.7-1.2-2.8-1.2c-1.4,0-2.3,0.7-2.3,1.8
		c0,1.2,1.1,1.6,2,2l1.7,0.7c1.4,0.6,2.5,1.5,2.5,3.3c0,1.9-1.6,3.5-4.2,3.5c-1.7,0-3.2-0.7-4.3-1.8L-130.3,401.1z"/>
	<path id="XMLID_14_" class="st0" d="M-118.6,391.5h1.6v12.2h-1.6V391.5z"/>
	<path id="XMLID_16_" class="st0" d="M-109.4,392.8h-3.7v-1.3h8.9v1.3h-3.7v10.9h-1.5C-109.4,403.7-109.4,392.8-109.4,392.8z"/>
	<path id="XMLID_18_" class="st0" d="M-100.2,391.5h7v1.3h-5.5v3.9h4.6v1.3h-4.6v4.4h5.7v1.3h-7.2V391.5z"/>
</g>
</svg>
