<?xml version="1.0" encoding="utf-8"?>
<!-- Generator: Adobe Illustrator 19.0.0, SVG Export Plug-In . SVG Version: 6.00 Build 0)  -->
<svg version="1.1" id="Layer_1" xmlns="http://www.w3.org/2000/svg" xmlns:xlink="http://www.w3.org/1999/xlink" x="0px" y="0px"
	 viewBox="-221 228.7 152.4 384.2" style="enable-background:new -221 228.7 152.4 384.2;" xml:space="preserve">
<style type="text/css">
	.st0{fill:#434343;}
	.st1{fill:#383838;}
	.st2{fill:#67829D;}
	.st3{fill:#609440;}
	.st4{fill:#E2E2E2;}
	.st5{fill:#FAB292;}
	.st6{fill:#C6C6C6;}
	.st7{fill:#D32C39;}
	.st8{fill:#1D4375;}
	.st9{fill:#4E7235;}
	.st10{opacity:0.1;enable-background:new    ;}
	.st11{fill:#634C4A;}
	.st12{fill:#F6E1D8;}
	.st13{fill:#B74B29;}
	.st14{fill:#F47B55;}
	.st15{fill:#F2DFD9;}
	.st16{fill:#EF9C6F;}
	.st17{opacity:0.15;enable-background:new    ;}
	.st18{fill:#D1D1D1;}
</style>
<path id="XMLID_202_" class="st0" d="M104.1,364.3c-3.6,1.8-2.4,8.4,2.8,14.6c5.1,6.3,12.2,9.9,15.8,8.1c3.6-1.8,2.4-8.4-2.8-14.6
	C114.8,366.1,107.7,362.5,104.1,364.3z M120.7,384.5c-2.4,1.2-7.7-2.5-11.1-6.6s-5.7-9.6-3.3-10.8c2.4-1.2,10,2.6,13.4,6.7
	C123,377.9,123,383.3,120.7,384.5z"/>
<path id="XMLID_199_" class="st0" d="M98.8,389.5l-0.6,16.8c0,0-19.4,36.1,12.9,39.9s38.8-29.3,35.7-39.4
	c-3.1-10.1-19.5-40.3-19.5-40.3L98.8,389.5z"/>
<path id="XMLID_198_" class="st1" d="M148.1,407.3c-3.1-10.1-19.5-40.3-19.5-40.3l-16.9,13.6c7.6,12.5,15.5,32.8,12.6,64.9
	C146.3,441,150.7,416,148.1,407.3z"/>
<path id="XMLID_197_" class="st0" d="M134.4,335.4c0,0-8,11.9-22.6,45.2l9.7-3.2l20.7-42H134.4z"/>
<polygon id="XMLID_196_" class="st2" points="134.2,439.7 143.9,432.9 156.4,442.8 142.6,452 136.2,447 "/>
<polyline id="XMLID_195_" class="st3" points="128.9,341.5 128.9,335.4 146.1,335.4 146.1,343.6 "/>
<rect id="XMLID_194_" x="143.4" y="335.4" class="st4" width="41.1" height="106.7"/>
<g id="XMLID_193_">
	<path id="XMLID_231_" class="st5" d="M164.6,351.8c9,0,16.4-7.3,16.4-16.4h-32.7C148.3,344.5,155.6,351.8,164.6,351.8z"/>
</g>
<path id="XMLID_190_" class="st6" d="M181.8,341.2c0.2-0.3,0.4-0.6,0.5-0.8h-2.4c-3.1,5.2-8.8,8.8-15.3,8.8s-12.2-3.5-15.3-8.8H147
	c0.1,0.3,0.3,0.6,0.5,0.8H147c0.1,0.2,0.3,0.5,0.4,0.7H147c3.3,6.5,10,10.9,17.7,10.9s14.4-4.4,17.7-10.9H182
	c0.1-0.2,0.3-0.5,0.4-0.7H181.8z"/>
<path id="XMLID_189_" class="st7" d="M114.2,610.9c0.9-1.1,1.8-2.2,2.7-3.2c0.4-0.5,0.8-0.9,1.2-1.4c4.2-5.1,8.1-10.3,11.9-15.7
	c4.1,2.9,8.2,5.7,12.3,8.6c-3.3,4.7-6.7,9.3-10.3,13.7c-0.7,0.8-0.7,1.9,0,2.5c3.5,2.9,7.1,5.7,10.6,8.6c-1.8,2.2-3.7,4.5-5.6,6.7
	C129.4,624,121.8,617.5,114.2,610.9z"/>
<path id="XMLID_188_" class="st4" d="M112,613.4c0.7-0.8,1.5-1.7,2.2-2.5c7.6,6.6,15.2,13.1,22.8,19.7c1.9-2.2,3.7-4.4,5.6-6.7
	c0.2,0.2,0.4,0.3,0.6,0.5c4.5,3.5,4,11.5-1.3,17.4c-0.7,0.8-1.8,1.1-2.4,0.5c-9.2-8.4-18.5-16.7-27.7-25.1
	C110.9,616.4,110.9,614.6,112,613.4z"/>
<path id="XMLID_187_" class="st7" d="M87.6,588c0.8-0.9,1.6-1.9,2.4-2.8c0.3-0.4,0.7-0.8,1-1.2c3.6-4.4,7-8.9,10.2-13.5
	c4.1,2.9,8.2,5.7,12.3,8.6c-2.8,4.1-5.8,8.1-8.9,12c-0.6,0.7-0.5,1.7,0.1,2.3c3.5,2.9,7.1,5.7,10.6,8.6c-1.6,2-3.2,3.9-4.9,5.8
	C102.8,601.1,95.2,594.6,87.6,588z"/>
<path id="XMLID_186_" class="st8" d="M175.6,440.9c-6.7,0.1-13.4,0.2-20.1,0.4c-5,0.1-10,0.2-15,0.3c0.1,5.2,0,10.4-0.3,15.5
	c-2.2,41.2-16,80.8-39.6,114.3c4.1,2.9,8.2,5.8,12.3,8.7c25.3-35.9,40-78.2,42.4-122.2c6.7,0.4,13.4,0.7,20.1,1.1
	c-2.5,47.8-18.5,93.8-46,132.7c4.1,2.9,8.2,5.8,12.3,8.7c29.1-41.3,46-90,48.7-140.6c0.3-6.3,0.4-12.7,0.3-19
	C185.6,440.7,180.6,440.8,175.6,440.9z"/>
<path id="XMLID_185_" class="st3" d="M134.4,335.4c0,2.2-1.2,3.8-4.1,4.1c-0.4,0-0.5,0-1.3,0.2v108.6h21.2V335.4H134.4z"/>
<rect id="XMLID_184_" x="179.1" y="335.4" class="st3" width="21.2" height="112.8"/>
<polygon id="XMLID_183_" class="st9" points="150.1,349.4 136.6,335.4 150.1,335.4 "/>
<polygon id="XMLID_182_" class="st9" points="179.1,349.4 192.7,335.4 179.1,335.4 "/>
<rect id="XMLID_181_" x="157.1" y="315" class="st5" width="15.1" height="27.6"/>
<rect id="XMLID_180_" x="157.1" y="301.7" class="st10" width="15.1" height="27.6"/>
<path id="XMLID_179_" class="st5" d="M125.3,282.5v-3.4l2.7,1.1v-23h68.7v56.3c0,7-5.7,12.6-12.6,12.6h-26.7
	c-16.2,0-29.3-13-29.4-29.1c-0.2,0-0.5,0-0.7,0c-3.5,0-6.3-3.3-6.3-7.5C121,286.3,122.8,283.5,125.3,282.5z"/>
<path id="XMLID_178_" class="st11" d="M123.9,265.8c0.4-13.7,11.4-22.8,26.1-24.7h19.7l0,0l0,0h8.5c-1.1-4.7-3.3-7.2-3.4-7.2l0,0
	c7.1-2.1,12.8,1.2,12.8,1.2v-6.4c0.2,0,0.5,0,0.7,0c11.2,0,20.3,9.1,20.3,20.3c0,11.2-9.1,20.3-20.3,20.3c-5.4,0-10.3-2.1-13.9-5.5
	h-22.5l-0.2,2.3c-0.7,6.4-5.7,11.5-12.2,12.3l-1.4,0.2c0,0.3,0,0.5,0,0.8c0,1.4,0,2.8,0,4.3c0,1.9,0,3.7,0,5.6c0,1.6,0,3.1,0,4.7
	c0,0.3-0.1,0.5-0.2,0.7c-0.8,1.5-3.4,1.1-3.4-0.7c0-0.5,0-1,0-1.5c0-1.6,0-3.1,0-4.7c-0.7-4.7-5.9-7.4-10.1-5.1l-1,0.5v-13.8
	C123.5,268.2,123.7,267,123.9,265.8z"/>
<path id="XMLID_177_" class="st12" d="M154.7,289.8h-2.3c-2.3,0-4.2-1.6-4.2-3.5c0-1.9,1.9-3.5,4.2-3.5h2.3c2.3,0,4.2,1.6,4.2,3.5
	C158.9,288.2,157,289.8,154.7,289.8z"/>
<path id="XMLID_176_" class="st12" d="M181.5,289.8h-1.1c-2.3,0-4.2-1.6-4.2-3.5c0-1.9,1.9-3.5,4.2-3.5h1.5c-0.9,1-1.5,2.3-1.5,3.7
	C180.4,287.7,180.8,288.8,181.5,289.8z"/>
<path id="XMLID_174_" d="M186.9,286.3c0,1.9-1.9,3.5-4.2,3.5h-1.2c-0.7-0.9-1.1-2-1.1-3.2c0-1.4,0.6-2.8,1.5-3.7h0.7
	C185,282.8,186.9,284.3,186.9,286.3z"/>
<path id="XMLID_172_" d="M158.9,286.3c0,1.9-1.9,3.5-4.2,3.5h-1.2c-0.7-0.9-1.1-2-1.1-3.2c0-1.5,0.6-2.8,1.5-3.8h0.7
	C157,282.8,158.9,284.3,158.9,286.3z"/>
<path id="XMLID_170_" class="st11" d="M158.8,280.3c0.6-0.2,0.9-1.2,0.6-2.3l0,0c-0.4-1-1-1.4-1.8-1.6c-3.8,0-12.3,3.5-11.2,5.6l0,0
	C148.3,280.4,155.5,278.8,158.8,280.3z"/>
<path id="XMLID_169_" class="st11" d="M187.2,281c0.7-0.1,1-1.1,0.8-2.2l0,0c-0.3-1.1-0.8-1.5-1.6-1.8c-3.8-0.4-12.6,2-11.8,4.3l0,0
	C176.7,279.9,184.1,279.1,187.2,281z"/>
<path id="XMLID_168_" class="st0" d="M134.4,335.4c0,0,9.4,44.4-6.8,78.4v11.9c0,0,28.8-30.9,14.6-90.2L134.4,335.4z"/>
<path id="XMLID_167_" class="st13" d="M173,307.5c-1.9,0.7-13.9-0.3-15-1.1c-0.4-0.3-0.8-0.8-1.1-1.2c-0.7,1.5,0,4.5,1.9,7
	c1.5-0.8,3.7-1.4,6.9-1.5c3.8-0.1,6.4,0.9,8.1,2c1.7-2.2,2.2-4.9,1.6-6c-0.1-0.2-0.3-0.4-0.4-0.5C174.7,306.6,174.2,307.1,173,307.5
	z"/>
<path id="XMLID_166_" class="st14" d="M165.7,310.8c-3.2,0.1-5.4,0.7-6.9,1.5c1.9,2.6,5,4.6,9,4.1c2.7-0.4,4.7-1.8,6-3.6
	C172.1,311.6,169.5,310.6,165.7,310.8z"/>
<path id="XMLID_165_" class="st15" d="M173,307.5c1.2-0.4,1.7-1,1.9-1.3c-0.4-0.3-0.9-0.4-1.4-0.3c-2.5,0.5-9.5,0.8-14.1-1.2
	c-1.3-0.6-2.1-0.2-2.5,0.6c0.3,0.4,0.7,0.9,1.1,1.2C159.1,307.2,171.1,308.2,173,307.5z"/>
<path id="XMLID_164_" class="st16" d="M133.6,427.8c1.6-2.6,2.2-5.8,3.5-8.5c0.2-0.4,0.5-0.8,0.7-1.1l-4.9-2.7l-8.6,15.7l5.6,3
	C130.9,432,132.3,430,133.6,427.8z"/>
<polygon id="XMLID_163_" class="st9" points="129.3,423.7 129.3,423.7 124.7,432.6 116.1,427.9 115.2,424.9 122.3,411.4 
	125.2,410.4 134,414.8 "/>
<path id="XMLID_162_" class="st3" d="M134.7,356.8c0,0-23.6,2.9-29.9,25.1c0,0-3.7,18.6,18.3,29.4l-7.5,14.6c0,0-35.6-15.9-25.8-53
	c0,0,8.8-25.1,39.1-33"/>
<rect id="XMLID_161_" x="123.6" y="423" transform="matrix(-0.4591 0.8884 -0.8884 -0.4591 575.4601 502.5666)" class="st9" width="22.2" height="6.9"/>
<path id="XMLID_159_" class="st16" d="M195,427.8c-1.6-2.6-2.2-5.8-3.5-8.5c-0.2-0.4-0.5-0.8-0.7-1.1l4.9-2.7l8.6,15.7l-5.6,3
	C197.7,432,196.3,430,195,427.8z"/>
<polygon id="XMLID_145_" class="st9" points="199.3,423.7 199.3,423.7 203.9,432.6 212.5,427.9 213.4,424.9 206.3,411.4 
	203.3,410.4 194.6,414.8 "/>
<path id="XMLID_144_" class="st3" d="M194.4,357.1c0,0,23,2.5,29.4,24.7c0,0,3.7,18.6-18.3,29.4l7.5,14.6c0,0,35.6-15.9,25.8-53
	c0,0-8.8-25.1-39.1-33"/>
<rect id="XMLID_137_" x="182.8" y="423" transform="matrix(0.4591 0.8884 -0.8884 0.4591 483.7423 58.447)" class="st9" width="22.2" height="6.9"/>
<path id="XMLID_133_" class="st17" d="M119.3,604.7l-0.8,1c-0.3-0.7-0.7-1.3-0.9-1.6l-8.5,10.7l6.6,5.9
	C121.7,614.4,120.5,607.8,119.3,604.7z"/>
<path id="XMLID_131_" class="st4" d="M85.7,590.2c0.6-0.7,1.3-1.4,1.9-2.2c7.6,6.6,15.2,13.1,22.8,19.7c1.7-1.9,3.3-3.9,4.9-5.8
	c0.2,0.2,0.4,0.3,0.6,0.5c4.5,3.5,4.5,10.9-0.2,16.1c-0.6,0.7-1.6,0.9-2.2,0.4c-9.2-8.4-18.5-16.7-27.7-25.1
	C84.8,592.8,84.8,591.2,85.7,590.2z"/>
<path id="XMLID_115_" class="st15" d="M172.2,307.7c0,0,2.6-0.1,3.2-0.9c0,0-0.2-0.4-0.7-0.7"/>
<path id="XMLID_52_" class="st15" d="M158.9,306.7c0,0-1.5-0.3-2.2-0.7c0,0,0-0.4,0.2-0.8l1.2,0.1L158.9,306.7z"/>
<path id="XMLID_45_" class="st15" d="M173.3,307.6l2.3-0.2c0,0-0.1-0.4-0.2-0.7"/>
<path id="XMLID_63_" class="st0" d="M-205,364.3c-3.6,1.8-2.4,8.4,2.8,14.6c5.1,6.3,12.2,9.9,15.8,8.1c3.6-1.8,2.4-8.4-2.8-14.6
	C-194.3,366.1-201.4,362.5-205,364.3z M-188.4,384.5c-2.4,1.2-7.7-2.5-11.1-6.6s-5.7-9.6-3.3-10.8c2.4-1.2,10,2.6,13.4,6.7
	C-186.1,377.9-186.1,383.3-188.4,384.5z"/>
<path id="XMLID_62_" class="st0" d="M-210.3,389.5l-0.6,16.8c0,0-19.4,36.1,12.9,39.9s38.8-29.3,35.7-39.4
	c-3.1-10.1-19.5-40.3-19.5-40.3L-210.3,389.5z"/>
<path id="XMLID_60_" class="st1" d="M-161,407.3c-3.1-10.1-19.5-40.3-19.5-40.3l-16.9,13.6c7.6,12.5,15.5,32.8,12.6,64.9
	C-162.8,441-158.4,416-161,407.3z"/>
<path id="XMLID_59_" class="st0" d="M-174.7,335.4c0,0-8,11.9-22.6,45.2l9.7-3.2l20.7-42H-174.7z"/>
<polygon id="XMLID_58_" class="st2" points="-174.9,439.7 -165.2,432.9 -152.7,442.8 -166.5,452 -172.9,447 "/>
<path id="XMLID_107_" class="st7" d="M-134.4,607.3v-3.8v-1.6v-17.7h16.1v14.5c0,0.9,0.7,1.6,1.6,1.6h14.6v6.9L-134.4,607.3
	L-134.4,607.3z"/>
<path id="XMLID_105_" class="st4" d="M-134.4,610.2v-3h32.3v-6.9h0.8c6.1,0,11,4.9,11,11c0,0.8-0.7,1.5-1.5,1.5h-40
	C-133.2,612.9-134.4,611.7-134.4,610.2z"/>
<path id="XMLID_113_" class="st7" d="M-155.9,607.3v-3.8v-1.6v-17.7H-172v14.5c0,0.9-0.7,1.6-1.6,1.6h-14.6v6.9L-155.9,607.3
	L-155.9,607.3z"/>
<path id="XMLID_104_" class="st4" d="M-155.9,610.2v-3h-32.3v-6.9h-0.8c-6.1,0-11,4.9-11,11c0,0.8,0.7,1.5,1.5,1.5h40
	C-157.1,612.9-155.9,611.7-155.9,610.2z"/>
<polygon id="XMLID_78_" class="st8" points="-134.4,440.6 -155.9,440.6 -172,440.6 -172,456.7 -172,585.3 -155.9,585.3 
	-155.9,456.7 -134.4,456.7 -134.4,585.3 -118.3,585.3 -118.3,456.7 -118.3,440.6 "/>
<rect id="XMLID_56_" x="-165.7" y="335.4" class="st4" width="41.1" height="109.3"/>
<g id="XMLID_53_">
	<path id="XMLID_85_" class="st5" d="M-144.5,351.8c9,0,16.4-7.3,16.4-16.4h-32.7C-160.8,344.5-153.5,351.8-144.5,351.8z"/>
</g>
<path id="XMLID_51_" class="st18" d="M-127.3,341.7c0.2-0.3,0.4-0.6,0.5-0.8h-2.4c-3.1,5.2-8.8,8.8-15.3,8.8s-12.2-3.5-15.3-8.8
	h-2.4c0.1,0.3,0.3,0.6,0.5,0.8h-0.5c0.1,0.2,0.3,0.5,0.4,0.7h-0.4c3.3,6.5,10,10.9,17.7,10.9c7.7,0,14.4-4.4,17.7-10.9h-0.4
	c0.1-0.2,0.3-0.5,0.4-0.7H-127.3z"/>
<path class="st3" d="M-163,335.4h-11.7h-0.3c-2.9,0-5.2,2.3-5.2,5.2v0.9l0.1,0v105.7c0,0.6,0.5,1.1,1.1,1.1h18.8
	c0.6,0,1.1-0.5,1.1-1.1V336.5c0-0.6-0.5-1.1-1.1-1.1H-163z"/>
<path id="XMLID_44_" class="st3" d="M-128.9,335.4h14.9c2.9,0,5.2,2.3,5.2,5.2V447c0,0.6-0.5,1.1-1.1,1.1h-18.9
	c-0.6,0-1.1-0.5-1.1-1.1V336.5C-130,335.9-129.5,335.4-128.9,335.4z"/>
<polygon id="XMLID_43_" class="st9" points="-159,349.4 -172.5,335.4 -159,335.4 "/>
<polygon id="XMLID_42_" class="st9" points="-130,349.4 -116.4,335.4 -130,335.4 "/>
<rect id="XMLID_41_" x="-152" y="315" class="st5" width="15.1" height="27.6"/>
<rect id="XMLID_40_" x="-152" y="301.7" class="st10" width="15.1" height="27.6"/>
<path id="XMLID_39_" class="st5" d="M-183.8,282.5v-3.4l2.7,1.1v-23h68.7v56.3c0,7-5.7,12.6-12.6,12.6h-26.6
	c-16.2,0-29.3-13-29.4-29.1c-0.2,0-0.5,0-0.7,0c-3.5,0-6.3-3.3-6.3-7.5C-188.1,286.3-186.3,283.5-183.8,282.5z"/>
<path id="XMLID_38_" class="st11" d="M-185.2,265.8c0.4-13.7,11.4-22.8,26.1-24.7h19.7l0,0l0,0h8.5c-1.1-4.7-3.3-7.2-3.4-7.2l0,0
	c7.1-2.1,12.8,1.2,12.8,1.2v-6.4c0.2,0,0.5,0,0.7,0c11.2,0,20.3,9.1,20.3,20.3c0,11.2-9.1,20.3-20.3,20.3c-5.4,0-10.3-2.1-13.9-5.5
	h-22.5l-0.2,2.3c-0.7,6.4-5.7,11.5-12.2,12.3l-1.4,0.1c0,0.3,0,0.5,0,0.8c0,1.4,0,2.8,0,4.3c0,1.9,0,3.7,0,5.6c0,1.6,0,3.1,0,4.7
	c0,0.3-0.1,0.5-0.2,0.7c-0.8,1.5-3.4,1.1-3.4-0.7c0-0.5,0-1,0-1.5c0-1.6,0-3.1,0-4.7c-0.7-4.7-5.9-7.4-10.1-5.1l-1,0.5v-13.7
	C-185.5,268.2-185.4,267-185.2,265.8z"/>
<path id="XMLID_37_" class="st12" d="M-154.4,289.8h-2.3c-2.3,0-4.2-1.6-4.2-3.5c0-1.9,1.9-3.5,4.2-3.5h2.3c2.3,0,4.2,1.6,4.2,3.5
	C-150.2,288.2-152.1,289.8-154.4,289.8z"/>
<path id="XMLID_36_" class="st12" d="M-127.6,289.8h-1.1c-2.3,0-4.2-1.6-4.2-3.5c0-1.9,1.9-3.5,4.2-3.5h1.5c-0.9,1-1.5,2.3-1.5,3.7
	C-128.7,287.7-128.3,288.8-127.6,289.8z"/>
<path id="XMLID_35_" d="M-122.2,286.3c0,1.9-1.9,3.5-4.2,3.5h-1.2c-0.7-0.9-1.1-2-1.1-3.2c0-1.4,0.6-2.8,1.5-3.7h0.7
	C-124.1,282.8-122.2,284.3-122.2,286.3z"/>
<path id="XMLID_34_" d="M-150.2,286.3c0,1.9-1.9,3.5-4.2,3.5h-1.2c-0.7-0.9-1.1-2-1.1-3.2c0-1.5,0.6-2.8,1.5-3.8h0.7
	C-152.1,282.8-150.2,284.3-150.2,286.3z"/>
<path id="XMLID_33_" class="st11" d="M-150.3,280.3c0.6-0.2,0.9-1.2,0.6-2.3l0,0c-0.4-1-1-1.4-1.8-1.6c-3.8,0-12.3,3.5-11.2,5.6l0,0
	C-160.8,280.4-153.6,278.8-150.3,280.3z"/>
<path id="XMLID_32_" class="st11" d="M-121.9,281c0.7-0.1,1-1.1,0.8-2.2l0,0c-0.3-1.1-0.8-1.5-1.6-1.8c-3.8-0.4-12.6,2-11.8,4.3l0,0
	C-132.4,279.9-125,279.1-121.9,281z"/>
<path id="XMLID_31_" class="st0" d="M-174.7,335.4c0,0,9.4,44.4-6.8,78.4v11.8c0,0,28.8-30.9,14.6-90.2L-174.7,335.4z"/>
<path id="XMLID_30_" class="st13" d="M-136.1,307.5c-1.9,0.7-13.9-0.3-15-1.1c-0.4-0.3-0.8-0.8-1.1-1.2c-0.7,1.5,0,4.5,1.9,7
	c1.5-0.8,3.7-1.4,6.9-1.5c3.8-0.1,6.4,0.9,8.1,2c1.7-2.2,2.2-4.9,1.6-6c-0.1-0.2-0.3-0.4-0.4-0.5
	C-134.4,306.6-134.9,307.1-136.1,307.5z"/>
<path id="XMLID_29_" class="st14" d="M-143.4,310.8c-3.2,0.1-5.4,0.7-6.9,1.5c1.9,2.6,5,4.6,9,4.1c2.7-0.4,4.7-1.8,6-3.6
	C-137,311.6-139.6,310.6-143.4,310.8z"/>
<path id="XMLID_28_" class="st15" d="M-136.1,307.5c1.2-0.4,1.7-1,1.9-1.3c-0.4-0.3-0.9-0.4-1.4-0.3c-2.5,0.6-9.5,0.8-14.1-1.2
	c-1.3-0.6-2.1-0.2-2.5,0.6c0.3,0.4,0.7,0.9,1.1,1.2C-150,307.2-138,308.2-136.1,307.5z"/>
<path id="XMLID_27_" class="st16" d="M-175.5,427.8c1.6-2.6,2.2-5.8,3.5-8.5c0.2-0.4,0.5-0.8,0.7-1.1l-4.9-2.7l-8.6,15.7l5.6,3
	C-178.2,432-176.8,430-175.5,427.8z"/>
<polygon id="XMLID_26_" class="st9" points="-179.8,423.7 -179.8,423.7 -184.4,432.6 -193,427.9 -193.9,424.9 -186.8,411.4 
	-183.9,410.4 -175.1,414.8 "/>
<path id="XMLID_25_" class="st3" d="M-174.4,356.8c0,0-23.6,2.9-29.9,25.1c0,0-3.7,18.6,18.3,29.4l-7.5,14.6c0,0-35.6-15.9-25.8-53
	c0,0,8.8-25.1,39.1-33"/>
<rect id="XMLID_24_" x="-185.5" y="423" transform="matrix(-0.4591 0.8884 -0.8884 -0.4591 124.4492 777.1785)" class="st9" width="22.2" height="6.9"/>
<path id="XMLID_23_" class="st16" d="M-114.1,427.8c-1.6-2.6-2.2-5.8-3.5-8.5c-0.2-0.4-0.5-0.8-0.7-1.1l4.9-2.7l8.6,15.7l-5.6,3
	C-111.4,432-112.8,430-114.1,427.8z"/>
<polygon id="XMLID_10_" class="st9" points="-109.8,423.7 -109.8,423.7 -105.2,432.6 -96.6,427.9 -95.7,424.9 -102.8,411.4 
	-105.8,410.4 -114.5,414.8 "/>
<path id="XMLID_9_" class="st3" d="M-114.7,357.1c0,0,23,2.5,29.4,24.7c0,0,3.7,18.6-18.3,29.4l7.5,14.6c0,0,35.6-15.9,25.8-53
	c0,0-8.8-25.1-39.1-33"/>
<rect id="XMLID_8_" x="-126.3" y="423" transform="matrix(0.4591 0.8884 -0.8884 0.4591 316.5592 333.0378)" class="st9" width="22.2" height="6.9"/>
<path id="XMLID_5_" class="st15" d="M-136.9,307.7c0,0,2.6-0.1,3.2-0.9c0,0-0.2-0.4-0.7-0.7"/>
<path id="XMLID_4_" class="st15" d="M-150.2,306.7c0,0-1.5-0.3-2.2-0.7c0,0,0-0.4,0.2-0.8l1.2,0.1L-150.2,306.7z"/>
<path id="XMLID_3_" class="st15" d="M-135.8,307.6l2.3-0.2c0,0-0.1-0.4-0.2-0.7"/>
</svg>
