<?xml version="1.0" encoding="utf-8"?>
<!-- Generator: Adobe Illustrator 19.0.0, SVG Export Plug-In . SVG Version: 6.00 Build 0)  -->
<svg version="1.1" id="Layer_1" xmlns="http://www.w3.org/2000/svg" xmlns:xlink="http://www.w3.org/1999/xlink" x="0px" y="0px"
	 viewBox="662 95.4 1920 650.5" style="enable-background:new 662 95.4 1920 650.5;" xml:space="preserve">
<style type="text/css">
	.st0{fill:#FFFFFF;}
</style>
<path id="XMLID_22_" class="st0" d="M711.4,403.6c31.9,0,58-25.2,59.4-56.8c6.1,1.5,12.4,2.3,18.9,2.3c17.4,0,33.4-5.7,46.4-15.3
	c9.5,20.1,30,34,53.7,34c17.6,0,33.4-7.7,44.3-19.8c12.9,9.5,28.9,15.1,46.2,15.1c14.1,0,27.3-3.7,38.8-10.3
	c5.7,10.2,16.6,17.2,29.2,17.2c17.9,0,32.6-14.1,33.3-31.9c2.3,0.9,4.9,1.5,7.5,1.5c3.2,0,6.2-0.8,8.9-2.1c3.7,4.1,9.1,6.6,15.1,6.6
	c11.3,0,20.4-9.2,20.4-20.4c0-2.1-0.3-4.1-0.9-6c5.3-2.1,9.5-6.3,11.5-11.6c8.8,3.8,18.5,5.8,28.7,5.8c28.1,0,52.5-15.9,64.8-39.1
	c2.6,1.2,5.4,1.8,8.4,1.8c11.3,0,20.4-9.2,20.4-20.4c0-5.8-2.5-11.1-6.4-14.8c7.5-3.3,13.1-10,14.9-18.2c5.5-1.1,10.5-3.3,15-6.3
	c14.2,17.2,35.8,28.2,59.8,28.2c22.9,0,43.5-9.9,57.7-25.7c3.9,1.2,8.1,1.9,12.5,1.9c13.8,0,26.1-6.7,33.8-17c0.6,0,1.3,0,1.9,0
	c5.9,0,11.4-1.2,16.5-3.4c7.7,10.1,19.8,16.7,33.5,16.7c7.3,0,14.2-1.9,20.1-5.2c9.8,12.6,25.1,20.7,42.4,20.7
	c12.6,0,24.2-4.4,33.4-11.6c1.8,0.2,3.7,0.3,5.6,0.3c17.9,0,33.8-8.8,43.5-22.2c9.6,14.8,26.2,24.6,45.1,24.6
	c11.9,0,22.9-3.9,31.8-10.4c6.3,6.1,14.8,9.9,24.2,9.9c14.4,0,26.7-8.8,32-21.3c4.1,1.7,8.6,2.7,13.3,2.7c4.6,0,8.9-0.9,12.9-2.5
	c5.8,27.5,30.3,48.2,59.6,48.2c19.3,0,36.5-9,47.6-23c4.1,1.7,8.6,2.6,13.3,2.6c9.7,0,18.5-4,24.8-10.5
	c13.6,10.9,30.8,17.4,49.6,17.4c7.1,0,13.9-0.9,20.5-2.7c6.9,21.7,25.4,38.2,48.3,42.2c18.3,22.3,46.1,36.6,77.2,36.6
	c12.3,0,24-2.2,34.9-6.3c10.8,18,30.5,30.1,53,30.1c11.2,0,21.8-3,30.9-8.3c18.2,19.3,44,31.4,72.6,31.4c24.9,0,47.6-9.1,65.1-24.2
	c5.5,3.7,12.2,5.9,19.4,5.9c11.6,0,21.8-5.7,28.1-14.4c8.5,11.5,22.1,19,37.5,19c17.2,0,32.3-9.4,40.3-23.3c4.2,2,8.6,3.6,13.1,4.9
	c0,0.4,0,0.8,0,1.2c0,50.4,40.9,91.3,91.3,91.3s91.3-40.9,91.3-91.3c0-41.7-27.9-76.8-66-87.8c0-0.4,0-0.8,0-1.2
	c0-50.4-40.9-91.3-91.3-91.3s-91.3,40.9-91.3,91.3c0,4.9,0.4,9.7,1.1,14.4c-14,3.5-25.5,13.5-31.2,26.5c-2.6-2.3-5.6-4.3-8.9-5.7
	c0.7-4.9,1.1-9.9,1.1-15.1c0-55-44.6-99.7-99.7-99.7c-38.8,0-72.4,22.2-88.9,54.5c-0.9-0.2-1.9-0.4-2.8-0.6c0-0.4,0-0.8,0-1.1
	c0-55-44.6-99.7-99.7-99.7c-26.5,0-50.5,10.3-68.4,27.2c-1.7-8.1-4.7-15.7-8.7-22.6c-5.7,5.6-15.9,7.6-22.4,2.9
	c-3.1-2.3-6.5-3.9-10-5.6c0,0,0,0-0.1,0c-1-0.4-2-0.8-3-1.2c-2.6-1-5.2-1.8-7.8-2.7c-10.3-3.3-20.9-5.8-31.5-7.5
	c-1.5-0.3-3.1-0.4-4.6-0.7c-0.2,0-0.4-0.1-0.7-0.1c-2.5-0.3-5.1-0.5-7.6-0.7c-5.4-0.4-10.8-0.6-16.2-0.4c-2.5,0.1-5.1,0.3-7.6,0.6
	h-0.1c-1.1,0.2-2.2,0.4-3.3,0.6c-2.2,0.5-4.3,1.1-6.4,1.8c-0.6,0.3-1.3,0.6-1.9,0.9s-1.2,0.7-1.8,1.1c-0.3,0.3-0.6,0.7-0.9,1l0,0
	c-0.2,0.7-0.3,1.2-0.4,1.5c0,1.5-0.2,1.9-0.3,1.6c-0.3,9.5-7.3,16.7-16.4,18c-3.3,8.8-5.2,18.3-5.2,28.2c0,1.1,0,2.2,0.1,3.4
	c-0.7,0.1-1.4,0.2-2.1,0.3c-10.2-19.5-30.5-32.8-54-32.8c-17.9,0-34,7.7-45.1,20c-6.3-8.1-16.2-13.3-27.3-13.3
	c-14.4,0-26.7,8.8-32,21.3c-4.1-1.7-8.6-2.7-13.3-2.7c-1.6,0-3.1,0.1-4.6,0.3c-6.7-22-27.2-38-51.4-38c-17.9,0-33.8,8.8-43.5,22.2
	c-9.6-14.8-26.2-24.6-45.1-24.6c-12.6,0-24.2,4.4-33.4,11.6c-1.9-0.2-3.7-0.3-5.6-0.3c-14.9,0-28.5,6.1-38.2,15.9
	c-6.9-4.9-15.2-7.8-24.3-7.8c-5.9,0-11.4,1.2-16.5,3.4c-7.7-10.1-19.8-16.7-33.5-16.7c-13.8,0-26.1,6.7-33.8,17c-0.2,0-0.3,0-0.5,0
	c-1.7-4-3.7-7.7-5.9-11.3c-1.8,0.6-3.8,1-5.8,0.9c-19.9-0.7-38.7-6.6-58.1-10.4c-2.4-0.5-4.9-0.9-7.3-1.3c0,0,0,0-0.1,0
	c-0.3,0-0.5-0.1-0.7-0.1c-0.8-0.1-1.6-0.2-2.4-0.2c-4.6-0.4-9.2-0.5-13.7-0.1c-0.2,0-1.1,0.1-1.7,0.2c-0.6,0.1-1.3,0.2-1.4,0.3
	c-2.2,0.4-4.3,1-6.4,1.7c-1.1,0.3-2.2,0.7-3.2,1.1c-0.3,0.1-0.7,0.4-1.2,0.6c-2.2,1.2-4.3,2.4-6.4,3.7c-6.3,4-14,3-19.7-0.9
	c-4.5,6-8.1,12.8-10.6,20c-3.3-0.8-6.7-1.3-10.2-1.3c-23.2,0-41.9,18.8-41.9,41.9c0,2.5,0.2,5,0.7,7.4
	c-13.2-13.3-31.8-21.8-52.3-21.8c-40.5,0-73.3,32.8-73.3,73.3c0,16.1,5.2,31,14,43.1c-5.4,3.7-9,9.9-9,16.9c0,2.1,0.3,4.1,0.9,6
	c-0.5,0.2-0.9,0.4-1.4,0.6c-3.7-4.1-9.1-6.6-15.1-6.6c-8.6,0-15.9,5.3-18.9,12.8c-4-3.4-8.7-6-14-7.3c1.6-6.2,2.4-12.7,2.4-19.4
	c0-43.3-35.1-78.3-78.3-78.3c-31.6,0-58.8,18.7-71.2,45.7c-6.1-2.1-12.5-3.2-19.3-3.2c-8.4,0-16.5,1.8-23.7,4.9
	c-7.7-35.1-39-61.4-76.5-61.4c-43.3,0-78.3,35.1-78.3,78.3c0,4.7,0.4,9.4,1.3,13.9c-0.4,0-0.8,0-1.3,0c-32.8,0-59.4,26.6-59.4,59.4
	S678.6,403.6,711.4,403.6z"/>
<path id="XMLID_2_" class="st0" d="M662.1,310.9V95.4h1920.1v99l-60.3,47.7c0,0-45.3,46.7-48.7,48c-3.3,1.3-44.7,6.7-48,6.7
	S2151,240.9,2151,240.9l-202.4-56.1c0,0-207.3,4-205.3,4s-159.3-2-159.3-2l-104.8,3.2c0,0-89.3,16.7-95.3,17.3s-49.3,11.3-53.3,10.7
	c-4-0.7-70.7-14.9-70.7-14.9l-69.3,18.3c0,0-12,25.9-14.7,29.3c-2.7,3.3-64.7,60.2-64.7,60.2l-41,22.4l-165.3-6.9l-99-34
	L662.1,310.9z"/>
</svg>
