<?xml version="1.0" encoding="utf-8"?>
<!-- Generator: Adobe Illustrator 19.0.0, SVG Export Plug-In . SVG Version: 6.00 Build 0)  -->
<svg version="1.1" id="Layer_1" xmlns="http://www.w3.org/2000/svg" xmlns:xlink="http://www.w3.org/1999/xlink" x="0px" y="0px"
	 viewBox="2896.7 -558.8 2274.5 2624.4" style="enable-background:new 2896.7 -558.8 2274.5 2624.4;" xml:space="preserve">
<style type="text/css">
	.st0{fill:#FFFFFF;}
	.st1{fill:#D6D6D6;}
	.st2{fill:#EDEDED;}
	.st3{fill:#E2E2E2;}
</style>
<g>
	<polyline class="st0" points="3006.5,-269.9 3006.5,1584.7 5061.3,1584.4 5061.3,-280.8 	"/>
	<g>
		<path id="XMLID_14_" class="st1" d="M2920.5,1943.9c0,50.7,40.6,91.8,90.7,91.8c22,0,42.2-7.9,57.9-21.1
			c9.5,6.9,21.2,11.1,33.8,11.1c22.6,0,42.1-13,51.7-32c8.8,4,18.3,6.1,28.5,6.1c38.8,0,70.3-31.8,70.3-71.2c0-0.5,0-1.2,0-1.7
			c6.6,2.5,13.9,3.8,21.5,3.8c23.8,0,44.5-13.6,54.9-33.4c5.6,6.7,14,11,23.3,11c11.7,0,21.9-6.7,27-16.5c3.3,1,6.6,1.4,10.2,1.4
			c20.6,0,37.2-16.9,37.2-37.7c0-1.5-0.1-3.1-0.3-4.6c3.2,0.9,6.4,1.3,9.8,1.3c13.5,0,25.2-7.3,31.7-18
			c36.1-10.1,62.5-43.7,62.5-83.4c0-6.1-0.6-12-1.8-17.7c4.7,1.2,9.7,1.8,14.8,1.8c24.4,0,45.4-14,55.9-34.6
			c4.2-0.4,8.4-1.3,12.3-2.5c7.2,2.6,14.9,4,22.9,4c23.1,0,43.6-11.5,56.1-29.1c9.3,5.6,20,8.8,31.6,8.8c23.2,0,43.3-12.9,54-31.9
			c7.6,9.1,18.9,14.8,31.6,14.8c8.5,0,16.4-2.6,23-7c9.9,18.6,29.2,31.3,51.6,31.3c0.3,0,0.5,0,0.8,0c11.7,13,28.6,21.2,47.3,21.2
			c25.1,0,46.7-14.6,57.2-35.9c3,3.4,7.2,5.7,12,5.7c6.7,0,12.5-4.3,14.8-10.4c4.2,6.2,11.3,10.4,19.3,10.4c7,0,13.1-3,17.4-7.9
			c3.3,9.1,11.9,15.5,21.9,15.5c11.6,0,21.2-8.5,23.1-19.8c11.4,11.5,27.1,18.7,44.4,18.7c20.7,0,38.9-10,50.4-25.6
			c6.4,4.6,14.3,7.4,22.8,7.4c4.3,0,8.5-0.7,12.4-2c7.3,8.6,18,14.1,30.1,14.1c7.6,0,14.7-2.1,20.7-5.9c11.6,11.6,27.5,18.8,45,18.8
			c17,0,32.4-6.6,43.8-17.5c14.3,27.2,42.7,45.7,75.3,45.7c6.2,0,12.2-0.6,18-1.9c6.6,41.1,41.8,72.4,84.3,72.4
			c10.4,0,20.4-1.9,29.5-5.3c7.8,53.4,53.3,94.4,108.2,94.4c3.4,0,6.6-0.2,9.9-0.4c1.6,34.7,29.9,62.4,64.6,62.4
			c1.8,0,3.6-0.1,5.4-0.2c3.9,13.9,16.4,24,31.4,24c8.6,0,16.4-3.4,22.4-9c7.9,26.8,32.4,46.4,61.5,46.4c8.3,0,16.3-1.6,23.7-4.6
			c4.9,12.6,17,21.6,31.1,21.6c4.5,0,8.9-1,12.9-2.6c9.1,27.7,34.8,47.6,65.2,47.6c38,0,68.8-31.2,68.8-69.6c0-6.2-0.8-12.3-2.3-18
			c21.8-14.9,36.2-40.3,36.2-69c0-46-36.8-83.3-82.2-83.3c-17,0-32.8,5.2-45.9,14.2c-28.2-23.6-64.5-54-66.7-55.3
			c-3.7-2.1-97.4-23.8-126.7-25.8l0,0c-5.5-55.9-52.1-99.6-108.8-99.6c-21.1,0-40.7,6.1-57.5,16.5c-11.9-33.2-43.3-57-80.2-57
			c-6.2,0-12.2,0.6-18,1.9c-6.6-41.1-41.8-72.4-84.3-72.4c-29.2,0-55,14.8-70.3,37.6c-11.7-13.9-29.2-22.7-48.7-22.7
			c-25.8,0-48,15.5-58.2,37.7c-2.4-0.4-5-0.7-7.5-0.7c-4.3,0-8.5,0.7-12.4,2c-7.3-8.6-18-14.1-30.1-14.1c-6.4,0-12.5,1.6-17.9,4.4
			c-10.7-19.9-31.3-33.3-55.3-33.3c-28.7,0-52.8,19.4-60.3,46c-1.8-4.2-3.1-7-3.3-7.4c-0.8-1.3-16.1-18.2-32-20.6
			s-51.7-1.8-59.8,0.9c-8.1,2.7-10.5,5.9-12.1,12c-0.4,1.4-0.6,3.7-0.9,6.5c-11.2-9.8-25.8-15.8-41.8-15.8c-4.5,0-9,0.5-13.2,1.4
			c-9.8-7.4-21.8-11.7-35-11.7c-3.7,0-7.2,0.3-10.7,1l0.3-0.4c0,0-45-12.8-46.4-12.8s-33.4,4.6-33.4,4.6s4.9,9.6,8.6,18.6
			c-8.5,1.5-16.2,5.6-22.1,11.5c-9.8-21.7-31.4-36.8-56.5-36.8c-18.1,0-34.4,7.9-45.8,20.4c-11.6-9.1-26.3-14.4-42-14.4
			c-8,0-15.7,1.4-22.9,4c-6.2-1.8-12.8-2.9-19.5-2.9c-29.9,0-55.4,19.6-64.5,46.9c-27.1,7-47.1,31.9-47.1,61.6c0,0.3,0,0.5,0,0.9
			c-10.9-5.1-23-7.9-35.7-7.9c-43.1,0-78.9,32.3-84.7,74.4l-271.2,15.7l-33.8,26.7c-13.4-9.5-29.7-15.2-47.3-15.2
			c-45.4,0-82.2,37.3-82.2,83.3c0,15.2,4,29.3,11,41.5C2926.7,1905.5,2920.5,1924,2920.5,1943.9z"/>
		<path id="XMLID_13_" class="st2" d="M4112.7,1586.2c3.9-1.1,20-20,20-20s-27.7-15.7-31.6-12.5c-3.9,3.2-1.4,9.9-4.2,12.5
			c-2.8,2.5-2.4,23.2-1.4,24.6C4096.6,1592.1,4112.7,1586.2,4112.7,1586.2z"/>
		<path id="XMLID_12_" class="st2" d="M2982.8,1844.2c32.8,0,61.4-18.6,75.9-45.9c10.3,4.3,21.7,6.7,33.6,6.7
			c33.2,0,62.1-18.5,77.3-45.8c23.4,20.9,54.2,33.6,87.9,33.6c43.1,0,81.5-20.8,105.8-53.1c15.4,10.9,34.1,17.3,54.3,17.3
			c41.9,0,77.4-27.5,89.8-65.7c3.6,1.3,7.4,1.9,11.4,1.9c8.9,0,16.9-3.3,23-8.9c11.7,9.3,26.5,14.9,42.5,14.9
			c32.4,0,59.6-22.6,66.9-53.2c7,2.3,14.3,3.6,22,3.6c33.8,0,62-24.8,67.8-57.3c8.5,3.8,18.1,6.1,28.2,6.1
			c21.8,0,41.3-10.4,53.9-26.4c5.8,3.6,12.7,5.7,19.9,5.7c5.1,0,9.8-1,14.2-2.8c7,31.3,34.6,54.6,67.6,54.6
			c28,0,52.2-16.9,63.1-41.1c5.5,1.5,11.2,2.3,17.2,2.3c9.7,0,18.9-2.1,27.2-6c5,4.7,11.1,8,17.9,9.5c-0.8,3.2-1.3,6.5-1.3,9.8
			c0,21.4,17.1,38.8,38.3,38.8s38.3-17.3,38.3-38.8c0-2.3-0.2-4.6-0.6-6.7c5.5,3.1,11.8,4.9,18.6,4.9c9.6,0,18.3-3.6,25.1-9.5
			c11.4,11.3,26.7,18.6,43.7,19.4c10.8,23.3,34,39.4,61.1,39.4c18.9,0,35.9-7.8,48.1-20.5c6.4,30.7,33.4,53.9,65.8,53.9
			c5.3,0,10.3-0.6,15.2-1.8c6,12.7,18.9,21.5,33.7,21.5c5.1,0,9.9-1.1,14.3-2.9c16.8,22.1,43.1,36.3,72.8,36.3
			c22,0,42.3-7.9,58.1-20.9c16.8,53.9,66.5,93,125.3,93c31.2,0,59.8-11,82.4-29.4c15.3,5.9,31.7,9.1,49,9.1
			c10.9,0,21.4-1.3,31.5-3.6c20.1,52.1,70.2,89,128.8,89c76.3,0,138.2-62.7,138.2-140c0-77.3-61.9-140-138.2-140
			c-10.9,0-21.4,1.3-31.5,3.6c-20.1-52.1-70.2-89-128.8-89c-37.2,0-71,14.8-95.9,39.1c-11.3-3.2-23.2-4.9-35.5-4.9
			c-42.8,0-80.9,20.7-104.8,52.8c-16.1-26.9-45.2-44.8-78.6-44.8c-30.4,0-57.4,14.9-74.1,38c-10.2-24.3-34.2-41.4-61.9-41.4
			c-18.9,0-35.9,7.8-48.1,20.5c-6.2-29.7-31.5-52.2-62.3-53.8c-10.8-23.3-34-39.4-61.1-39.4c-30.8,0-56.7,20.9-64.7,49.5
			c-2.4-0.5-5-0.7-7.5-0.7c-21.1,0-38.3,17.3-38.3,38.8c0,2.3,0.2,4.6,0.6,6.7c-3.3-1.8-6.7-3.2-10.4-4c0.8-3.2,1.3-6.5,1.3-9.8
			c0-17.3-11.2-31.9-26.7-36.9c-2.6-33.8-30.7-60.5-64.9-60.5c-24.6,0-46,13.9-57,34.3c-7.3-2.6-15.1-4.1-23.2-4.1
			c-21.1,0-40,9.6-52.7,24.7c-7-8.3-17.4-13.6-29.1-13.6c-3.6,0-7.1,0.5-10.3,1.4c-10.4-25.1-34.9-42.7-63.5-42.7
			c-33.8,0-62,24.8-67.8,57.3c-8.5-3.8-18.1-6.1-28.2-6.1c-32.4,0-59.6,22.6-66.9,53.2c-7-2.3-14.3-3.6-22-3.6
			c-36,0-65.4,27.9-68.5,63.4c-3.6,0.3-7,1.2-10.2,2.6c-13.9-35.4-48.1-60.5-88-60.5c-19,0-36.6,5.7-51.5,15.4
			c-24-34.5-63.7-57-108.6-57c-64.6,0-118.5,46.8-130.4,108.8c-10.7-4.6-22.5-7.2-34.8-7.2c-34.8,0-65,20.4-79.5,50
			c-9.4-3.5-19.4-5.4-29.9-5.4c-47.6,0-86.2,39.1-86.2,87.2S2935.3,1844.2,2982.8,1844.2z"/>
		<path id="XMLID_11_" class="st2" d="M4349.1,1588.5c4.2-0.2,54.8-42.9,54.8-42.9s-53.8-41.1-59.1-41.6
			c-5.3-0.5-36.4,41.9-36.4,43.9s24.3,51.1,24.3,51.1L4349.1,1588.5z"/>
		<path id="XMLID_10_" class="st2" d="M4120.3,1588.5c2.1-3.4,27.9-57.9,27.9-57.9l-44.8-20.8c0,0-28.8,32.8-27.6,37.3
			c1.3,4.4,10.2,26.8,11.8,31.1"/>
		<path id="XMLID_3_" class="st0" d="M3044.4,1742.1c33.6,0,61.2-26.9,62.6-60.6c6.4,1.6,13.1,2.5,19.9,2.5
			c18.3,0,35.2-6.1,48.9-16.3c10,21.5,31.6,36.3,56.6,36.3c18.6,0,35.2-8.2,46.7-21.1c13.6,10.1,30.5,16.1,48.7,16.1
			c14.9,0,28.8-4,40.9-11c6,10.9,17.5,18.4,30.8,18.4c18.9,0,34.4-15.1,35.1-34.1c2.4,1,5.2,1.6,7.9,1.6c3.4,0,6.5-0.9,9.4-2.2
			c3.9,4.4,9.6,7,15.9,7c11.9,0,21.5-9.8,21.5-21.8c0-2.2-0.3-4.4-0.9-6.4c5.6-2.2,10-6.7,12.1-12.4c9.3,4.1,19.5,6.2,30.3,6.2
			c29.6,0,55.4-17,68.3-41.7c2.7,1.3,5.7,1.9,8.9,1.9c11.9,0,21.5-9.8,21.5-21.8c0-6.2-2.6-11.9-6.7-15.8
			c7.9-3.5,13.8-10.7,15.7-19.4c5.8-1.2,11.1-3.5,15.8-6.7c15,18.4,37.8,30.1,63.1,30.1c24.1,0,45.9-10.6,60.8-27.4
			c4.1,1.3,8.5,2,13.2,2c14.6,0,27.5-7.2,35.6-18.2c0.6,0,1.4,0,2,0c6.2,0,12-1.3,17.4-3.6c8.1,10.8,20.9,17.8,35.3,17.8
			c7.7,0,15-2,21.2-5.6c10.3,13.5,26.5,22.1,44.7,22.1c13.3,0,25.5-4.7,35.2-12.4c1.9,0.2,3.9,0.3,5.9,0.3
			c18.9,0,35.6-9.4,45.9-23.7c10.1,15.8,27.6,26.3,47.6,26.3c12.5,0,24.1-4.2,33.5-11.1c6.6,6.5,15.6,10.6,25.5,10.6
			c15.2,0,28.2-9.4,33.7-22.7c4.3,1.8,9.1,2.9,14,2.9c4.9,0,9.4-1,13.6-2.7c6.1,29.4,32,51.5,62.8,51.5c20.4,0,38.5-9.6,50.2-24.6
			c4.3,1.8,9.1,2.8,14,2.8c10.2,0,19.5-4.3,26.2-11.2c14.3,11.6,32.5,18.6,52.3,18.6c7.5,0,14.7-1,21.6-2.9
			c7.3,23.2,26.8,40.8,50.9,45.1c19.3,23.8,48.6,39.1,81.4,39.1c13,0,25.3-2.3,36.8-6.7c11.4,19.2,32.2,32.1,55.9,32.1
			c11.8,0,23-3.2,32.6-8.9c19.2,20.6,46.4,33.5,76.6,33.5c26.3,0,50.2-9.7,68.6-25.8c5.8,4,12.9,6.3,20.5,6.3
			c12.2,0,23-6.1,29.6-15.4c9,12.3,23.3,20.3,39.5,20.3c18.1,0,34.1-10,42.5-24.9c4.4,2.1,9.1,3.8,13.8,5.2c0,0.4,0,0.9,0,1.3
			c0,53.8,43.1,97.5,96.3,97.5c53.1,0,96.3-43.7,96.3-97.5c0-44.5-29.4-82-69.6-93.7c0-0.4,0-0.9,0-1.3c0-53.8-43.1-97.5-96.3-97.5
			c-53.1,0-96.3,43.7-96.3,97.5c0,5.2,0.4,10.4,1.2,15.4c-14.8,3.7-26.9,14.4-32.9,28.3c-2.7-2.5-5.9-4.6-9.4-6.1
			c0.7-5.2,1.2-10.6,1.2-16.1c0-58.7-47-106.4-105.1-106.4c-40.9,0-76.3,23.7-93.7,58.2c-0.9-0.2-2-0.4-3-0.6c0-0.4,0-0.9,0-1.2
			c0-58.7-47-106.4-105.1-106.4c-27.9,0-53.3,11-72.1,29c-1.8-8.6-5-16.8-9.2-24.1c-6,6-16.8,8.1-23.6,3.1c-3.3-2.5-6.9-4.2-10.5-6
			c0,0,0,0-0.1,0c-1.1-0.4-2.1-0.9-3.2-1.3c-2.7-1.1-5.5-1.9-8.2-2.9c-10.9-3.5-22-6.2-33.2-8c-1.6-0.3-3.3-0.4-4.9-0.7
			c-0.2,0-0.4-0.1-0.7-0.1c-2.6-0.3-5.4-0.5-8-0.7c-5.7-0.4-11.4-0.6-17.1-0.4c-2.6,0.1-5.4,0.3-8,0.6h-0.1
			c-1.2,0.2-2.3,0.4-3.5,0.6c-2.3,0.5-4.5,1.2-6.7,1.9c-0.6,0.3-1.4,0.6-2,1c-0.6,0.3-1.3,0.7-1.9,1.2c-0.3,0.3-0.6,0.7-0.9,1.1l0,0
			c-0.2,0.7-0.3,1.3-0.4,1.6c0,1.6-0.2,2-0.3,1.7c-0.3,10.1-7.7,17.8-17.3,19.2c-3.5,9.4-5.5,19.5-5.5,30.1c0,1.2,0,2.3,0.1,3.6
			c-0.7,0.1-1.5,0.2-2.2,0.3c-10.8-20.8-32.2-35-56.9-35c-18.9,0-35.9,8.2-47.6,21.4c-6.6-8.6-17.1-14.2-28.8-14.2
			c-15.2,0-28.2,9.4-33.7,22.7c-4.3-1.8-9.1-2.9-14-2.9c-1.7,0-3.3,0.1-4.9,0.3c-7.1-23.5-28.7-40.6-54.2-40.6
			c-18.9,0-35.6,9.4-45.9,23.7c-10.1-15.8-27.6-26.3-47.6-26.3c-13.3,0-25.5,4.7-35.2,12.4c-2-0.2-3.9-0.3-5.9-0.3
			c-15.7,0-30.1,6.5-40.3,17c-7.3-5.2-16-8.3-25.6-8.3c-6.2,0-12,1.3-17.4,3.6c-8.1-10.8-20.9-17.8-35.3-17.8
			c-14.6,0-27.5,7.2-35.6,18.2c-0.2,0-0.3,0-0.5,0c-1.8-4.3-3.9-8.2-6.2-12.1c-1.9,0.6-4,1.1-6.1,1c-21-0.7-40.8-7-61.3-11.1
			c-2.5-0.5-5.2-1-7.7-1.4c0,0,0,0-0.1,0c-0.3,0-0.5-0.1-0.7-0.1c-0.8-0.1-1.7-0.2-2.5-0.2c-4.9-0.4-9.7-0.5-14.4-0.1
			c-0.2,0-1.2,0.1-1.8,0.2c-0.6,0.1-1.4,0.2-1.5,0.3c-2.3,0.4-4.5,1.1-6.7,1.8c-1.2,0.3-2.3,0.7-3.4,1.2c-0.3,0.1-0.7,0.4-1.3,0.6
			c-2.3,1.3-4.5,2.6-6.7,4c-6.6,4.3-14.8,3.2-20.8-1c-4.7,6.4-8.5,13.7-11.2,21.4c-3.5-0.9-7.1-1.4-10.8-1.4
			c-24.5,0-44.2,20.1-44.2,44.7c0,2.7,0.2,5.3,0.7,7.9c-14-14.5-33.6-23.6-55.3-23.6c-42.7,0-77.3,35-77.3,78.3
			c0,17.2,5.5,33.1,14.8,46c-5.7,4-9.5,10.6-9.5,18c0,2.2,0.3,4.4,0.9,6.4c-0.5,0.2-0.9,0.4-1.5,0.6c-3.9-4.4-9.6-7-15.9-7
			c-9.1,0-16.8,5.7-19.9,13.7c-4.2-3.6-9.2-6.4-14.8-7.8c1.7-6.6,2.5-13.6,2.5-20.7c0-46.2-37-83.6-82.6-83.6
			c-33.3,0-62,20-75.1,48.8c-6.4-2.2-13.2-3.4-20.4-3.4c-8.9,0-17.4,1.9-25,5.2c-8.1-37.5-41.1-65.6-80.7-65.6
			c-45.7,0-82.6,37.5-82.6,83.6c0,5,0.4,10,1.4,14.8c-0.4,0-0.8,0-1.4,0c-34.6,0-62.6,28.4-62.6,63.4
			C2981.5,1713.3,3009.8,1742.1,3044.4,1742.1z"/>
		<path id="XMLID_1_" class="st0" d="M3006.5,1643.3v-230.1h2010.6v105.7l-63.6,50.9c0,0-47.8,49.9-51.4,51.2
			c-3.5,1.4-47.1,7.2-50.6,7.2c-3.5,0-289.1-59.7-289.1-59.7l-213.4-59.9c0,0-218.6,4.3-216.5,4.3s-167.9-2-167.9-2l-110.5,3.4
			c0,0-94.2,17.8-100.5,18.5c-6.3,0.6-52,12.1-56.2,11.4c-4.2-0.7-74.6-15.9-74.6-15.9l-73.1,19.5c0,0-12.7,27.7-15.5,31.3
			c-2.8,3.5-68.2,64.3-68.2,64.3l-43.2,23.9l-174.3-7.4l-104.4-36.3L3006.5,1643.3z"/>
	</g>
	<g>
		<circle id="XMLID_51_" class="st2" cx="4163.6" cy="-463.2" r="28.9"/>
		<path id="XMLID_5_" class="st3" d="M4949.9-556c-41.2,0-77.7,20.2-100.1,51.2c-20-25.3-51-41.5-85.8-41.5
			c-35.3,0-66.6,16.7-86.6,42.6c-11.5-15.6-30-25.7-50.9-25.7c-18.1,0-34.4,7.6-46,19.8c-14.5-10.8-32.4-17.2-51.9-17.2
			c-11.2,0-21.9,2.1-31.7,6c-0.4,0-0.8,0-1.2,0c-1.1,0-2.3,0.1-3.4,0.1c-8.1-12.3-22-20.4-37.8-20.4c-16.9,0-31.7,9.3-39.4,23
			c-10.1-4.9-21.5-7.6-33.5-7.6c-26.3,0-49.4,13.1-63.4,33.1c-14.2-29-43.9-48.9-78.4-48.9c-25.5,0-48.5,11-64.5,28.5
			c-6.8-16.5-23-28.1-41.9-28.1c-16.5,0-30.9,8.8-38.8,22c-11.6-12.3-28-20-46.3-20c-21.7,0-40.8,10.9-52.3,27.5
			c-6.7-17.2-23.5-29.4-43.1-29.4c-12.7,0-24.3,5.2-32.7,13.5c-13.3-18.9-35.3-31.3-60.2-31.3c-28.5,0-53.1,16.2-65.3,39.9
			c-13-23.8-38.2-39.9-67.2-39.9c-31.6,0-58.8,19.2-70.4,46.6c-18.8-13.1-41.6-20.8-66.2-20.8c-30.1,0-57.5,11.5-78.1,30.4
			c-21-22-50.7-35.7-83.5-35.7c-26.3,0-50.6,8.8-70.1,23.7c-9.8-6.2-21.5-9.7-33.9-9.7c-17.4,0-33.3,7-44.8,18.3
			c-10.9-8.7-24.7-13.8-39.7-13.8c-19,0-36,8.3-47.7,21.4c-19.5-31.9-54.5-53.1-94.6-53.1c-61.2,0-110.8,49.6-110.8,110.8
			c0,48,30.5,88.9,73.2,104.2c-0.3-1.4-0.5-2.8-0.6-4.3v-0.1c-5.5-12.3,2.5-28.3,17.7-28.3h5.4c2.1,0,4.1,0.3,6,0.9
			c8.9-4.2,19.5-5.4,28.1-2.9c0.8,0.2,1.5,0.5,2.2,0.8c7.8-0.7,15.8-0.5,23.1,1.8c10,3.1,16.6,10.3,18.9,18.8
			c19-13.2,33.7-32.1,41.4-54.3c10.6,7.8,23.7,12.4,37.8,12.4c17.4,0,33.3-7,44.8-18.3c8.8,7,19.4,11.7,31,13.2
			c2.1,9.2,5.3,17.9,9.4,26.1c4.6-2.8,10.3-4.1,15.1-2.1c17.2,7.2,31.2,18.4,45.3,30.4c0.8-1.3,1.7-2.6,2.9-3.9
			c5.9-6.4,16.7-7.4,24-3.1c3.5,2.1,7,4.9,10.1,8c8.5-5.9,16.6-12.4,27.6-12.2c6.4,0.1,12.3,2.4,17.3,6c1.5-0.6,2.9-1.2,4.4-1.7
			c3.6-1.3,7.3-2.3,11.1-3.1c1.6-0.3,3.2-0.6,4.7-0.8c1.8-0.3,4.4-0.4,6.1-0.7c-0.2,0-0.3-0.1-0.5-0.1c0.2,0,0.5,0,0.7,0.1
			c0.3-0.1,0.5-0.1,0.7-0.2c0.5-0.2,1-0.1,1.1,0.1c2.4-0.4,5.3-1.6,7.3-2.1c2.9-0.7,5.7-1.2,8.6-1.7c8.5-1.3,17.1-2,25.4,1
			c12.7,4.5,19.7,13.7,29.1,22.6c0.5,0.5,1.1,1,1.6,1.5c0.7,0.4,1.4,0.8,2.1,1.2c-0.1-0.2,0.6-0.1,2.6,1.2c1.2,0.4,2.4,0.8,3.6,1.2
			c1.6,0.5,3.2,0.9,4.8,1.3c1.2-9.7,10.4-15.6,19.7-16.7c18.5-2.1,37.1-3.1,55.7-1.1c6.5,0.7,11.5,2.5,15.5,7.8c0.4,0.5,0.7,1,1,1.5
			c18.5-18.9,30.6-44.2,32.7-72.2c6.8,2,13.9,3,21.4,3c17,0,32.7-5.6,45.4-14.9c0,8.9,0.1,17.7,0.1,26.6v17.9
			c16.8-16.3,27.7-38.5,29.5-63.3c13.5,16.9,34.2,27.8,57.5,27.8c30.2,0,56.1-18.2,67.4-44.2c7.3,4.8,16,7.6,25.4,7.6
			c13,0,24.8-5.4,33.2-14c6,28.9,31.6,50.6,62.3,50.6c28.9,0,53.2-19.2,61-45.6c7,4.4,15.3,7,24.1,7c6.8,0,13.3-1.5,19.1-4.2
			c0,0.2,0,0.4,0,0.5c0,48.2,39.1,87.2,87.2,87.2c31.9,0,59.8-17.1,75-42.7c13.4,23,38.2,38.4,66.7,38.4c28.1,0,52.7-15,66.2-37.4
			c8.2,21,24.3,38.1,44.7,47.5c0.7-0.9,1.5-1.7,2.4-2.5c9.8-7.9,20.6-13.7,33.1-16.2c10.8-2.2,21.7-2.7,32.6-2.2
			c10.1,0.4,20.1,1.3,30.1,2.7c7.3-7.5,13.2-16.3,17.5-26c5.8,1.7,11.9,2.7,18.3,2.7c11.3,0,21.9-3,31.1-8.2
			c3.5,14.6,10,28.1,18.7,39.8c1-7.7,7.1-14.2,14.5-16.8c3.9-1.4,7.9-2.5,11.9-3.6c2.2-0.6,4.3-1.3,6.4-1.9c0.6-0.2,1-0.3,1.2-0.3
			c0.2-0.1,0.6-0.3,1.4-0.7c6.1-2.9,12.6-3.3,18.2-0.8c2.3-1.4,4.7-2.6,7.2-3.6c10.6-4.5,21.7-3.3,29.8,3.2
			c8.3-2.2,17.5,2.3,22.2,9.3c3,4.5,5.3,9.6,7,15c5.8-2.4,11.6-4.6,17.5-6.7c2.9-1,5.7-2.1,8.6-3.2c0.2-0.1,0.4-0.2,0.7-0.4
			c0.7-0.5,2-1.5,4.2-3.1c0.9-0.7,1.7-1.3,2.7-1.9c17.2-10.6,39.8-0.8,45.6,17.9c1.1,3.4,1.4,7,1.8,10.6c0.1,1,0.2,2,0.3,3
			c0.1,0.3,0.3,0.6,0.4,0.9c2.5,1.3,5,2.7,7.6,4c0.2,0,4.3,1.8,5.1,2.1c3.2,1.2,6.4,2.5,9.5,4c0.8,0.3,1.6,0.6,2.3,0.9
			c1,0.4,1.9,0.7,2.9,1.1c-3-7.5-4-15.4-1.2-23.4c1.5-4.2,3.4-8.4,5.5-12.3c0.2-0.4,0.4-0.8,0.6-1c0-0.2,0.1-0.4,0.1-0.6
			c0.3-1.2,0.7-5.9,0.5-1.1c0.4-8,4.7-14.9,12.2-18.1c7.8-3.3,15.4-1.2,21.6,4.1c0.6,0.5,1.3,1,1.9,1.6c0.2,0.2,0.6,0.4,1.1,0.8
			c1.7,1.1,3.3,2.2,5,3.2c1.6,1,3.3,1.9,5,2.8c0.8,0.4,1.6,0.8,2.4,1.2c3.6,1.3,7.2,2.5,10.9,3.4c1.6,0.4,3.2,0.7,4.8,1
			c0.9,0.2,8,1.2,3,0.5c9,1.1,16.2,5.3,19.1,14.5c1.4,4.4,2.1,9,2.2,13.7c0.9-0.9,1.8-1.8,2.8-2.6c1.9-6.1,6.6-11,13.4-13.2
			c9.8-3.2,22.2,3.7,24.4,13.8c0.3,1.6,0.6,3.1,0.8,4.7c19.9-21.9,32.1-51.1,32.1-83.1C5073.5-500.7,5018.1-556,4949.9-556z"/>
		<path class="st2" d="M5049.5-427.8c-3.1-9.5-5.3-20.1-5.4-30.1c-0.2-10.8,8.7-18.8,18.9-19.7c0-0.1-0.1-0.2-0.1-0.3
			c-0.6-1.9,0.3-3.8,1.9-4.9c-17.7-20.8-44-34-73.4-34c-18.8,0-36.3,5.4-51.2,14.7c-10.5-4-22-6.1-33.9-6.1
			c-31.8,0-60,15.4-77.5,39.1c-21.7-18.3-49.8-29.4-80.4-29.4c-30,0-57.4,10.6-78.9,28.2c-18-20-44.1-32.5-73.1-32.5
			c-27.8,0-53,11.5-70.9,30.1c-3.1-0.8-6.4-1.2-9.8-1.2c-8.6,0-16.6,2.8-23,7.5c-10.9-8.6-24.5-13.7-39.4-13.7
			c-10.7,0-20.7,2.6-29.5,7.3c-11.4-10.8-26.8-17.4-43.8-17.4c-10.9,0-21.2,2.7-30.1,7.6c-9.6-2.8-19.8-4.2-30.4-4.2
			c-21.5,0-41.5,6.1-58.4,16.7c-11.6-12.4-28.1-20.1-46.4-20.1c-23.3,0-43.7,12.5-54.8,31.2c-11.7-14.4-29.5-23.7-49.6-23.7
			c-11.7,0-22.7,3.2-32.1,8.7c-11.6-16.2-30.5-26.7-51.9-26.7c-18.6,0-35.3,8-47,20.7c-7-9.6-18.3-15.8-31.1-15.8
			c-4.6,0-9.1,0.8-13.2,2.3c-11.1-13.9-28.2-22.8-47.3-22.8c-24.3,0-45.2,14.3-54.9,35c-8.6-3.5-18-5.5-27.9-5.5
			c-16.9,0-32.5,5.8-44.9,15.4c-12.4-9.6-28-15.4-44.9-15.4c-14.2,0-27.5,4.1-38.7,11.1c-16.1-19.9-40.7-32.7-68.3-32.7
			c-29,0-54.7,14.1-70.7,35.8c-12.3-6.6-26.4-10.3-41.3-10.3c-27.2,0-51.5,12.4-67.6,31.8c-20.5-22-49.7-35.7-82.1-35.7
			c-13.7,0-26.9,2.5-39.1,7c-8.4-28.2-34.5-48.8-65.4-48.8c-20.7,0-39.2,9.2-51.8,23.8c-21-20.2-49.5-32.6-81-32.6
			c-64.5,0-116.8,52.3-116.8,116.8c0,7.2,0.6,14.2,1.9,21c7-2.4,15.1-0.1,21,4.6c11.6,9.4,21,21,30.6,32.4c1,1.2,2,2.4,3.1,3.6
			c2-11,9.2-20.6,19.7-25.4c23.1-10.5,51.8-5.8,74.3,4.3c7.7,3.5,14.8,8.4,20.6,14.3c6.3-0.1,12.8,3.8,16.5,8.6
			c4.1-3.6,8.3-7,12.8-10.3c4-3,8.1-6,12.2-9c0.6-0.5,1.3-0.9,1.9-1.4c-1.1-0.4-2.2-0.8-3.2-1.1c-9.5-3.1-15.5-11.7-14.2-21.7
			c1.3-9.7,9.6-17.1,19.4-17.2c14.4-0.2,28.5-3.1,42.7,0.7c11.4,3.1,15.3,13.8,13.8,24.4c-0.5,3.4-1.3,6.6-2.5,9.7
			c1.7,2,3.4,4.1,5,6.2c7.2-9.4,16.3-16.6,28.2-18.2c8.8-1.2,16.3,1.7,22.6,6.7c7.3-0.9,14.5-0.6,21.2,1c9.9-2.9,21.4,3.7,25,14
			c0.3,0.8,0.5,1.6,0.8,2.4c0.8,1,1.6,2.1,2.4,3.3c2.9,4.3,4.8,9,5.8,13.8c2.1-2.2,4.5-4.2,7.4-6c9.5-6,20.6-6.9,30.9-4.2
			c6.2-7.8,14.1-13.8,23.7-16.5c17.5-5,34.9,2.9,44.6,17.8c0.3,0.4,0.5,0.8,0.8,1.3c5.8,4.9,10.8,10.8,15,17.3
			c3.7,1.8,6.9,4.5,9,7.8c3,4.7,3.4,9.9,2,14.7c1.5,4.3,2.8,8.7,3.7,13c22.8-3.9,42.7-16.6,55.9-34.5c12.3,6.6,26.4,10.3,41.3,10.3
			c23.3,0,44.5-9.1,60.2-24c12.7,10.5,29,16.9,46.8,16.9c16.9,0,32.5-5.8,44.9-15.4c2.3,1.8,4.8,3.5,7.3,5c-0.4-3.2,0-6.6,1.3-9.9
			c4.1-10.3,12.9-16.4,24.4-13.8c1.5,0.3,3,1,4.4,1.8c3.7-3.8,8.4-6.7,13.4-8c18-4.6,35.3,6.2,42.1,22.5
			c11.4-9.9,19.8-23.2,23.4-38.4c3.7,0.7,7.5,1.1,11.4,1.1c20.3,0,38.3-10,49.3-25.4c3.6,1.1,7.4,1.7,11.3,1.7
			c5.7,0,11.1-1.3,16-3.5c6.6,28.2,31.9,49.2,62.1,49.2c11.7,0,22.7-3.2,32.1-8.7c2.9,4,6.2,7.7,9.9,10.9c1.2-3.7,3.4-7,6.4-9.2
			c0.5-0.4,1-0.7,1.6-1c0.1-0.1,0.3-0.2,0.4-0.3c1.8-1.5,3.6-3,5.6-4.2c1.7-1.2,3.5-2.2,5.3-3.1c5.4-2.6,11.1-4.7,16.8-6.6
			c7.4-2.4,14.7-5.1,22-7.8c19.4-7.2,41-14.8,61.8-10.1c12.9,2.9,17.6,18.3,11.8,29.1c-3.2,6-7.9,11-13.3,15.2
			c7.1,3.5,15,5.7,23.3,6.2c0,0.4,0.1,0.7,0.2,1.1c1.7,0.3,3.4,0.7,5.1,1.1c22.9,5.6,45.1,13.1,67.6,19.9c9.2-1.5,18.3-2.8,27.5-4.6
			c15.9-3.2,31.9-7.1,48.2-7.6c8.9-0.3,18.3,0.8,26,5.6c6.9,4.3,11.1,11.5,12,19.2c6.2,2,11.8,5.2,16.6,9.7
			c7.4-11.8,12.6-25.1,15-39.3c1.4,0.6,2.8,1.1,4.2,1.6c-3.9-11.5-1.8-24.2,10.3-32.2c11.2-7.3,26.4-5.4,38.6-2.1
			c6.7,1.8,14,4.2,20.1,8.1c0.4-0.3,0.9-0.6,1.3-0.9c5.4-3.5,11.4-3.4,16.7-1.2c5.2-8.9,16.2-12.7,26.8-7.3
			c10.9,5.5,20,13.1,28,21.8c2.6-1.3,5.5-2.1,8.6-2.5c4.4-0.6,8.7,0.4,12.7,2.1c4.4-9,13-15.1,23.6-12.1c3.5,1,6.9,2.3,10,3.9
			c0.3-2.7,1-5.4,2.1-8.1c4.1-9.6,13.6-15.6,24.1-15.3c13.4,0.4,26.1,8.6,35.4,18.1c0.3-0.9,0.7-1.7,1.2-2.4
			c8.7-14.5,28.3-18.3,43.7-20c13.9-1.5,30.3,0.2,39.5,12c6.5-0.9,13-0.9,19.4,0.9c22.8,6.4,28.7,31,28.8,52
			c5.4,0.4,10.9,1,16.3,1.7c2.8-5.6,6.4-10.8,11.1-15.3c6.8-7.2,20.9-8.8,27.7-0.4c2.1,2.5,3.9,5.2,5.4,7.9c2.1-2,4.2-4.1,6.4-6.1
			c-1.1-1-2.1-1.9-3.2-2.9c-5.9-5.6-8.1-17.2-3.1-24c7.5-10.3,18.3-17.6,29.3-23.8c10.6-5.9,22.5-12,34.9-12.4
			c13.1-0.4,22.3,13,19.1,25.1c-2.3,8.7-5.9,16.7-10.5,24.1c8.3-1.2,16.6-1.8,24.8-2.1c11.2-0.5,24.4-0.6,36.9,1.5
			c1.2-0.8,2.4-1.6,3.7-2.3c9-5.5,18.9-10.5,29.2-14.1c0.7-1.5,1.5-2.9,2.3-4.4c2.8-5,6-9.9,9.4-14.5
			C5056.4-409.6,5052.3-419.1,5049.5-427.8z"/>
		<circle class="st2" cx="5031.4" cy="-455.3" r="43.3"/>
		<path id="XMLID_9_" class="st0" d="M5061.3-360.9c11.8-13.9,19-31.9,19-51.5c0-43.9-35.6-79.6-79.6-79.6s-79.6,35.6-79.6,79.6
			c0,0.4,0,0.7,0,1.1c-10.8-31.1-40.4-53.4-75.1-53.4c-26,0-49.1,12.5-63.6,31.8c-5.7-18.4-22.9-31.8-43.2-31.8
			c-16.3,0-30.5,8.6-38.5,21.5c-6.6-3.8-14.3-6-22.5-6c-11.3,0-21.6,4.1-29.5,10.9c-11.9-20.6-34.1-34.4-59.5-34.4
			c-28.9,0-53.6,17.8-63.8,43.1c-8-6.9-18.3-11.1-29.7-11.1c-1.1,0-2.3,0.1-3.4,0.1c-8.1-12.3-22-20.4-37.8-20.4
			c-16.9,0-31.7,9.3-39.4,23c-10.1-4.9-21.5-7.6-33.5-7.6c-26.3,0-49.4,13.1-63.4,33.1c-14.2-29-43.9-48.9-78.4-48.9
			c-25.5,0-48.5,11-64.5,28.5c-6.8-16.5-23-28.1-41.9-28.1c-16.5,0-30.9,8.8-38.8,22c-11.6-12.3-28-20-46.3-20
			c-21.7,0-40.8,10.9-52.3,27.5c-6.7-17.2-23.5-29.4-43.1-29.4c-12.7,0-24.3,5.2-32.7,13.5c-13.3-18.9-35.3-31.3-60.2-31.3
			c-36,0-66,26-72.3,60.2c-17.3-27.6-48-45.9-83-45.9c-12.2,0-23.9,2.2-34.7,6.3c-8.4-11.6-22-19.1-37.4-19.1
			c-19.2,0-35.7,11.7-42.7,28.4c-14.5-9.9-32-15.6-50.8-15.6c-28.3,0-53.5,13-70.1,33.3c-12-24.4-37-41.1-66-41.1
			c-25.9,0-48.6,13.4-61.7,33.6c-8.3-7.9-19.6-12.8-31.9-12.8c-11.6,0-22.2,4.3-30.4,11.4c-15.2-30.7-46.9-51.8-83.4-51.8
			c-31.1,0-58.7,15.3-75.6,38.7c-13.4-17.9-34.8-29.5-58.9-29.5c-40.6,0-73.5,32.9-73.5,73.5c0,18.9,7.1,36.1,18.8,49.1v90.1h680.5
			c5.8,1.1,11.8,1.6,17.9,1.6c6.1,0,12-0.6,17.8-1.6h1338.7V-360.9L5061.3-360.9z"/>
	</g>
</g>
</svg>
