<?xml version="1.0" encoding="utf-8"?>
<!-- Generator: Adobe Illustrator 19.0.0, SVG Export Plug-In . SVG Version: 6.00 Build 0)  -->
<svg version="1.1" id="Layer_1" xmlns="http://www.w3.org/2000/svg" xmlns:xlink="http://www.w3.org/1999/xlink" x="0px" y="0px"
	 viewBox="-274.1 638.6 336 154.7" style="enable-background:new -274.1 638.6 336 154.7;" xml:space="preserve">
<style type="text/css">
	.st0{fill:#FFFFFF;}
	.st1{opacity:5.000000e-002;enable-background:new    ;}
	.st2{opacity:0.1;enable-background:new    ;}
</style>
<path class="st0" d="M547.2,1647c0,0,5.3,2.7,13.5,0c0,0,8.1-6,4.3-13.3c0,0,3.8-0.3,5.7,10c0,0,12.8,3.3,20.3-4.3
	c0,0,9.8-10,4.8-19.7c0,0,8.9,4.2,7.4,18c0,0,16.2,4,24.8-3.3c0,0,17.4-11,12.2-31.3c0,0,21.1,14.8,3.5,40.6c0,0,9.5,6,17.8,0.8
	c0,0,8.8-5.4,6.6-17.5c0,0,10,5,4.1,19.7c0,0,2.5,12.8-0.3,13s-106.2,10-106.2,10l-21.7-10.3L547.2,1647z"/>
<g>
	<path class="st0" d="M827.6,1644.2c0,0,8.7-5.4,6.6-17.5c-2.8-2.3-6.3-3.7-10.2-3.7c-2.6,0-5,0.6-7.2,1.7c-0.2,5.4-2.1,11.6-7,18.7
		C809.9,1643.5,819.4,1649.5,827.6,1644.2z"/>
	<path class="st0" d="M834.2,1626.8c2.1,12.1-6.6,17.5-6.6,17.5c-8.3,5.3-17.8-0.8-17.8-0.8c4.8-7.1,6.7-13.4,7-18.7h-0.1
		c0-7.7-3.1-14.7-8-19.9c-5.2-5.4-12.6-8.8-20.7-8.8c-13.5,0-24.8,9.3-27.9,21.8c-2.8-1.5-6-2.3-9.3-2.3c-10.2,0-18.5,7.7-19.6,17.6
		c-2-1.5-4.5-2.3-7.1-2.3c-6.7,0-12.1,5.4-12.1,12.1c0,0.4,0,0.7,0.1,1.1c0.4,1.9,1.6,2.7,1.6,2.7l-0.4,1.5c2,4,6.1,6.8,10.9,6.8
		h100c7,0,13-4.6,15.1-10.9c0.2-0.7,0.4-1.5,0.6-2.1c0.2-1,0.3-2,0.3-3C840,1634.1,837.8,1629.7,834.2,1626.8z"/>
	<path class="st0" d="M711.9,1644c0.1,1.5,0.5,2.9,1.2,4.2l0.4-1.5C713.5,1646.8,712.3,1645.9,711.9,1644z"/>
	<path class="st1" d="M711.9,1644c0.1,1.5,0.5,2.9,1.2,4.2l0.4-1.5C713.5,1646.8,712.3,1645.9,711.9,1644z"/>
	<path class="st0" d="M839.7,1642c-0.1,0.7-0.3,1.4-0.6,2.1C839.4,1643.5,839.6,1642.8,839.7,1642z"/>
	<path class="st1" d="M724,1655.1h100c7,0,13-4.6,15.1-10.9c0.2-0.7,0.4-1.5,0.6-2.1c0.2-1,0.3-2,0.3-3c0-4.9-2.2-9.4-5.8-12.3
		c2.1,12.1-6.6,17.5-6.6,17.5c-8.3,5.3-17.8-0.8-17.8-0.8c4.8-7.1,6.7-13.4,7-18.7h-0.1c0-7.7-3.1-14.7-8-19.9c-1.4-1.4-2.4-2-2.4-2
		c5.3,20.4-12.2,31.3-12.2,31.3c-8.7,7.3-24.8,3.3-24.8,3.3c1.5-13.8-7.4-18-7.4-18c5,9.7-4.8,19.7-4.8,19.7
		c-7.4,7.6-20.3,4.3-20.3,4.3c-1.9-8.5-5.7-10.1-5.7-10c1,2.7,1.3,5.5,0.1,8c-0.8,1.7-1.9,3.4-3.4,4.6c-1.6,1.3-3.9,1.6-6,1.8
		c-2.7,0.3-5.5,0.1-8-0.9l-0.4-0.2l-0.4,1.5C715.1,1652.3,719.2,1655.1,724,1655.1z"/>
</g>
<path class="st0" d="M-75.9,1094.5c-0.4,1.8-0.9,3.7-1.5,5.6C-76.7,1098.3-76.2,1096.4-75.9,1094.5z"/>
<g>
	<path class="st0" d="M46.7,719.1c0.5,3,0.8,5.8,0.8,8.5C47.5,724.9,47.3,722.1,46.7,719.1c-7.3-6.1-16.6-9.7-26.8-9.7
		c-6.8,0-13.1,1.6-18.8,4.5c-0.1,2.8-0.4,5.7-0.9,8.6c0.5-3,0.8-5.8,0.9-8.6c-0.1,0-0.2,0.1-0.2,0.1c0-20.3-8-38.6-21-52.2
		c-13.7-14.3-33-23.2-54.3-23.2c-35.4,0-65.1,24.4-73.2,57.3c-7.3-3.9-15.6-6.2-24.5-6.2c-26.7,0-48.6,20.2-51.5,46.1
		c-5.2-3.8-11.7-6.1-18.7-6.1c-17.6,0-31.8,14.2-31.8,31.8c0,1,0.1,1.9,0.2,2.9c1,4.9,4.2,7.2,4.2,7.2l-1.1,3.9
		c5.2,10.5,16,17.8,28.5,17.8H19.9c18.5,0,34.1-11.9,39.7-28.5c0.6-2,1.1-3.8,1.5-5.6c0.5-2.5,0.8-5.1,0.8-7.8
		C61.9,738.4,55.9,726.8,46.7,719.1z M-1,728.5c0.1-0.5,0.2-0.9,0.3-1.4C-0.8,727.6-0.9,728-1,728.5z"/>
	<path class="st0" d="M-273.9,764.4c0.4,4,1.4,7.7,3.1,11.1l1.2-4.1C-269.7,771.4-272.9,769.2-273.9,764.4z"/>
	<path class="st2" d="M46.8,719.2c5.5,31.7-17.4,45.8-17.4,45.8c-21.6,13.8-46.5-2-46.5-2c12.7-18.6,17.7-35,18.3-49
		c-0.1,0-0.2,0.1-0.2,0.1c0-20.3-8-38.6-21-52.2c-3.6-3.5-6.2-5.4-6.2-5.4c13.8,53.4-31.9,82.1-31.9,82.1
		c-22.7,19.2-65.1,8.7-65.1,8.7c3.9-36.3-19.4-47.2-19.4-47.2c13.2,25.3-12.4,51.6-12.4,51.6c-19.4,19.9-53.1,11.1-53.1,11.1
		c-5.1-22.3-15-26.6-14.9-26.2c0.6,2.4,1.5,4.6,2,7c1.2,7-0.8,13.7-4.8,19.5c-1.8,2.6-3.9,5.1-6.5,7c-2.6,1.8-5.6,2.9-8.6,3.5
		c-2.1,0.4-4.3,0.6-6.5,0.8c-4.7,0.5-9.5,0.4-14.2-0.4c-1.5-0.3-2.9-0.6-4.4-1.1c-1.7-0.5-3.4-1.1-4.7-2.3c-1.1-1.1-2-2.5-2.6-4
		c-0.3-0.7-0.6-1.5-0.7-2.2c0.4,4,1.4,7.7,3.1,11.1c5.2,10.4,15.9,17.8,28.5,17.8H19.9c18.5,0,34.1-11.9,39.7-28.5
		c0.6-2,1.1-3.8,1.5-5.6c0.5-2.5,0.8-5.1,0.8-7.8C61.9,738.4,56,726.9,46.8,719.2z"/>
</g>
</svg>
