<?xml version="1.0" encoding="utf-8"?>
<!-- Generator: Adobe Illustrator 19.0.0, SVG Export Plug-In . SVG Version: 6.00 Build 0)  -->
<svg version="1.1" id="Layer_1" xmlns="http://www.w3.org/2000/svg" xmlns:xlink="http://www.w3.org/1999/xlink" x="0px" y="0px"
	 viewBox="662 95.4 1920 650.5" style="enable-background:new 662 95.4 1920 650.5;" xml:space="preserve">
<style type="text/css">
	.st0{fill:#D6D6D6;}
	.st1{fill:#EDEDED;}
	.st2{fill:#FFFFFF;}
</style>
<path id="XMLID_7_" class="st0" d="M593.9,592.5c0,47.5,38.5,86,86,86c20.9,0,40-7.4,54.9-19.8c9,6.5,20.1,10.4,32.1,10.4
	c21.4,0,39.9-12.2,49-30c8.3,3.7,17.4,5.7,27,5.7c36.8,0,66.7-29.8,66.7-66.7c0-0.5,0-1.1,0-1.6c6.3,2.3,13.2,3.6,20.4,3.6
	c22.6,0,42.2-12.7,52.1-31.3c5.3,6.3,13.3,10.3,22.1,10.3c11.1,0,20.8-6.3,25.6-15.5c3.1,0.9,6.3,1.3,9.7,1.3
	c19.5,0,35.3-15.8,35.3-35.3c0-1.4-0.1-2.9-0.3-4.3c3,0.8,6.1,1.2,9.3,1.2c12.8,0,23.9-6.8,30.1-16.9c34.2-9.5,59.3-40.9,59.3-78.1
	c0-5.7-0.6-11.2-1.7-16.6c4.5,1.1,9.2,1.7,14,1.7c23.1,0,43.1-13.1,53-32.4c4-0.4,8-1.2,11.7-2.3c6.8,2.4,14.1,3.7,21.7,3.7
	c21.9,0,41.3-10.8,53.2-27.3c8.8,5.2,19,8.2,30,8.2c22,0,41.1-12.1,51.2-29.9c7.2,8.5,17.9,13.9,30,13.9c8.1,0,15.6-2.4,21.8-6.6
	c9.4,17.4,27.7,29.3,48.9,29.3c0.3,0,0.5,0,0.8,0c11.1,12.2,27.1,19.9,44.9,19.9c23.8,0,44.3-13.7,54.2-33.6
	c2.8,3.2,6.8,5.3,11.4,5.3c6.4,0,11.9-4,14-9.7c4,5.8,10.7,9.7,18.3,9.7c6.6,0,12.4-2.8,16.5-7.4c3.1,8.5,11.3,14.5,20.8,14.5
	c11,0,20.1-8,21.9-18.5c10.8,10.8,25.7,17.5,42.1,17.5c19.6,0,36.9-9.4,47.8-24c6.1,4.3,13.6,6.9,21.6,6.9c4.1,0,8.1-0.7,11.8-1.9
	c6.9,8.1,17.1,13.2,28.5,13.2c7.2,0,13.9-2,19.6-5.5c11,10.9,26.1,17.6,42.7,17.6c16.1,0,30.7-6.2,41.5-16.4
	c13.6,25.5,40.5,42.8,71.4,42.8c5.9,0,11.6-0.6,17.1-1.8c6.3,38.5,39.6,67.8,79.9,67.8c9.9,0,19.3-1.8,28-5
	c7.4,50,50.5,88.4,102.6,88.4c3.2,0,6.3-0.2,9.4-0.4c1.5,32.5,28.4,58.4,61.3,58.4c1.7,0,3.4-0.1,5.1-0.2
	c3.7,13,15.6,22.5,29.8,22.5c8.2,0,15.6-3.2,21.2-8.4c7.5,25.1,30.7,43.5,58.3,43.5c7.9,0,15.5-1.5,22.5-4.3
	c4.6,11.8,16.1,20.2,29.5,20.2c4.3,0,8.4-0.9,12.2-2.4c8.6,25.9,33,44.6,61.8,44.6c36,0,65.2-29.2,65.2-65.2
	c0-5.8-0.8-11.5-2.2-16.9c20.7-14,34.3-37.7,34.3-64.6c0-43.1-34.9-78-78-78c-16.1,0-31.1,4.9-43.5,13.3
	c-26.7-22.1-61.2-50.6-63.3-51.8c-3.5-2-92.4-22.3-120.2-24.2l0,0c-5.2-52.4-49.4-93.3-103.2-93.3c-20,0-38.6,5.7-54.5,15.5
	c-11.3-31.1-41.1-53.4-76.1-53.4c-5.9,0-11.6,0.6-17.1,1.8c-6.3-38.5-39.6-67.8-79.9-67.8c-27.7,0-52.2,13.9-66.7,35.2
	c-11.1-13-27.7-21.3-46.2-21.3c-24.5,0-45.5,14.5-55.2,35.3c-2.3-0.4-4.7-0.7-7.1-0.7c-4.1,0-8.1,0.7-11.8,1.9
	c-6.9-8.1-17.1-13.2-28.5-13.2c-6.1,0-11.9,1.5-17,4.1c-10.1-18.6-29.7-31.2-52.4-31.2c-27.2,0-50.1,18.2-57.2,43.1
	c-1.7-3.9-2.9-6.6-3.1-6.9c-0.8-1.2-15.3-17-30.3-19.3s-49-1.7-56.7,0.8s-10,5.5-11.5,11.2c-0.4,1.3-0.6,3.5-0.9,6.1
	c-10.6-9.2-24.5-14.8-39.6-14.8c-4.3,0-8.5,0.5-12.5,1.3c-9.3-6.9-20.7-11-33.2-11c-3.5,0-6.8,0.3-10.1,0.9l0.3-0.4
	c0,0-42.7-12-44-12s-31.7,4.3-31.7,4.3s4.6,9,8.2,17.4c-8.1,1.4-15.4,5.2-21,10.8c-9.3-20.3-29.8-34.5-53.6-34.5
	c-17.2,0-32.6,7.4-43.4,19.1c-11-8.7-24.8-13.7-39.8-13.7c-7.6,0-14.9,1.3-21.7,3.7c-5.9-1.7-12.1-2.7-18.5-2.7
	c-28.4,0-52.5,18.4-61.2,43.9c-25.7,6.6-44.7,29.9-44.7,57.7c0,0.3,0,0.5,0,0.8c-10.3-4.8-21.8-7.4-33.9-7.4
	c-40.9,0-74.8,30.3-80.3,69.7l-257.2,14.6l-32.1,25c-12.7-8.9-28.2-14.2-44.9-14.2c-43.1,0-78,34.9-78,78c0,14.2,3.8,27.4,10.4,38.9
	C599.9,556.5,593.9,573.8,593.9,592.5z"/>
<path id="XMLID_4_" class="st1" d="M1719.2,257.4c3.7-1,19-18.7,19-18.7s-26.3-14.7-30-11.7s-1.3,9.3-4,11.7
	c-2.7,2.3-2.3,21.7-1.3,23C1703.9,263.1,1719.2,257.4,1719.2,257.4z"/>
<path id="XMLID_8_" class="st1" d="M1943.4,259.6c4-0.2,52-40.2,52-40.2s-51-38.5-56-39s-34.5,39.2-34.5,41.1c0,1.9,23,47.9,23,47.9
	L1943.4,259.6z"/>
<path class="st1" d="M2571.2,266.1c-10.3,0-20.3,1.2-29.9,3.4c-19.1-48.8-66.6-83.4-122.1-83.4c-35.3,0-67.3,13.9-90.9,36.6
	c-10.7-3-22-4.6-33.7-4.6c-40.6,0-76.7,19.4-99.4,49.5c-15.3-25.2-42.9-42-74.5-42c-28.8,0-54.4,14-70.3,35.6
	c-9.7-22.8-32.4-38.8-58.7-38.8c-17.9,0-34,7.3-45.6,19.2c-5.9-27.8-29.9-48.9-59.1-50.4c-10.2-21.8-32.2-36.9-57.9-36.9
	c-29.2,0-53.8,19.6-61.4,46.4c-2.3-0.5-4.7-0.7-7.1-0.7c-4.8,0-9.4,1-13.7,2.7l-36.5-16.8c0,0-5.3,6-11.2,13.1
	c-2.6-1.6-5.3-2.9-8.3-3.9c-2.5-31.7-29.1-56.7-61.5-56.7c-23.3,0-43.6,13-54.1,32.1c-6.9-2.4-14.3-3.8-22-3.8c-20,0-37.9,9-50,23.1
	c-6.6-7.8-16.5-12.7-27.6-12.7c-3.4,0-6.7,0.5-9.8,1.3c-9.9-23.5-33.1-40-60.2-40c-32.1,0-58.8,23.2-64.3,53.7
	c-8.1-3.6-17.2-5.7-26.7-5.7c-30.7,0-56.5,21.2-63.4,49.8c-6.6-2.2-13.6-3.4-20.9-3.4c-34.1,0-62,26.1-65,59.4
	c-3.4,0.3-6.6,1.1-9.7,2.4c-13.2-33.2-45.6-56.7-83.5-56.7c-18,0-34.7,5.3-48.8,14.4c-22.8-32.3-60.4-53.4-103-53.4
	c-61.3,0-112.4,43.8-123.7,101.9c-10.1-4.3-21.3-6.7-33-6.7c-33,0-61.6,19.1-75.4,46.8c-8.9-3.3-18.4-5.1-28.4-5.1
	c-45.1,0-81.7,36.6-81.7,81.7c0,45.1,36.6,81.5,81.7,81.5c31.1,0,58.2-17.4,72-43c9.8,4,20.6,6.3,31.9,6.3
	c31.5,0,58.9-17.3,73.3-42.9c22.2,19.6,51.4,31.5,83.4,31.5c40.9,0,77.3-19.5,100.3-49.7c14.6,10.2,32.3,16.2,51.5,16.2
	c39.7,0,73.4-25.8,85.2-61.5c3.4,1.2,7,1.8,10.8,1.8c8.4,0,16-3.1,21.8-8.3c11.1,8.7,25.1,14,40.3,14c30.7,0,56.5-21.2,63.4-49.8
	c6.6,2.2,13.6,3.4,20.9,3.4c32.1,0,58.8-23.2,64.3-53.7c8.1,3.6,17.2,5.7,26.7,5.7c20.7,0,39.2-9.7,51.1-24.7
	c5.5,3.4,12,5.3,18.9,5.3c4.8,0,9.3-0.9,13.5-2.6c6.6,29.3,32.8,51.1,64.1,51.1c26.6,0,49.5-15.8,59.8-38.5
	c5.2,1.4,10.6,2.2,16.3,2.2c9.2,0,17.9-2,25.8-5.6c4.7,4.4,10.5,7.5,17,8.9c-0.8,3-1.2,6.1-1.2,9.2c0,20,16.2,36.3,36.3,36.3
	s36.3-16.2,36.3-36.3c0-2.2-0.2-4.3-0.6-6.3c5.2,2.9,11.2,4.6,17.6,4.6c9.1,0,17.4-3.4,23.8-8.9c10.8,10.6,25.3,17.4,41.4,18.2
	c10.2,21.8,32.2,36.9,57.9,36.9c17.9,0,34-7.3,45.6-19.2c6.1,28.8,31.7,50.5,62.4,50.5c5,0,9.8-0.6,14.4-1.7
	c5.7,11.9,17.9,20.1,32,20.1c4.8,0,9.4-1,13.6-2.7c15.9,20.7,40.9,34,69,34c20.9,0,40.1-7.4,55.1-19.6
	c15.9,50.5,63.1,87.1,118.8,87.1c29.6,0,56.7-10.3,78.1-27.5c14.5,5.5,30.1,8.5,46.5,8.5c10.3,0,20.3-1.2,29.9-3.4
	c19.1,48.8,66.6,83.4,122.1,83.4c72.4,0,131.1-58.7,131.1-131.1S2643.6,266.1,2571.2,266.1z"/>
<path id="XMLID_22_" class="st2" d="M711.4,403.6c31.9,0,58-25.2,59.4-56.8c6.1,1.5,12.4,2.3,18.9,2.3c17.4,0,33.4-5.7,46.4-15.3
	c9.5,20.1,30,34,53.7,34c17.6,0,33.4-7.7,44.3-19.8c12.9,9.5,28.9,15.1,46.2,15.1c14.1,0,27.3-3.7,38.8-10.3
	c5.7,10.2,16.6,17.2,29.2,17.2c17.9,0,32.6-14.1,33.3-31.9c2.3,0.9,4.9,1.5,7.5,1.5c3.2,0,6.2-0.8,8.9-2.1c3.7,4.1,9.1,6.6,15.1,6.6
	c11.3,0,20.4-9.2,20.4-20.4c0-2.1-0.3-4.1-0.9-6c5.3-2.1,9.5-6.3,11.5-11.6c8.8,3.8,18.5,5.8,28.7,5.8c28.1,0,52.5-15.9,64.8-39.1
	c2.6,1.2,5.4,1.8,8.4,1.8c11.3,0,20.4-9.2,20.4-20.4c0-5.8-2.5-11.1-6.4-14.8c7.5-3.3,13.1-10,14.9-18.2c5.5-1.1,10.5-3.3,15-6.3
	c14.2,17.2,35.8,28.2,59.8,28.2c22.9,0,43.5-9.9,57.7-25.7c3.9,1.2,8.1,1.9,12.5,1.9c13.8,0,26.1-6.7,33.8-17c0.6,0,1.3,0,1.9,0
	c5.9,0,11.4-1.2,16.5-3.4c7.7,10.1,19.8,16.7,33.5,16.7c7.3,0,14.2-1.9,20.1-5.2c9.8,12.6,25.1,20.7,42.4,20.7
	c12.6,0,24.2-4.4,33.4-11.6c1.8,0.2,3.7,0.3,5.6,0.3c17.9,0,33.8-8.8,43.5-22.2c9.6,14.8,26.2,24.6,45.1,24.6
	c11.9,0,22.9-3.9,31.8-10.4c6.3,6.1,14.8,9.9,24.2,9.9c14.4,0,26.7-8.8,32-21.3c4.1,1.7,8.6,2.7,13.3,2.7c4.6,0,8.9-0.9,12.9-2.5
	c5.8,27.5,30.3,48.2,59.6,48.2c19.3,0,36.5-9,47.6-23c4.1,1.7,8.6,2.6,13.3,2.6c9.7,0,18.5-4,24.8-10.5
	c13.6,10.9,30.8,17.4,49.6,17.4c7.1,0,13.9-0.9,20.5-2.7c6.9,21.7,25.4,38.2,48.3,42.2c18.3,22.3,46.1,36.6,77.2,36.6
	c12.3,0,24-2.2,34.9-6.3c10.8,18,30.5,30.1,53,30.1c11.2,0,21.8-3,30.9-8.3c18.2,19.3,44,31.4,72.6,31.4c24.9,0,47.6-9.1,65.1-24.2
	c5.5,3.7,12.2,5.9,19.4,5.9c11.6,0,21.8-5.7,28.1-14.4c8.5,11.5,22.1,19,37.5,19c17.2,0,32.3-9.4,40.3-23.3c4.2,2,8.6,3.6,13.1,4.9
	c0,0.4,0,0.8,0,1.2c0,50.4,40.9,91.3,91.3,91.3s91.3-40.9,91.3-91.3c0-41.7-27.9-76.8-66-87.8c0-0.4,0-0.8,0-1.2
	c0-50.4-40.9-91.3-91.3-91.3s-91.3,40.9-91.3,91.3c0,4.9,0.4,9.7,1.1,14.4c-14,3.5-25.5,13.5-31.2,26.5c-2.6-2.3-5.6-4.3-8.9-5.7
	c0.7-4.9,1.1-9.9,1.1-15.1c0-55-44.6-99.7-99.7-99.7c-38.8,0-72.4,22.2-88.9,54.5c-0.9-0.2-1.9-0.4-2.8-0.6c0-0.4,0-0.8,0-1.1
	c0-55-44.6-99.7-99.7-99.7c-26.5,0-50.5,10.3-68.4,27.2c-1.7-8.1-4.7-15.7-8.7-22.6c-5.7,5.6-15.9,7.6-22.4,2.9
	c-3.1-2.3-6.5-3.9-10-5.6c0,0,0,0-0.1,0c-1-0.4-2-0.8-3-1.2c-2.6-1-5.2-1.8-7.8-2.7c-10.3-3.3-20.9-5.8-31.5-7.5
	c-1.5-0.3-3.1-0.4-4.6-0.7c-0.2,0-0.4-0.1-0.7-0.1c-2.5-0.3-5.1-0.5-7.6-0.7c-5.4-0.4-10.8-0.6-16.2-0.4c-2.5,0.1-5.1,0.3-7.6,0.6
	h-0.1c-1.1,0.2-2.2,0.4-3.3,0.6c-2.2,0.5-4.3,1.1-6.4,1.8c-0.6,0.3-1.3,0.6-1.9,0.9s-1.2,0.7-1.8,1.1c-0.3,0.3-0.6,0.7-0.9,1l0,0
	c-0.2,0.7-0.3,1.2-0.4,1.5c0,1.5-0.2,1.9-0.3,1.6c-0.3,9.5-7.3,16.7-16.4,18c-3.3,8.8-5.2,18.3-5.2,28.2c0,1.1,0,2.2,0.1,3.4
	c-0.7,0.1-1.4,0.2-2.1,0.3c-10.2-19.5-30.5-32.8-54-32.8c-17.9,0-34,7.7-45.1,20c-6.3-8.1-16.2-13.3-27.3-13.3
	c-14.4,0-26.7,8.8-32,21.3c-4.1-1.7-8.6-2.7-13.3-2.7c-1.6,0-3.1,0.1-4.6,0.3c-6.7-22-27.2-38-51.4-38c-17.9,0-33.8,8.8-43.5,22.2
	c-9.6-14.8-26.2-24.6-45.1-24.6c-12.6,0-24.2,4.4-33.4,11.6c-1.9-0.2-3.7-0.3-5.6-0.3c-14.9,0-28.5,6.1-38.2,15.9
	c-6.9-4.9-15.2-7.8-24.3-7.8c-5.9,0-11.4,1.2-16.5,3.4c-7.7-10.1-19.8-16.7-33.5-16.7c-13.8,0-26.1,6.7-33.8,17c-0.2,0-0.3,0-0.5,0
	c-1.7-4-3.7-7.7-5.9-11.3c-1.8,0.6-3.8,1-5.8,0.9c-19.9-0.7-38.7-6.6-58.1-10.4c-2.4-0.5-4.9-0.9-7.3-1.3c0,0,0,0-0.1,0
	c-0.3,0-0.5-0.1-0.7-0.1c-0.8-0.1-1.6-0.2-2.4-0.2c-4.6-0.4-9.2-0.5-13.7-0.1c-0.2,0-1.1,0.1-1.7,0.2c-0.6,0.1-1.3,0.2-1.4,0.3
	c-2.2,0.4-4.3,1-6.4,1.7c-1.1,0.3-2.2,0.7-3.2,1.1c-0.3,0.1-0.7,0.4-1.2,0.6c-2.2,1.2-4.3,2.4-6.4,3.7c-6.3,4-14,3-19.7-0.9
	c-4.5,6-8.1,12.8-10.6,20c-3.3-0.8-6.7-1.3-10.2-1.3c-23.2,0-41.9,18.8-41.9,41.9c0,2.5,0.2,5,0.7,7.4
	c-13.2-13.3-31.8-21.8-52.3-21.8c-40.5,0-73.3,32.8-73.3,73.3c0,16.1,5.2,31,14,43.1c-5.4,3.7-9,9.9-9,16.9c0,2.1,0.3,4.1,0.9,6
	c-0.5,0.2-0.9,0.4-1.4,0.6c-3.7-4.1-9.1-6.6-15.1-6.6c-8.6,0-15.9,5.3-18.9,12.8c-4-3.4-8.7-6-14-7.3c1.6-6.2,2.4-12.7,2.4-19.4
	c0-43.3-35.1-78.3-78.3-78.3c-31.6,0-58.8,18.7-71.2,45.7c-6.1-2.1-12.5-3.2-19.3-3.2c-8.4,0-16.5,1.8-23.7,4.9
	c-7.7-35.1-39-61.4-76.5-61.4c-43.3,0-78.3,35.1-78.3,78.3c0,4.7,0.4,9.4,1.3,13.9c-0.4,0-0.8,0-1.3,0c-32.8,0-59.4,26.6-59.4,59.4
	S678.6,403.6,711.4,403.6z"/>
<path id="XMLID_2_" class="st2" d="M662.1,310.9V95.4h1920.1v99l-60.3,47.7c0,0-45.3,46.7-48.7,48c-3.3,1.3-44.7,6.7-48,6.7
	S2151,240.9,2151,240.9l-202.4-56.1c0,0-207.3,4-205.3,4s-159.3-2-159.3-2l-104.8,3.2c0,0-89.3,16.7-95.3,17.3s-49.3,11.3-53.3,10.7
	c-4-0.7-70.7-14.9-70.7-14.9l-69.3,18.3c0,0-12,25.9-14.7,29.3c-2.7,3.3-64.7,60.2-64.7,60.2l-41,22.4l-165.3-6.9l-99-34
	L662.1,310.9z"/>
</svg>
