<?xml version="1.0" encoding="utf-8"?>
<!-- Generator: Adobe Illustrator 19.0.0, SVG Export Plug-In . SVG Version: 6.00 Build 0)  -->
<svg version="1.1" id="Layer_1" xmlns="http://www.w3.org/2000/svg" xmlns:xlink="http://www.w3.org/1999/xlink" x="0px" y="0px"
	 viewBox="-2 388.1 590 65.8" style="enable-background:new -2 388.1 590 65.8;" xml:space="preserve">
<style type="text/css">
	.st0{fill:#FFFFFF;}
</style>
<path class="st0" d="M32,426.9c0,0,25.4,7.6,37.8-4.6c0.2,0.4,0.8,0.8,1.7,1.2c2.5,1.6,5.6,2.8,9,3.5c2.4,0.5,4.9,0.9,7.5,1.1
	c0.8,0.1,1.7,0.1,2.5,0.1c3.7,0.1,7.4,0,10.9-0.2c9.2-0.7,18.2-3.4,27.5-2c5.3,0.8,10.5,2.6,14.7,6c1.6,1.3,3.3,2.9,4.2,4.9
	c0,0,0,0,0,0.1c0.3-0.2,0.6-0.4,0.9-0.6c0,0,5.2-2.9,8-8.5c0.1-0.1,0.1-0.2,0.2-0.3c0.1-0.1,0.1-0.3,0.2-0.4
	c0.1-0.2,0.2-0.4,0.3-0.6c0-0.1,0-0.1,0.1-0.2c0.1-0.2,0.2-0.5,0.3-0.7c0-0.1,0-0.1,0-0.2c0.1-0.2,0.1-0.5,0.2-0.7
	c0-0.1,0.1-0.2,0.1-0.3c0-0.1,0.1-0.3,0.1-0.4c1-4.8-0.8-8.3-0.8-8.3c16.1-6.3,20.6-17.3,20.6-17.3c-2.9,7.4,3.3,11.8,7.1,13.3
	c0.1,0,0.2,0.1,0.4,0.1c0.1,0.1,0.3,0.1,0.4,0.2c0.3,0.1,0.5,0.2,0.8,0.3c0.6,0.2,0.9,0.4,0.9,0.4c11.8-11.6,44.3-4.2,44.3-4.2
	c24,1.3,31.5-9.6,31.5-9.6c-3.5,9.6,3.7,14.6,6.1,16c0.5,0.3,0.8,0.4,0.8,0.4c4.5-5.5,11.9-7.2,18.8-7.2c3.5,0,6.9,0.2,10.3,1
	c3.3,0.7,6.5,2.1,9.8,2.9c6.6,1.6,14.1,2.6,20.6,0.2c0.3-0.1,3.2-1.3,3.1-1.5c13,25.7,40.2,17.6,40.2,17.6c27-3.9,33,12.6,33,12.6
	c0.2-0.1,0.4-0.2,0.6-0.3c0.1-0.1,0.2-0.1,0.4-0.2c7.6-3.8,9.1-10.2,9.3-13.8c0-0.1,0-0.2,0-0.2v-1.1c0-1-0.1-1.6-0.1-1.6
	c6.4,7.9,17.1,11,19.8,11.6c3.3,0.9,7.1,1.4,11.5,1.4c0,0,28.3-3.2,34.4,17.1c0,0,0.2-0.1,0.6-0.2c2.6-0.8,12.9-5,12.8-18.1
	c12.6-2.8,19-9.6,20.8-13.2c12.4,12.2,37.8,4.6,37.8,4.6c23-5.4,34,3.4,34,3.4V388H120H58.9H-2v42.4C-2,430.3,9,421.5,32,426.9z"/>
</svg>
