<?xml version="1.0" encoding="utf-8"?>
<!-- Generator: Adobe Illustrator 19.0.0, SVG Export Plug-In . SVG Version: 6.00 Build 0)  -->
<svg version="1.1" id="Layer_1" xmlns="http://www.w3.org/2000/svg" xmlns:xlink="http://www.w3.org/1999/xlink" x="0px" y="0px"
	 viewBox="766.1 -618.6 2271.9 1869.2" style="enable-background:new 766.1 -618.6 2271.9 1869.2;" xml:space="preserve">
<style type="text/css">
	.st0{fill:#FFFFFF;}
	.st1{fill:#D6D6D6;}
	.st2{fill:#EDEDED;}
	.st3{fill:#E2E2E2;}
</style>
<g>
	<polyline class="st0" points="766.1,-412.1 766.1,656 3038,655.8 3038,-418.4 	"/>
	<g>
		<path id="XMLID_19_" class="st1" d="M670.9,1116.2c0,56.1,44.9,101.5,100.3,101.5c24.4,0,46.6-8.7,64-23.4
			c10.5,7.7,23.4,12.3,37.5,12.3c24.9,0,46.5-14.4,57.1-35.4c9.7,4.4,20.3,6.7,31.5,6.7c42.9,0,77.8-35.2,77.8-78.7
			c0-0.6,0-1.3,0-1.9c7.4,2.7,15.4,4.2,23.8,4.2c26.3,0,49.2-15,60.7-37c6.2,7.5,15.5,12.2,25.8,12.2c12.9,0,24.3-7.5,29.8-18.3
			c3.6,1.1,7.4,1.6,11.3,1.6c22.7,0,41.2-18.6,41.2-41.7c0-1.7-0.1-3.4-0.3-5.1c3.5,0.9,7.1,1.4,10.9,1.4c14.9,0,27.8-8,35.1-20
			c39.9-11.2,69.1-48.3,69.1-92.2c0-6.7-0.7-13.3-2-19.6c5.2,1.3,10.7,2,16.3,2c26.9,0,50.2-15.5,61.8-38.3
			c4.6-0.5,9.4-1.4,13.7-2.7c8,2.8,16.4,4.4,25.3,4.4c25.5,0,48.1-12.8,62.1-32.2c10.3,6.1,22.1,9.7,35,9.7
			c25.7,0,47.9-14.3,59.7-35.3c8.4,10,20.9,16.4,35,16.4c9.4,0,18.2-2.8,25.4-7.8c10.9,20.5,32.3,34.6,57,34.6c0.3,0,0.6,0,0.9,0
			c12.9,14.4,31.6,23.5,52.4,23.5c27.8,0,51.6-16.2,63.2-39.7c3.2,3.8,8,6.3,13.3,6.3c7.5,0,13.8-4.7,16.3-11.4
			c4.6,6.9,12.5,11.4,21.4,11.4c7.7,0,14.4-3.3,19.2-8.7c3.6,10,13.2,17.2,24.3,17.2c12.8,0,23.4-9.4,25.5-21.9
			c12.6,12.8,30,20.6,49.1,20.6c22.9,0,43-11.1,55.8-28.3c7.1,5.1,15.8,8.1,25.2,8.1c4.8,0,9.4-0.8,13.8-2.2
			c8,9.5,20,15.6,33.2,15.6c8.4,0,16.2-2.3,22.9-6.5c12.8,12.8,30.4,20.8,49.8,20.8c18.8,0,35.8-7.3,48.4-19.4
			c15.8,30.1,47.2,50.5,83.3,50.5c6.9,0,13.5-0.7,20-2.2c7.4,45.5,46.2,80,93.1,80c11.5,0,22.5-2.2,32.6-5.9
			c8.6,59,58.9,104.3,119.6,104.3c3.7,0,7.4-0.2,10.9-0.5c1.7,38.4,33.1,68.9,71.5,68.9c2,0,4-0.1,6-0.2
			c4.3,15.3,18.2,26.6,34.7,26.6c9.5,0,18.2-3.8,24.7-9.9c8.8,29.7,35.8,51.4,67.9,51.4c9.2,0,18.1-1.7,26.3-5.1
			c5.4,13.9,18.8,23.9,34.4,23.9c5.1,0,9.8-1.1,14.3-2.8c10,30.6,38.4,52.6,72.1,52.6c42,0,76-34.5,76-77c0-6.9-0.9-13.6-2.6-20
			c24.1-16.5,40-44.5,40-76.2c0-50.9-40.7-92.1-91-92.1c-18.8,0-36.3,5.8-50.7,15.7c-31.2-26.1-71.3-59.7-73.8-61.1
			c-4.1-2.3-107.7-26.3-140.1-28.6l0,0c-6-61.9-57.6-110.1-120.3-110.1c-23.3,0-45,6.7-63.6,18.3c-13.2-36.7-47.9-63.1-88.7-63.1
			c-6.9,0-13.5,0.7-20,2.2c-7.4-45.5-46.2-80-93.1-80c-32.3,0-60.9,16.4-77.8,41.5c-12.9-15.3-32.3-25.1-53.9-25.1
			c-28.6,0-53,17.2-64.4,41.7c-2.7-0.5-5.5-0.8-8.3-0.8c-4.8,0-9.4,0.8-13.8,2.2c-8-9.5-20-15.6-33.2-15.6c-7.1,0-13.8,1.7-19.8,4.8
			c-11.8-22-34.6-36.9-61.1-36.9c-31.7,0-58.4,21.5-66.7,50.9c-2-4.6-3.4-7.8-3.6-8.1c-0.9-1.4-17.8-20.1-35.3-22.8
			s-57.1-2-66.1,0.9c-8.9,3-11.7,6.5-13.4,13.3c-0.5,1.6-0.7,4.1-1.1,7.2c-12.3-10.9-28.6-17.5-46.2-17.5c-5.1,0-9.9,0.6-14.6,1.6
			c-10.9-8.1-24.1-13-38.7-13c-4.1,0-8,0.3-11.8,1.1l0.3-0.5c0,0-49.8-14.2-51.3-14.2s-37,5.1-37,5.1s5.4,10.6,9.5,20.5
			c-9.4,1.7-18,6.1-24.4,12.8c-10.9-23.9-34.7-40.8-62.5-40.8c-20.1,0-38,8.7-50.6,22.5c-12.8-10-29-15.9-46.4-15.9
			c-8.9,0-17.4,1.6-25.3,4.4c-6.9-2-14.1-3.1-21.5-3.1c-33.1,0-61.2,21.7-71.3,51.8c-30,7.8-52.1,35.3-52.1,68.1c0,0.3,0,0.6,0,0.9
			c-12-5.6-25.4-8.7-39.5-8.7c-47.7,0-87.2,35.8-93.6,82.3l-300.1,17.3L820.9,936c-14.8-10.5-32.9-16.7-52.4-16.7
			c-50.2,0-91,41.2-91,92.1c0,16.7,4.4,32.3,12.1,45.9C677.8,1073.7,670.9,1094.2,670.9,1116.2z"/>
		<path id="XMLID_18_" class="st2" d="M1989.1,720.7c4.3-1.2,22.1-22,22.1-22s-30.7-17.3-35-13.8c-4.3,3.6-1.5,10.9-4.6,13.8
			c-3.1,2.7-2.7,25.6-1.5,27.2C1971.3,727.3,1989.1,720.7,1989.1,720.7z"/>
		<path id="XMLID_17_" class="st2" d="M739.9,1005.9c36.3,0,67.9-20.5,83.9-50.8c11.4,4.7,24,7.5,37.2,7.5
			c36.7,0,68.7-20.4,85.4-50.6c25.9,23.1,59.9,37.2,97.3,37.2c47.7,0,90.1-23,116.9-58.7c17,12,37.7,19.1,60.1,19.1
			c46.3,0,85.6-30.5,99.3-72.6c4,1.4,8.2,2.2,12.6,2.2c9.8,0,18.6-3.6,25.4-9.8c12.9,10.3,29.2,16.5,47,16.5
			c35.8,0,65.9-25,73.9-58.8c7.7,2.6,15.8,4,24.4,4c37.5,0,68.5-27.4,75-63.4c9.4,4.2,20.1,6.7,31.2,6.7c24.1,0,45.7-11.4,59.6-29.2
			c6.4,4,14,6.3,22,6.3c5.6,0,10.9-1.1,15.7-3.1c7.7,34.6,38.3,60.3,74.7,60.3c31,0,57.8-18.6,69.7-45.5c6,1.7,12.3,2.6,19,2.6
			c10.7,0,20.9-2.3,30.1-6.6c5.5,5.2,12.3,8.9,19.8,10.5c-0.9,3.6-1.4,7.2-1.4,10.9c0,23.6,18.9,42.8,42.3,42.8s42.3-19.1,42.3-42.8
			c0-2.6-0.2-5.1-0.7-7.5c6,3.4,13.1,5.5,20.5,5.5c10.6,0,20.3-4,27.8-10.5c12.6,12.5,29.5,20.5,48.3,21.5
			c11.9,25.8,37.5,43.6,67.5,43.6c20.9,0,39.6-8.6,53.2-22.7c7.1,34,37,59.6,72.7,59.6c5.8,0,11.4-0.7,16.8-2
			c6.6,14.1,20.9,23.7,37.3,23.7c5.6,0,10.9-1.2,15.8-3.1c18.6,24.4,47.7,40.1,80.5,40.1c24.4,0,46.7-8.7,64.2-23.1
			c18.6,59.6,73.6,102.8,138.5,102.8c34.6,0,66.1-12.2,91.1-32.5c16.9,6.5,35.1,10,54.2,10c12,0,23.7-1.4,34.9-4
			c22.3,57.6,77.6,98.4,142.3,98.4c84.4,0,152.9-69.3,152.9-154.8c0-85.4-68.4-154.8-152.9-154.8c-12,0-23.7,1.4-34.9,4
			c-22.3-57.6-77.6-98.4-142.3-98.4c-41.2,0-78.5,16.4-106,43.2c-12.5-3.6-25.7-5.5-39.3-5.5c-47.3,0-89.4,22.9-115.9,58.4
			c-17.8-29.7-50-49.5-86.8-49.5c-33.6,0-63.4,16.5-81.9,42c-11.3-26.9-37.8-45.8-68.4-45.8c-20.9,0-39.6,8.6-53.2,22.7
			c-6.9-32.8-34.9-57.8-68.9-59.5c-11.9-25.8-37.5-43.6-67.5-43.6c-34.1,0-62.7,23.1-71.6,54.8c-2.7-0.6-5.5-0.8-8.3-0.8
			c-23.3,0-42.3,19.1-42.3,42.8c0,2.6,0.2,5.1,0.7,7.5c-3.6-2-7.5-3.6-11.5-4.4c0.9-3.6,1.4-7.2,1.4-10.9
			c0-19.1-12.3-35.3-29.5-40.8c-2.9-37.5-33.9-66.9-71.7-66.9c-27.2,0-50.9,15.3-63.1,37.9c-8-2.8-16.7-4.5-25.7-4.5
			c-23.3,0-44.2,10.6-58.3,27.3c-7.7-9.2-19.2-15-32.1-15c-4,0-7.8,0.6-11.4,1.6c-11.5-27.8-38.6-47.2-70.2-47.2
			c-37.5,0-68.5,27.4-75,63.4c-9.4-4.2-20.1-6.7-31.2-6.7c-35.8,0-65.9,25-73.9,58.8c-7.7-2.6-15.8-4-24.4-4
			c-39.8,0-72.3,30.8-75.8,70.1c-4,0.3-7.7,1.3-11.3,2.8c-15.4-39.2-53.2-66.9-97.4-66.9c-21,0-40.4,6.3-56.9,17
			c-26.6-38.1-70.4-63.1-120.1-63.1c-71.5,0-131.1,51.7-144.3,120.3c-11.8-5.1-24.9-7.9-38.4-7.9c-38.4,0-71.8,22.5-87.9,55.3
			c-10.4-3.9-21.5-6-33.1-6c-52.6,0-95.3,43.2-95.3,96.4C644.6,962.9,687.3,1005.9,739.9,1005.9z"/>
		<path id="XMLID_16_" class="st2" d="M2250.5,723.2c4.6-0.2,60.7-47.5,60.7-47.5s-59.5-45.5-65.3-46.1
			c-5.8-0.6-40.2,46.2-40.2,48.6c0,2.2,26.8,56.5,26.8,56.5L2250.5,723.2z"/>
		<path id="XMLID_15_" class="st2" d="M1997.5,723.2c2.3-3.8,30.9-64,30.9-64l-49.5-23c0,0-31.8,36.2-30.6,41.2
			c1.4,4.8,11.3,29.7,13.1,34.4"/>
		<path id="XMLID_8_" class="st0" d="M807.9,893.2c37.2,0,67.6-29.7,69.3-67c7.1,1.7,14.4,2.7,22,2.7c20.3,0,38.9-6.7,54.1-18.1
			c11.1,23.7,35,40.1,62.6,40.1c20.5,0,38.9-9.1,51.6-23.4c15.1,11.2,33.7,17.8,53.9,17.8c16.4,0,31.8-4.4,45.2-12.2
			c6.6,12,19.4,20.3,34.1,20.3c20.9,0,38-16.7,38.9-37.6c2.7,1.1,5.7,1.7,8.8,1.7c3.7,0,7.2-0.9,10.4-2.5c4.3,4.8,10.6,7.8,17.6,7.8
			c13.2,0,23.8-10.9,23.8-24.1c0-2.5-0.3-4.8-1.1-7c6.2-2.5,11.1-7.5,13.4-13.7c10.3,4.5,21.5,6.9,33.5,6.9
			c32.7,0,61.2-18.8,75.6-46.2c3.1,1.4,6.3,2.2,9.8,2.2c13.2,0,23.8-10.9,23.8-24.1c0-6.9-2.9-13.1-7.5-17.5
			c8.8-3.9,15.2-11.8,17.4-21.5c6.4-1.3,12.3-3.9,17.5-7.5c16.6,20.3,41.8,33.3,69.7,33.3c26.7,0,50.7-11.7,67.3-30.3
			c4.6,1.4,9.4,2.2,14.6,2.2c16.1,0,30.4-7.9,39.4-20.1c0.7,0,1.5,0,2.2,0c6.9,0,13.3-1.4,19.2-4c8.9,11.9,23.1,19.7,39,19.7
			c8.5,0,16.6-2.2,23.4-6.1c11.4,14.9,29.2,24.4,49.5,24.4c14.7,0,28.3-5.2,38.9-13.7c2.1,0.2,4.3,0.3,6.5,0.3
			c20.9,0,39.4-10.4,50.7-26.2c11.2,17.5,30.6,29,52.6,29c13.8,0,26.7-4.6,37-12.3c7.4,7.2,17.2,11.7,28.3,11.7
			c16.8,0,31.2-10.4,37.3-25.1c4.8,2,10,3.1,15.5,3.1c5.4,0,10.4-1.1,15.1-3c6.8,32.5,35.3,56.9,69.5,56.9
			c22.5,0,42.6-10.6,55.5-27.2c4.8,2,10,3.1,15.5,3.1c11.3,0,21.5-4.7,28.9-12.4c15.8,12.8,35.9,20.5,57.8,20.5
			c8.3,0,16.2-1.1,23.9-3.1c8,25.6,29.6,45.1,56.3,49.8c21.4,26.3,53.8,43.2,90,43.2c14.3,0,28-2.6,40.7-7.5
			c12.6,21.2,35.5,35.5,61.8,35.5c13.1,0,25.4-3.6,36-9.8c21.2,22.8,51.3,37,84.7,37c29,0,55.5-10.8,75.9-28.6
			c6.4,4.4,14.3,7,22.6,7c13.5,0,25.4-6.7,32.7-17c9.9,13.6,25.8,22.5,43.7,22.5c20.1,0,37.7-11.1,47-27.5c4.9,2.3,10,4.2,15.2,5.8
			c0,0.5,0,0.9,0,1.4c0,59.5,47.7,107.8,106.5,107.8c58.7,0,106.5-48.3,106.5-107.8c0-49.2-32.6-90.6-77-103.7c0-0.5,0-0.9,0-1.4
			c0-59.5-47.7-107.8-106.5-107.8c-58.7,0-106.5,48.3-106.5,107.8c0,5.8,0.5,11.4,1.2,17c-16.3,4.1-29.7,15.9-36.4,31.3
			c-3.1-2.7-6.5-5.1-10.4-6.7c0.8-5.8,1.2-11.7,1.2-17.8c0-65-52-117.7-116.2-117.7c-45.2,0-84.4,26.2-103.7,64.3
			c-1.1-0.2-2.2-0.5-3.2-0.7c0-0.5,0-0.9,0-1.3c0-65-52-117.7-116.2-117.7c-30.9,0-58.9,12.2-79.7,32.1c-2-9.5-5.5-18.6-10.1-26.7
			c-6.6,6.6-18.6,8.9-26.1,3.4c-3.6-2.7-7.5-4.6-11.7-6.6c0,0,0,0-0.1,0c-1.2-0.5-2.3-0.9-3.5-1.4c-3.1-1.2-6-2.2-9.1-3.1
			c-12-3.9-24.4-6.9-36.7-8.9c-1.7-0.3-3.6-0.5-5.4-0.8c-0.2,0-0.5-0.1-0.8-0.1c-2.9-0.3-6-0.6-8.9-0.8c-6.3-0.5-12.6-0.7-18.9-0.5
			c-2.9,0.1-6,0.3-8.9,0.7h-0.1c-1.2,0.2-2.6,0.5-3.8,0.7c-2.6,0.6-5.1,1.3-7.5,2.2c-0.7,0.3-1.5,0.7-2.2,1.1
			c-0.7,0.3-1.4,0.8-2.1,1.3c-0.3,0.3-0.7,0.8-1.1,1.2l0,0c-0.2,0.8-0.3,1.4-0.5,1.7c0,1.7-0.2,2.2-0.3,1.9
			c-0.3,11.2-8.5,19.7-19.1,21.2c-3.8,10.4-6,21.6-6,33.3c0,1.3,0,2.6,0.1,4c-0.8,0.1-1.7,0.2-2.5,0.3c-11.9-23-35.5-38.7-63-38.7
			c-20.9,0-39.6,9.1-52.6,23.6c-7.4-9.5-18.9-15.7-31.8-15.7c-16.8,0-31.2,10.4-37.3,25.1c-4.8-2-10-3.1-15.5-3.1
			c-1.9,0-3.6,0.1-5.4,0.3c-7.8-25.9-31.7-44.8-59.9-44.8c-20.9,0-39.4,10.4-50.7,26.2c-11.2-17.5-30.6-29-52.6-29
			c-14.7,0-28.3,5.2-38.9,13.7c-2.2-0.2-4.3-0.3-6.5-0.3c-17.4,0-33.2,7.2-44.6,18.8c-8-5.8-17.7-9.2-28.3-9.2
			c-6.9,0-13.3,1.4-19.2,4c-8.9-11.9-23.1-19.7-39-19.7c-16.1,0-30.4,7.9-39.4,20.1c-0.2,0-0.3,0-0.6,0c-2-4.7-4.3-9.1-6.9-13.3
			c-2.1,0.7-4.4,1.2-6.8,1.1c-23.2-0.8-45.2-7.8-67.8-12.3c-2.8-0.6-5.7-1.1-8.5-1.6c0,0,0,0-0.1,0c-0.3,0-0.6-0.1-0.8-0.1
			c-0.9-0.1-1.9-0.2-2.8-0.2c-5.4-0.5-10.7-0.6-16-0.1c-0.2,0-1.2,0.1-2,0.2c-0.7,0.1-1.5,0.2-1.7,0.3c-2.6,0.5-5.1,1.2-7.5,2
			c-1.2,0.3-2.6,0.8-3.7,1.3c-0.3,0.1-0.8,0.5-1.4,0.7c-2.6,1.4-5.1,2.8-7.5,4.4c-7.4,4.7-16.3,3.6-23-1.1
			c-5.2,7-9.4,15.1-12.3,23.6c-3.8-0.9-7.8-1.6-11.9-1.6c-27,0-48.9,22.2-48.9,49.5c0,3,0.2,5.9,0.8,8.7
			c-15.5-16.1-37.2-26.1-61.1-26.1c-47.2,0-85.4,38.7-85.4,86.5c0,19,6,36.6,16.3,50.9c-6.3,4.4-10.5,11.7-10.5,20
			c0,2.5,0.3,4.8,1.1,7c-0.6,0.2-1.1,0.5-1.7,0.7c-4.3-4.8-10.6-7.8-17.6-7.8c-10,0-18.6,6.3-22,15.1c-4.6-4-10.1-7-16.3-8.6
			c1.9-7.3,2.8-15,2.8-22.9c0-51.1-40.9-92.5-91.3-92.5c-36.9,0-68.5,22-83,53.9c-7.1-2.5-14.6-3.8-22.5-3.8
			c-9.8,0-19.2,2.2-27.6,5.8c-8.9-41.4-45.5-72.5-89.2-72.5c-50.5,0-91.3,41.4-91.3,92.5c0,5.6,0.5,11.1,1.5,16.4
			c-0.5,0-0.9,0-1.5,0c-38,0.7-69,32.1-69,70.7C738.5,861.3,769.7,893.2,807.9,893.2z"/>
		<path id="XMLID_7_" class="st0" d="M766.1,783.8V529.4h2223v116.8l-70.3,56.3c0,0-52.8,55.1-56.8,56.7c-3.8,1.6-52.1,7.9-55.9,7.9
			s-319.7-66-319.7-66l-236-66.2c0,0-241.7,4.7-239.4,4.7c2.3,0-185.6-2.2-185.6-2.2l-122.2,3.8c0,0-104.2,19.7-111.1,20.4
			c-7,0.7-57.5,13.3-62.1,12.6c-4.6-0.8-82.4-17.6-82.4-17.6l-80.8,21.6c0,0-14,30.6-17.2,34.6c-3.1,3.9-75.4,71.1-75.4,71.1
			l-47.8,26.4l-192.7-8.1l-115.4-40.1L766.1,783.8z"/>
	</g>
	<g>
		<circle id="XMLID_6_" class="st2" cx="2053.1" cy="-507.1" r="33.7"/>
		<path id="XMLID_4_" class="st3" d="M2969.3-615.2c-48,0-90.5,23.6-116.7,59.6c-23.3-29.5-59.5-48.4-100-48.4
			c-41.1,0-77.6,19.5-100.9,49.6c-13.4-18.2-34.9-30-59.3-30c-21.1,0-40.1,8.8-53.6,23.1c-16.9-12.6-37.7-20.1-60.5-20.1
			c-13,0-25.5,2.4-36.9,7c-0.4,0-1,0-1.4,0c-1.3,0-2.7,0.1-3.9,0.1c-9.4-14.3-25.7-23.8-44-23.8c-19.7,0-36.9,10.8-45.9,26.8
			c-11.8-5.7-25.1-8.8-39-8.8c-30.6,0-57.5,15.3-73.9,38.6c-16.5-33.8-51.2-57-91.3-57c-29.7,0-56.5,12.8-75.2,33.2
			c-7.9-19.2-26.8-32.7-48.8-32.7c-19.2,0-36,10.2-45.2,25.7c-13.5-14.3-32.7-23.3-54-23.3c-25.3,0-47.5,12.7-60.9,32
			c-7.8-20.1-27.4-34.2-50.2-34.2c-14.8,0-28.3,6-38.1,15.7c-15.5-22-41.1-36.5-70.1-36.5c-33.2,0-61.9,18.9-76.1,46.5
			c-15.1-27.8-44.5-46.5-78.3-46.5c-36.8,0-68.5,22.4-82,54.3c-21.9-15.3-48.5-24.3-77.1-24.3c-35.1,0-67,13.4-91,35.5
			c-24.4-25.7-59.1-41.6-97.3-41.6c-30.6,0-58.9,10.2-81.6,27.6c-11.4-7.2-25.1-11.3-39.5-11.3c-20.3,0-38.8,8.1-52.2,21.3
			c-12.7-10.1-28.8-16.1-46.3-16.1c-22.2,0-41.9,9.7-55.6,25c-22.7-37.2-63.5-61.9-110.2-61.9c-71.3,0-129.1,57.8-129.1,129.1
			c0,56,35.5,103.6,85.3,121.4c-0.3-1.7-0.6-3.2-0.7-5v-0.1c-6.4-14.3,2.9-33,20.6-33h6.3c2.4,0,4.8,0.3,7,1
			c10.4-4.9,22.7-6.3,32.7-3.4c1,0.3,1.7,0.6,2.5,1c9.1-0.8,18.4-0.6,26.9,2.1c11.6,3.6,19.4,12,22,21.9
			c22.2-15.4,39.3-37.4,48.2-63.3c12.3,9.1,27.6,14.4,44,14.4c20.3,0,38.8-8.1,52.2-21.3c10.2,8.1,22.6,13.6,36.1,15.4
			c2.4,10.7,6.2,20.9,10.9,30.4c5.3-3.2,12-4.8,17.6-2.4c20.1,8.4,36.3,21.5,52.7,35.5c1-1.5,2-3.1,3.4-4.5
			c6.9-7.4,19.5-8.6,27.9-3.6c4.1,2.4,8.1,5.7,11.8,9.3c9.9-6.9,19.4-14.4,32.1-14.2c7.4,0.1,14.3,2.8,20.2,7c1.7-0.7,3.4-1.4,5.2-2
			c4.2-1.5,8.5-2.7,12.9-3.6c1.8-0.3,3.8-0.7,5.5-1c2.1-0.3,5.2-0.4,7.1-0.8c-0.3,0-0.3-0.1-0.6-0.1c0.3,0,0.6,0,0.8,0.1
			c0.3-0.1,0.6-0.1,0.8-0.3c0.6-0.3,1.1-0.1,1.3,0.1c2.8-0.4,6.2-1.8,8.5-2.4c3.4-0.8,6.6-1.4,10-2c9.9-1.5,19.9-2.4,29.6,1.1
			c14.8,5.2,23,16,33.9,26.4c0.6,0.6,1.3,1.1,1.8,1.7c0.8,0.4,1.7,1,2.4,1.4c-0.1-0.3,0.7-0.1,3.1,1.4c1.4,0.4,2.8,1,4.2,1.4
			c1.8,0.6,3.8,1,5.6,1.5c1.4-11.3,12.1-18.2,23-19.5c21.6-2.4,43.2-3.6,64.9-1.3c7.6,0.8,13.4,2.9,18.1,9.1
			c0.4,0.6,0.8,1.1,1.1,1.7c21.6-22,35.6-51.5,38.1-84.1c7.9,2.4,16.2,3.5,25,3.5c19.8,0,38.1-6.5,52.9-17.4c0,10.4,0.1,20.6,0.1,31
			v20.9c19.6-19,32.3-44.9,34.4-73.8c15.7,19.7,39.8,32.4,67,32.4c35.2,0,65.4-21.2,78.5-51.5c8.5,5.6,18.7,8.8,29.6,8.8
			c15.1,0,28.9-6.3,38.7-16.3c7,33.7,36.8,58.9,72.6,58.9c33.7,0,62-22.4,71.1-53.1c8.1,5.2,17.8,8.1,28.1,8.1
			c7.9,0,15.5-1.7,22.3-4.9c0,0.3,0,0.4,0,0.6c0,56.1,45.6,101.6,101.6,101.6c37.2,0,69.7-19.9,87.4-49.8
			c15.6,26.8,44.5,44.7,77.7,44.7c32.7,0,61.4-17.5,77.1-43.6c9.5,24.4,28.3,44.4,52,55.4c0.8-1,1.7-2,2.8-2.9
			c11.4-9.2,24-16,38.6-18.9c12.6-2.5,25.3-3.1,38-2.5c11.8,0.4,23.4,1.5,35.1,3.1c8.5-8.7,15.4-19,20.4-30.3
			c6.7,2,13.9,3.1,21.3,3.1c13.2,0,25.5-3.5,36.2-9.5c4.1,17,11.6,32.7,21.8,46.4c1.1-9,8.3-16.5,16.9-19.6
			c4.5-1.7,9.2-2.9,13.9-4.2c2.5-0.7,5-1.5,7.4-2.2c0.7-0.3,1.1-0.3,1.4-0.3c0.3-0.1,0.7-0.3,1.7-0.8c7.1-3.4,14.7-3.8,21.2-1
			c2.7-1.7,5.5-3.1,8.4-4.2c12.3-5.2,25.3-3.8,34.8,3.8c9.7-2.5,20.4,2.7,25.8,10.8c3.5,5.2,6.2,11.2,8.1,17.5
			c6.7-2.8,13.5-5.3,20.4-7.8c3.4-1.1,6.6-2.4,10-3.8c0.3-0.1,0.4-0.3,0.8-0.4c0.8-0.6,2.4-1.7,4.9-3.6c1-0.8,2-1.5,3.1-2.2
			c20.1-12.3,46.4-1,53.2,20.9c1.3,3.9,1.7,8.1,2.1,12.3c0.1,1.1,0.3,2.4,0.3,3.5c0.1,0.3,0.3,0.7,0.4,1c2.9,1.5,5.9,3.1,8.8,4.6
			c0.3,0,5,2.1,5.9,2.4c3.8,1.4,7.4,2.9,11.1,4.6c1,0.3,1.8,0.7,2.7,1c1.1,0.4,2.2,0.8,3.4,1.3c-3.5-8.7-4.6-18-1.4-27.2
			c1.7-4.9,3.9-9.8,6.4-14.3c0.3-0.4,0.4-1,0.7-1.1c0-0.3,0.1-0.4,0.1-0.7c0.3-1.4,0.8-6.9,0.6-1.3c0.4-9.3,5.5-17.4,14.2-21.1
			c9.1-3.8,17.9-1.4,25.1,4.8c0.7,0.6,1.5,1.1,2.2,1.8c0.3,0.3,0.7,0.4,1.3,1c2,1.3,3.8,2.5,5.9,3.8c1.8,1.1,3.8,2.2,5.9,3.2
			c1,0.4,1.8,1,2.8,1.4c4.2,1.5,8.4,2.9,12.7,3.9c1.8,0.4,3.8,0.8,5.6,1.1c1,0.3,9.3,1.4,3.5,0.6c10.5,1.3,18.9,6.2,22.3,16.9
			c1.7,5.2,2.4,10.5,2.5,16c1-1,2.1-2.1,3.2-3.1c2.2-7.1,7.7-12.8,15.6-15.4c11.4-3.8,25.8,4.3,28.5,16.1c0.3,1.8,0.7,3.6,1,5.5
			c23.2-25.5,37.4-59.6,37.4-96.8C3113.3-550.8,3048.8-615.2,2969.3-615.2z"/>
		<path class="st2" d="M3085.4-465.8c-3.6-11.1-6.2-23.4-6.3-35.1c-0.3-12.6,10.1-21.9,22.1-23c0-0.1-0.1-0.3-0.1-0.3
			c-0.7-2.3,0.3-4.5,2.2-5.7c-20.6-24.2-51.3-39.6-85.5-39.6c-21.9,0-42.3,6.3-59.6,17.1c-12.2-4.6-25.7-7.1-39.5-7.1
			c-37,0-69.9,18-90.3,45.6c-25.3-21.3-58.1-34.2-93.7-34.2c-34.9,0-66.9,12.3-91.9,32.8c-21-23.3-51.3-37.9-85.1-37.9
			c-32.4,0-61.7,13.4-82.6,35.1c-3.6-1-7.4-1.4-11.4-1.4c-10,0-19.4,3.2-26.8,8.7c-12.7-10-28.6-16-45.9-16
			c-12.5,0-24.1,3.1-34.4,8.5c-13.3-12.6-31.3-20.3-51-20.3c-12.7,0-24.7,3.1-35.1,8.8c-11.2-3.2-23.1-4.9-35.5-4.9
			c-25.1,0-48.4,7.1-68,19.5c-13.5-14.4-32.7-23.4-54.1-23.4c-27.2,0-50.9,14.6-63.8,36.3c-13.6-16.8-34.4-27.6-57.8-27.6
			c-13.6,0-26.5,3.8-37.4,10.1c-13.5-18.9-35.5-31.1-60.5-31.1c-21.7,0-41.1,9.3-54.7,24.1c-8.1-11.2-21.3-18.4-36.2-18.4
			c-5.3,0-10.6,1-15.4,2.7c-12.9-16.2-32.8-26.5-55.1-26.5c-28.3,0-52.7,16.7-64,40.8c-10-4.1-21-6.4-32.5-6.4
			c-19.7,0-37.9,6.7-52.3,18c-14.4-11.2-32.7-18-52.3-18c-16.5,0-32,4.8-45.1,12.9c-18.8-23.2-47.4-38.1-79.5-38.1
			c-33.8,0-63.7,16.4-82.3,41.7c-14.3-7.7-30.7-12-48.1-12c-31.7,0-60,14.4-78.8,37c-23.9-25.7-57.9-41.6-95.7-41.6
			c-16,0-31.3,2.9-45.6,8.1c-9.8-32.8-40.2-56.8-76.2-56.8c-24.1,0-45.7,10.7-60.3,27.8c-24.4-23.6-57.7-38-94.4-38
			c-75.2,0-136.1,60.9-136.1,136.1c0,8.4,0.7,16.5,2.2,24.4c8.1-2.8,17.6-0.1,24.4,5.3c13.5,10.9,24.4,24.4,35.6,37.7
			c1.1,1.4,2.4,2.8,3.6,4.2c2.4-12.8,10.7-24,23-29.6c26.9-12.2,60.3-6.7,86.5,5c9,4.1,17.2,9.8,24,16.7c7.3-0.1,14.9,4.5,19.2,10
			c4.8-4.2,9.7-8.1,14.9-12c4.6-3.5,9.4-7,14.2-10.5c0.7-0.6,1.5-1,2.2-1.7c-1.3-0.4-2.5-1-3.8-1.3c-11.1-3.6-18.1-13.6-16.5-25.3
			c1.5-11.3,11.2-19.9,22.6-20.1c16.8-0.3,33.2-3.6,49.8,0.8c13.3,3.6,17.8,16.1,16.1,28.5c-0.6,3.9-1.5,7.7-2.9,11.3
			c2,2.4,3.9,4.8,5.9,7.2c8.4-10.9,19-19.4,32.8-21.2c10.2-1.4,19,2,26.4,7.8c8.5-1,16.9-0.7,24.7,1.1c11.5-3.4,25,4.3,29.2,16.3
			c0.3,1,0.6,1.8,1,2.8c1,1.1,1.8,2.4,2.8,3.8c3.4,5,5.6,10.5,6.7,16.1c2.4-2.5,5.2-4.9,8.6-7c11.1-7,24-8,36-4.9
			c7.2-9.1,16.4-16.1,27.6-19.2c20.4-5.9,40.7,3.4,52,20.8c0.3,0.4,0.6,1,1,1.5c6.7,5.7,12.6,12.6,17.5,20.2c4.3,2.1,8,5.2,10.5,9.1
			c3.5,5.5,3.9,11.5,2.4,17.1c1.7,5,3.2,10.1,4.3,15.1c26.5-4.5,49.8-19.4,65.1-40.2c14.3,7.7,30.7,12,48.1,12
			c27.2,0,51.9-10.6,70.1-27.9c14.8,12.2,33.8,19.7,54.6,19.7c19.7,0,37.9-6.7,52.3-18c2.7,2.1,5.6,4.1,8.5,5.9
			c-0.4-3.8,0-7.7,1.5-11.5c4.8-12,15-19.1,28.5-16.1c1.7,0.3,3.5,1.1,5.2,2.1c4.3-4.5,9.8-7.8,15.6-9.3c21-5.3,41.1,7.2,49.1,26.2
			c13.3-11.5,23.1-27.1,27.2-44.7c4.3,0.8,8.7,1.3,13.3,1.3c23.7,0,44.6-11.6,57.5-29.6c4.2,1.3,8.6,2,13.2,2
			c6.6,0,12.9-1.5,18.7-4.1c7.7,32.8,37.2,57.4,72.4,57.4c13.6,0,26.5-3.8,37.4-10.1c3.4,4.6,7.2,9,11.5,12.7
			c1.4-4.3,3.9-8.1,7.4-10.7c0.6-0.4,1.1-0.8,1.8-1.1c0.1-0.1,0.3-0.3,0.4-0.3c2.1-1.7,4.2-3.5,6.5-4.9c2-1.4,4.1-2.5,6.2-3.6
			c6.3-3.1,12.9-5.5,19.6-7.7c8.6-2.8,17.1-5.9,25.7-9.1c22.6-8.4,47.8-17.2,72-11.8c15,3.4,20.5,21.3,13.7,33.9
			c-3.8,7-9.2,12.8-15.5,17.7c8.3,4.1,17.5,6.6,27.2,7.2c0,0.4,0.1,0.8,0.3,1.3c2,0.3,3.9,0.8,5.9,1.3c26.7,6.5,52.6,15.3,78.8,23.2
			c10.7-1.7,21.3-3.2,32-5.3c18.5-3.8,37.2-8.3,56.1-8.8c10.4-0.3,21.3,1,30.3,6.5c8,5,12.9,13.4,14,22.4c7.2,2.4,13.7,6,19.4,11.3
			c8.6-13.7,14.7-29.3,17.5-45.8c1.7,0.7,3.2,1.3,4.9,1.8c-4.5-13.4-2.1-28.2,12-37.5c13-8.5,30.7-6.3,45-2.4
			c7.8,2.1,16.3,4.9,23.4,9.4c0.4-0.3,1-0.7,1.5-1c6.3-4.1,13.3-3.9,19.5-1.4c6-10.4,18.9-14.8,31.3-8.5
			c12.7,6.4,23.3,15.3,32.7,25.4c3.1-1.5,6.4-2.4,10-2.9c5.2-0.7,10.1,0.4,14.8,2.4c5.2-10.5,15.1-17.6,27.5-14.1
			c4.1,1.1,8,2.7,11.6,4.5c0.3-3.1,1.1-6.3,2.4-9.4c4.8-11.2,15.8-18.2,28.1-17.8c15.6,0.4,30.4,10,41.2,21.1c0.3-1,0.8-2,1.4-2.8
			c10.1-16.9,33-21.3,50.9-23.3c16.2-1.7,35.3,0.3,46,14c7.6-1,15.1-1,22.6,1c26.5,7.4,33.4,36.2,33.5,60.6c6.3,0.4,12.7,1.1,19,2
			c3.2-6.5,7.4-12.6,12.9-17.8c7.9-8.4,24.4-10.2,32.3-0.4c2.4,2.9,4.5,6,6.3,9.2c2.4-2.4,4.9-4.8,7.4-7.1c-1.3-1.1-2.4-2.2-3.8-3.4
			c-6.9-6.5-9.4-20.1-3.6-27.9c8.7-12,21.3-20.5,34.1-27.8c12.3-6.9,26.2-14,40.7-14.4c15.3-0.4,26,15.1,22.3,29.3
			c-2.7,10.1-6.9,19.5-12.2,28.1c9.7-1.4,19.4-2.1,28.9-2.4c13-0.6,28.5-0.7,43,1.7c1.4-1,2.8-1.8,4.3-2.7
			c10.5-6.4,22-12.2,34.1-16.4c0.8-1.7,1.7-3.4,2.7-5.2c3.2-5.9,7-11.5,10.9-16.9C3093.4-444.6,3088.6-455.7,3085.4-465.8z"/>
		<circle class="st2" cx="3064.3" cy="-497.9" r="50.5"/>
		<path id="XMLID_2_" class="st0" d="M3099.1-387.9c13.7-16.2,22.2-37.2,22.2-60c0-51.2-41.5-92.7-92.7-92.7s-92.7,41.5-92.7,92.7
			c0,0.4,0,0.8,0,1.3c-12.6-36.2-47.1-62.3-87.5-62.3c-30.3,0-57.2,14.6-74.1,37c-6.6-21.5-26.7-37-50.3-37c-19,0-35.5,10-44.9,25.1
			c-7.7-4.5-16.7-7-26.2-7c-13.2,0-25.1,4.8-34.4,12.7c-13.9-24-39.7-40.1-69.3-40.1c-33.7,0-62.4,20.8-74.3,50.2
			c-9.3-8-21.3-12.9-34.6-12.9c-1.3,0-2.7,0.1-3.9,0.1c-9.4-14.3-25.7-23.8-44-23.8c-19.7,0-36.9,10.8-45.9,26.8
			c-11.8-5.7-25.1-8.8-39-8.8c-30.6,0-57.5,15.3-73.9,38.6c-16.5-33.8-51.2-57-91.3-57c-29.7,0-56.5,12.8-75.2,33.2
			c-7.9-19.2-26.8-32.7-48.8-32.7c-19.2,0-36,10.2-45.2,25.7c-13.5-14.3-32.7-23.3-54-23.3c-25.3,0-47.5,12.7-60.9,32
			c-7.8-20.1-27.4-34.2-50.2-34.2c-14.8,0-28.3,6-38.1,15.7c-15.5-22-41.1-36.5-70.1-36.5c-41.9,0-76.9,30.3-84.3,70.1
			c-20.2-32.1-56-53.5-96.7-53.5c-14.2,0-27.9,2.5-40.4,7.3c-9.8-13.5-25.7-22.3-43.6-22.3c-22.4,0-41.6,13.6-49.8,33.1
			c-16.9-11.5-37.3-18.2-59.2-18.2c-33,0-62.3,15.1-81.6,38.8c-14-28.5-43.1-47.9-76.9-47.9c-30.2,0-56.7,15.6-71.9,39.1
			c-9.7-9.2-22.9-14.9-37.2-14.9c-13.5,0-25.8,5-35.5,13.3c-17.7-35.8-54.7-60.3-97.2-60.3c-36.2,0-68.4,17.8-88.1,45.1
			c-15.6-20.9-40.5-34.4-68.6-34.4c-47.3,0-85.7,38.3-85.7,85.7c0,22,8.3,42.1,21.9,57.2v105h792.9c6.7,1.3,13.7,1.8,20.9,1.8
			c7.1,0,14-0.7,20.8-1.8h1559.9v-105.8h-0.4V-387.9z"/>
	</g>
</g>
</svg>
