<?xml version="1.0" encoding="utf-8"?>
<!-- Generator: Adobe Illustrator 19.0.0, SVG Export Plug-In . SVG Version: 6.00 Build 0)  -->
<svg version="1.1" id="Capa_1" xmlns="http://www.w3.org/2000/svg" xmlns:xlink="http://www.w3.org/1999/xlink" x="0px" y="0px"
	 viewBox="0 0 34 34" style="enable-background:new 0 0 34 34;" xml:space="preserve">
<style type="text/css">
	.st0{fill:#E9644B;}
	.st1{fill:#FFFFFF;}
	.st2{fill:#3FC0F0;}
	.st3{fill:#79CCF0;}
	.st4{fill:#1385C8;}
	.st5{fill:#696969;}
</style>
<g>
	<path class="st0" d="M-69.2,40c9.4,0,17-7.6,17-17c0-9.4-7.6-17-17-17c-9.4,0-17,7.6-17,17C-86.2,32.4-78.6,40-69.2,40"/>
	<path class="st1" d="M-65.9,23l-5.6,3.3v-6.5L-65.9,23z M-60.7,26v-6.1c0,0,0-2.9-2.9-2.9h-11.1c0,0-2.9,0-2.9,2.9V26
		c0,0,0,2.9,2.9,2.9h11.1C-63.6,29-60.7,29-60.7,26"/>
</g>
<g>
	<path class="st2" d="M171.6,25.8c9.4,0,17-7.6,17-17c0-9.4-7.6-17-17-17c-9.4,0-17,7.6-17,17C154.6,18.2,162.2,25.8,171.6,25.8"/>
	<path class="st1" d="M170.9,4.6c0.3,0.4,0.5,1,0.5,1.6c0,0.6-0.2,1.2-0.5,1.5c-0.2,0.2-0.4,0.4-0.8,0.6c0.5,0.2,0.9,0.5,1.2,0.9
		c0.3,0.4,0.4,0.9,0.4,1.5c0,0.6-0.2,1.2-0.5,1.7c-0.2,0.3-0.4,0.6-0.7,0.8c-0.3,0.3-0.7,0.4-1.2,0.5c-0.5,0.1-1,0.1-1.5,0.1h-4.7
		V3.4h5.1C169.5,3.5,170.4,3.8,170.9,4.6z M165.2,5.3v2.3h2.6c0.5,0,0.8-0.1,1.1-0.3c0.3-0.2,0.4-0.5,0.4-0.9c0-0.5-0.2-0.8-0.6-1
		c-0.3-0.1-0.7-0.2-1.2-0.2H165.2z M165.2,9.3v2.8h2.6c0.5,0,0.8-0.1,1.1-0.2c0.5-0.2,0.7-0.7,0.7-1.3c0-0.5-0.2-0.9-0.7-1.1
		c-0.3-0.1-0.6-0.2-1.1-0.2H165.2z M178.1,6.3c0.5,0.2,1,0.6,1.3,1.1c0.3,0.5,0.5,1,0.6,1.6c0.1,0.4,0.1,0.9,0.1,1.5h-5.7
		c0,0.8,0.3,1.3,0.8,1.6c0.3,0.2,0.7,0.3,1.1,0.3c0.5,0,0.8-0.1,1.1-0.4c0.2-0.1,0.3-0.3,0.4-0.5h2.1c-0.1,0.5-0.3,0.9-0.8,1.4
		c-0.7,0.8-1.7,1.1-2.9,1.1c-1,0-1.9-0.3-2.7-1c-0.8-0.6-1.2-1.7-1.2-3.1c0-1.3,0.4-2.4,1.1-3.1c0.7-0.7,1.6-1.1,2.8-1.1
		C176.9,6,177.5,6.1,178.1,6.3z M175,8.1c-0.3,0.3-0.5,0.7-0.5,1.2h3.5c0-0.5-0.2-0.9-0.5-1.2c-0.3-0.3-0.7-0.4-1.2-0.4
		C175.7,7.6,175.3,7.8,175,8.1z M178.5,3.9H174v1.3h4.5V3.9z"/>
</g>
<g>
	<path class="st3" d="M-179.7,54.4c9.4,0,17-7.6,17-17c0-9.4-7.6-17-17-17c-9.4,0-17,7.6-17,17C-196.7,46.8-189.1,54.4-179.7,54.4"
		/>
	<path class="st1" d="M-171.2,32.9c-0.6,0.3-1.3,0.5-2,0.6c0.7-0.4,1.3-1.1,1.5-1.9c-0.7,0.4-1.4,0.7-2.2,0.8
		c-0.6-0.7-1.5-1.1-2.6-1.1c-1.9,0-3.5,1.6-3.5,3.5c0,0.3,0,0.5,0.1,0.8c-2.9-0.1-5.5-1.5-7.2-3.7c-0.3,0.5-0.5,1.1-0.5,1.8
		c0,1.2,0.6,2.3,1.6,2.9c-0.6,0-1.1-0.2-1.6-0.4v0c0,1.7,1.2,3.1,2.8,3.4c-0.3,0.1-0.6,0.1-0.9,0.1c-0.2,0-0.4,0-0.7-0.1
		c0.4,1.4,1.7,2.4,3.3,2.4c-1.2,0.9-2.7,1.5-4.3,1.5c-0.3,0-0.6,0-0.8,0c1.5,1,3.4,1.6,5.4,1.6c6.4,0,9.9-5.3,9.9-9.9
		c0-0.2,0-0.3,0-0.5C-172.2,34.2-171.7,33.6-171.2,32.9"/>
</g>
<g>
	<path class="st4" d="M73.7,34c9.4,0,17-7.6,17-17c0-9.4-7.6-17-17-17c-9.4,0-17,7.6-17,17C56.7,26.4,64.3,34,73.7,34"/>
	<path class="st1" d="M68.9,24.1h-3.3V13.5h3.3V24.1z M67.2,12.2L67.2,12.2c-1.2,0-2-0.8-2-1.8c0-1,0.8-1.8,2-1.8c1.2,0,2,0.8,2,1.8
		C69.2,11.4,68.4,12.2,67.2,12.2z M82.2,24.1h-3.8v-5.5c0-1.4-0.6-2.4-1.9-2.4c-1,0-1.5,0.7-1.8,1.3c-0.1,0.2-0.1,0.5-0.1,0.9v5.7
		h-3.7c0,0,0-9.7,0-10.6h3.7v1.7c0.2-0.7,1.4-1.8,3.3-1.8c2.4,0,4.2,1.5,4.2,4.8V24.1z"/>
</g>
<g>
	<path class="st5" d="M17,34c9.4,0,17-7.6,17-17c0-9.4-7.6-17-17-17C7.6,0,0,7.6,0,17C0,26.4,7.6,34,17,34"/>
	<path class="st1" d="M22.2,8.5H11.8c-1.8,0-3.3,1.5-3.3,3.3v3.5v7c0,1.8,1.5,3.3,3.3,3.3h10.4c1.8,0,3.3-1.5,3.3-3.3v-7v-3.5
		C25.5,10,24,8.5,22.2,8.5z M23.2,10.5l0.4,0v0.4v2.5l-2.9,0l0-2.9L23.2,10.5z M14.6,15.3C15.1,14.5,16,14,17,14s1.9,0.5,2.4,1.2
		c0.4,0.5,0.6,1.1,0.6,1.7c0,1.7-1.3,3-3,3s-3-1.3-3-3C14,16.4,14.2,15.8,14.6,15.3z M23.9,22.2c0,0.9-0.7,1.6-1.6,1.6H11.8
		c-0.9,0-1.6-0.7-1.6-1.6v-7h2.5c-0.2,0.5-0.3,1.1-0.3,1.7c0,2.6,2.1,4.7,4.7,4.7c2.6,0,4.7-2.1,4.7-4.7c0-0.6-0.1-1.2-0.3-1.7h2.5
		V22.2z"/>
</g>
</svg>
