<?xml version="1.0" encoding="utf-8"?>
<!-- Generator: Adobe Illustrator 19.0.0, SVG Export Plug-In . SVG Version: 6.00 Build 0)  -->
<svg version="1.1" id="Layer_1" xmlns="http://www.w3.org/2000/svg" xmlns:xlink="http://www.w3.org/1999/xlink" x="0px" y="0px"
	 viewBox="1732 -983.8 930.6 1467.4" style="enable-background:new 1732 -983.8 930.6 1467.4;" xml:space="preserve">
<style type="text/css">
	.st0{fill:#FFFFFF;}
	.st1{fill:#8E8E8E;}
	.st2{fill:#EC313C;}
	.st3{fill:#E5DED9;}
	.st4{fill:none;}
	.st5{fill:#B43736;}
	.st6{opacity:0.3;enable-background:new    ;}
	.st7{opacity:0.3;fill:#EC313C;enable-background:new    ;}
	.st8{fill:#545557;}
	.st9{fill:#5DAF6B;}
	.st10{opacity:0.47;fill:#161616;enable-background:new    ;}
	.st11{opacity:0.5;enable-background:new    ;}
</style>
<g>
	<path class="st0" d="M2030.4,169.7c-23.6,78.2-43.4,107-43.4,107h205.1v-107L2030.4,169.7L2030.4,169.7z"/>
	<rect x="2223.2" y="-828.5" class="st1" width="6.4" height="107.2"/>
	<rect x="2282.2" y="-828.5" class="st1" width="6.4" height="107.2"/>
	<path class="st2" d="M2219.1-968.8v111.5c0,2.1,1.7,3.8,3.8,3.8s3.8-1.7,3.8-3.8v-111.5H2219.1z"/>
	<path class="st2" d="M2226.7-980c0-2.1-1.7-3.8-3.8-3.8s-3.8,1.7-3.8,3.8v4.7h7.6V-980L2226.7-980z"/>
	<rect x="2219.1" y="-975.3" class="st3" width="7.6" height="6.5"/>
	<path class="st2" d="M2192-906.4v13.3h-15.3c0,0.4,0,0.7,0,0.9v5.9h92.4v-5.9c0-5-0.9-9.8-2.6-14.2H2192z"/>
	<rect x="2199" y="-828.5" class="st4" width="23.9" height="107.2"/>
	<polygon class="st4" points="2192,-828.5 2192,-828.5 2171,-828.5 2171,-721.3 2192,-721.3 	"/>
	<rect x="2111.2" y="-828.5" class="st4" width="21.1" height="107.2"/>
	<rect x="2257.2" y="-828.5" class="st4" width="24.6" height="107.2"/>
	<rect x="2226.4" y="-828.5" class="st4" width="23.9" height="107.2"/>
	<rect x="2285.4" y="-828.5" class="st4" width="24.6" height="107.2"/>
	<polygon class="st5" points="2139.3,-725.2 2139.3,-725.2 2164.1,-725.2 2164.1,-725.2 2163.9,-725.2 	"/>
	<polygon class="st5" points="2111.2,-725.2 2111.2,-725.2 2135.9,-725.2 2135.9,-725.2 2132.2,-725.2 	"/>
	<path class="st0" d="M2192,10.8h181c-6.2-35.1-12.1-74.2-17.3-117.9H2192V10.8L2192,10.8z"/>
	<path class="st0" d="M2192-262.1c53.7,0,112.3-0.1,149-0.2c-2.6-36.8-4.7-76.1-6.4-117.8h-142.7L2192-262.1L2192-262.1L2192-262.1z
		"/>
	<path class="st0" d="M2192-538.8h139.2c-0.1-10.8-0.1-21.6-0.1-32.6c0-0.2,0-0.5,0-0.7c0-0.1,1.1-0.7,1.3-0.8
		c0.5-0.4,0.9-0.7,1.5-1.1c0.9-0.7,1.9-1.5,2.6-2.5c1.8-2.1,2-4.5,2-7.1c0-0.4,0-5,0-5h-146.6L2192-538.8L2192-538.8z"/>
	<polygon class="st3" points="2132.2,-828.5 2132.2,-828.5 2132.2,-721.3 2135.9,-721.3 2135.9,-828.5 	"/>
	<rect x="2192" y="-828.5" class="st3" width="7" height="107.2"/>
	<rect x="2250.3" y="-828.5" class="st3" width="7" height="107.2"/>
	<rect x="2310.1" y="-828.5" class="st3" width="7" height="107.2"/>
	<rect x="2281.9" y="-828.5" class="st1" width="3.4" height="107.2"/>
	<rect x="2139.2" y="-828.5" class="st6" width="0.1" height="107.2"/>
	<rect x="2164.3" y="-828.5" class="st6" width="6.4" height="107.2"/>
	<rect x="2135.7" y="-828.5" class="st6" width="3.7" height="107.2"/>
	<rect x="2105.4" y="-717.4" class="st3" width="86.7" height="75.5"/>
	<polygon class="st3" points="2192,-641.9 2220.1,-641.9 2343.9,-641.9 2343.9,-717.4 2192,-717.4 	"/>
	<rect x="2105.4" y="-717.4" class="st6" width="86.7" height="75.5"/>
	<path class="st0" d="M2192-107.1h-107.7c-5.3,43.7-11.1,82.8-17.3,117.9h125V-107.1z"/>
	<path class="st0" d="M2192-107.1h-107.7c-5.3,43.7-11.1,82.8-17.3,117.9h125V-107.1z"/>
	<path class="st6" d="M2192-107.1h-107.7c-5.3,43.7-11.1,82.8-17.3,117.9h125V-107.1z"/>
	<path class="st0" d="M2192-262.1v-118h-86.7c-1.7,41.7-3.8,81-6.4,118C2122.6-262.1,2156.2-262.1,2192-262.1z"/>
	<path class="st0" d="M2192-262.1v-118h-86.7c-1.7,41.7-3.8,81-6.4,118C2122.6-262.1,2156.2-262.1,2192-262.1z"/>
	<path class="st6" d="M2192-262.1v-118h-86.7c-1.7,41.7-3.8,81-6.4,118C2122.6-262.1,2156.2-262.1,2192-262.1z"/>
	<path class="st0" d="M2409.8,169.7H2192v107h28.1h233C2453.1,276.7,2433.3,247.9,2409.8,169.7z"/>
	<path class="st0" d="M2030.4,169.7c-23.6,78.2-43.4,107-43.4,107h205.1v-107L2030.4,169.7L2030.4,169.7z"/>
	<g>
		<path class="st2" d="M2331.2-538.9H2192v158.8h142.8C2332.9-429.5,2331.6-482.3,2331.2-538.9z"/>
		<path class="st2" d="M2105.2-380h86.7v-158.8h-83.1C2108.4-482.3,2107.3-429.4,2105.2-380z"/>
	</g>
	<path class="st5" d="M2192-538.8h-83.2c-0.4,56.5-1.5,109.4-3.6,158.8h86.7v-158.8H2192z"/>
	<path class="st5" d="M2192-262.1c-35.8,0-69.4,0-93,0c-4,57.1-9,108.6-14.6,155.1h107.7L2192-262.1L2192-262.1z"/>
	<g>
		<path class="st2" d="M2192-107.1h163.7c-5.7-46.6-10.7-98.1-14.6-155.3c-36.8,0.1-95.4,0.2-149,0.2L2192-107.1L2192-107.1
			L2192-107.1z"/>
		<path class="st7" d="M2192-262.1c-35.8,0-69.4,0-93,0c-4,57.1-9,108.6-14.6,155.1h107.7L2192-262.1L2192-262.1z"/>
	</g>
	<g>
		<path class="st2" d="M2192-107.1h163.7c-5.7-46.6-10.7-98.1-14.6-155.3c-36.8,0.1-95.4,0.2-149,0.2L2192-107.1L2192-107.1
			L2192-107.1z"/>
		<path class="st7" d="M2192-262.1c-35.8,0-69.4,0-93,0c-4,57.1-9,108.6-14.6,155.1h107.7L2192-262.1L2192-262.1z"/>
	</g>
	<path class="st2" d="M2192,169.7h217.8c-12-39.5-24.9-91.6-36.7-158.9h-181L2192,169.7L2192,169.7z"/>
	<path class="st0" d="M2192-588.8h-90.5c0,0,0,4.7,0,5c0,2.6,0.2,5,2,7.1c0.7,0.9,1.7,1.8,2.6,2.5c0.5,0.4,0.9,0.7,1.5,1.1
		c0.1,0.1,1.3,0.7,1.3,0.8c0,0.2,0,0.5,0,0.7c0,11,0,21.9-0.1,32.6h83.2V-588.8L2192-588.8z"/>
	<path class="st6" d="M2192-588.8h-90.5c0,0,0,4.7,0,5c0,2.6,0.2,5,2,7.1c0.7,0.9,1.7,1.8,2.6,2.5c0.5,0.4,0.9,0.7,1.5,1.1
		c0.1,0.1,1.3,0.7,1.3,0.8c0,0.2,0,0.5,0,0.7c0,11,0,21.9-0.1,32.6h83.2V-588.8L2192-588.8z"/>
	<polygon class="st5" points="2105.4,-641.9 2077.3,-641.9 2068.2,-641.9 2068.2,-607.3 2085.4,-607.3 2085.4,-588.8 2101.6,-588.8 
		2192,-588.8 2192,-615.3 2192.1,-615.3 2192.1,-641.9 	"/>
	<g>
		<polygon class="st2" points="2343.9,-641.9 2220.1,-641.9 2192,-641.9 2192,-615.3 2192,-588.8 2338.6,-588.8 2354.8,-588.8 
			2354.8,-607.3 2372,-607.3 2372,-641.9 		"/>
		<polygon class="st6" points="2105.4,-641.9 2077.3,-641.9 2068.2,-641.9 2068.2,-607.3 2085.4,-607.3 2085.4,-588.8 
			2101.6,-588.8 2192,-588.8 2192,-615.3 2192.1,-615.3 2192.1,-641.9 		"/>
	</g>
	<path class="st5" d="M2132.2-849.5v21h3.7h3.3h0.1h24.5h0.1h3.3h3.7h21.1v-64.8h-16C2151.8-893.3,2132.2-873.6,2132.2-849.5z"/>
	<rect x="2195.7" y="-828.5" class="st6" width="3.3" height="107.2"/>
	<rect x="2253.9" y="-828.5" class="st6" width="3.3" height="107.2"/>
	<rect x="2313.7" y="-828.5" class="st6" width="3.3" height="107.2"/>
	<polygon class="st5" points="2285.4,-725.2 2281.9,-725.2 2257.2,-725.2 2250.3,-725.2 2226.4,-725.2 2222.9,-725.2 2199,-725.2 
		2192,-725.2 2171,-725.2 2171,-725.2 2192,-725.2 2192,-717.4 2343.9,-717.4 2358.5,-717.4 2358.5,-725.2 2317,-725.2 
		2310.1,-725.2 	"/>
	<polygon class="st5" points="2090.8,-725.2 2104.2,-725.2 2104.2,-725.2 	"/>
	<polygon class="st5" points="2105.4,-717.4 2192,-717.4 2192,-725.2 2171,-725.2 2171,-725.2 2167.4,-725.2 2164.1,-725.2 
		2164.1,-725.2 2139.3,-725.2 2139.3,-725.2 2139.2,-725.2 2135.9,-725.2 2135.9,-725.2 2111.2,-725.2 2111.2,-725.2 2104.2,-725.2 
		2104.2,-725.2 2090.8,-725.2 2090.8,-717.4 	"/>
	<polygon class="st6" points="2105.4,-717.4 2192,-717.4 2192,-725.2 2171,-725.2 2171,-725.2 2167.4,-725.2 2164.1,-725.2 
		2164.1,-725.2 2139.3,-725.2 2139.3,-725.2 2139.2,-725.2 2135.9,-725.2 2135.9,-725.2 2111.2,-725.2 2111.2,-725.2 2104.2,-725.2 
		2104.2,-725.2 2090.8,-725.2 2090.8,-717.4 	"/>
	<path class="st2" d="M2067,10.8c-11.8,67.3-24.8,119.3-36.7,158.9H2192V10.8H2067z"/>
	<path class="st5" d="M2067,10.8c-11.8,67.3-24.8,119.3-36.7,158.9H2192V10.8H2067z"/>
	<path class="st0" d="M2220.1,143.1L2220.1,143.1c-21.9,0-39.8,17.8-39.8,39.8v84h79.5v-84C2259.9,160.9,2242,143.1,2220.1,143.1z"
		/>
	<path class="st8" d="M2220.1,140.6L2220.1,140.6c-22.7,0-41.3,18.6-41.3,41.3v87.6h82.8v-87.6
		C2261.4,159.1,2242.8,140.6,2220.1,140.6z"/>
	<path class="st6" d="M2030.4,169.7c-23.6,78.2-43.4,107-43.4,107h205.1v-107L2030.4,169.7L2030.4,169.7z"/>
	<path class="st4" d="M2115.8,443.2c20.3-40.3,44-80.8,65.5-122C2159.8,362,2136.2,401.9,2115.8,443.2L2115.8,443.2z"/>
	<path class="st9" d="M2115.7,443.2c20.5-41.3,44.1-81.2,65.5-122c12.7-24.2,24.6-48.6,34.7-73.2c-28.8,5.4-56.8,14.9-85.9,18
		c-38.7-2.4-77-11.5-115.9-14.9c-44.5,8.2-88,20.1-132.3,29.1c-17.3,1.5-26.8,17.8-38.3,29.1c-18.8,21.4-40.6,40.6-57.1,64.2
		c-3.2,4.7-6.3,9.7-9.5,14.5c58.2,13.9,114.3,35.7,172.3,51.1c53.3,14.7,111,22,164.9,7.2C2114.8,445.1,2115.2,444.2,2115.7,443.2
		C2115.8,443.2,2115.8,443.2,2115.7,443.2z"/>
	<path class="st9" d="M2648.3,391.2c-16.2-18.6-32-38-47.2-57.5c-6.3-7.8-12.8-15.8-22.5-19.4c-39.6-17.5-78.9-36.1-118.5-53.8
		c-23.3-5.2-47.7-1.1-71.6-1.8c-21.4,1.3-42.8-3.4-62.9-10.4c-17.1-5-33.5-12.1-51.1-13.4c-19.9,1.3-39.1,8.4-58.8,12.6
		c0,0.1-0.1,0.2-0.1,0.2h0.1c-10.3,25.1-22.2,49.3-34.8,73.2c-21.6,41.2-45.3,81.7-65.5,122c-0.5,0.9-0.9,2-1.5,3l0,0l12.3-3.4
		c74.2-26.2,147.7-59.8,227.8-59.6c57.7-1.3,112.4,18.6,166.5,36.1c45.1,16.2,93.8,31.8,142.1,19.4
		C2658.2,422.6,2654.5,406.4,2648.3,391.2z"/>
	<path class="st8" d="M2216.2,254.3L2216.2,254.3c-10.2,24.6-22.1,49-34.8,73.2C2193.9,303.7,2205.9,279.4,2216.2,254.3z"/>
	<path class="st2" d="M2184.7-916.3C2184.7-916.4,2184.7-916.4,2184.7-916.3C2184.7-916.4,2184.7-916.4,2184.7-916.3z"/>
	<path class="st2" d="M2187-919.1c0.1-0.1,0.2-0.2,0.2-0.4C2187.2-919.4,2187-919.2,2187-919.1z"/>
	<path class="st2" d="M2185.9-917.8c0.1-0.1,0.2-0.2,0.4-0.4C2186-918.1,2186-917.9,2185.9-917.8z"/>
	<path class="st6" d="M2176.7-893.3L2176.7-893.3c0.2-8.6,3.2-16.6,7.9-23.1C2180.8-911.1,2176.7-903.4,2176.7-893.3z"/>
	<path class="st6" d="M2184.8-916.4c0.4-0.5,0.7-0.9,1.1-1.4C2185.5-917.3,2185.1-916.9,2184.8-916.4z"/>
	<path class="st6" d="M2186.1-918.2c0.2-0.4,0.6-0.7,0.8-0.9C2186.7-918.8,2186.4-918.5,2186.1-918.2z"/>
	<path class="st6" d="M2192-923.9L2192-923.9c0,0-2.1,1.5-4.9,4.5C2188.7-921,2190.4-922.6,2192-923.9z"/>
	<path class="st5" d="M2192-923.9c-1.8,1.3-3.3,2.8-4.9,4.5c-0.1,0.1-0.2,0.2-0.2,0.4c-0.2,0.4-0.6,0.7-0.8,0.9
		c-0.1,0.1-0.2,0.2-0.4,0.4c-0.4,0.5-0.7,0.9-1.1,1.4c0,0,0,0,0,0.1c-4.9,6.5-7.7,14.5-7.9,23.1h15.3V-923.9L2192-923.9z"/>
	<path class="st2" d="M2192-828.5L2192-828.5h7h23.9h3.4h23.9h7h24.6h3.4h24.6h7v-21c0-2.4-0.2-4.6-0.5-6.9h-124.5L2192-828.5
		L2192-828.5z"/>
	<path class="st2" d="M2273.2-893.3H2192v23.5h119.9C2304.7-883.7,2290-893.3,2273.2-893.3z"/>
	<path class="st3" d="M2192-869.8v13.6h124.5c-0.7-4.9-2.4-9.5-4.5-13.6H2192z"/>
	<rect x="2192" y="-869.8" class="st3" width="0" height="13.6"/>
	<path class="st6" d="M2192-893.3h-16c-16.8,0-31.4,9.5-38.7,23.5h54.7V-893.3z"/>
	<path class="st6" d="M2132.2-849.5v21h3.7h3.3h0.1h24.5h0.1h3.3h3.7h21.1v-27.7h-59.4C2132.4-854,2132.2-851.7,2132.2-849.5z"/>
	<path class="st3" d="M2137.3-869.8c-2.3,4.1-3.8,8.8-4.5,13.6h59.4v-13.6H2137.3z"/>
	<path class="st6" d="M2137.3-869.8c-2.3,4.1-3.8,8.8-4.5,13.6h59.4v-13.6H2137.3z"/>
	<path class="st2" d="M2261.9-915.3c-7.2-10.4-19.3-17.3-33.1-17.3H2217c-9.4,0-18,3.2-24.9,8.6v8.6L2261.9-915.3L2261.9-915.3z"/>
	<path class="st3" d="M2192-906.4h74.4c-1.2-3.2-2.7-6-4.6-8.8H2192V-906.4z"/>
	<path class="st6" d="M2192-923.9c-1.8,1.3-3.3,2.8-4.9,4.5c-0.1,0.1-0.2,0.2-0.2,0.4c-0.2,0.4-0.6,0.7-0.8,0.9
		c-0.1,0.1-0.2,0.2-0.4,0.4c-0.4,0.5-0.7,0.9-1.1,1.4c0,0,0,0,0,0.1c-0.2,0.4-0.5,0.7-0.7,1.1h8.1V-923.9L2192-923.9z"/>
	<path class="st6" d="M2192-906.4h-12.8c-1.5,4.1-2.5,8.5-2.6,13.3h15.3L2192-906.4L2192-906.4z"/>
	<path class="st3" d="M2192-915.3h-8.1c-1.9,2.7-3.4,5.7-4.6,8.8h12.8L2192-915.3L2192-915.3z"/>
	<path class="st6" d="M2192-915.3h-8.1c-1.9,2.7-3.4,5.7-4.6,8.8h12.8L2192-915.3L2192-915.3z"/>
	<g>
		<path class="st8" d="M2247-159.2v-31c0-11,8.8-19.9,19.7-19.9s19.7,8.9,19.7,19.9v31H2247z"/>
		<path class="st10" d="M2266.9-210.5c7.3,0,13.6,4,17.1,10c-3.6-3.8-8.6-6.2-14.2-6.2c-10.9,0-19.7,8.9-19.7,19.9v27.2h-2.8v-31
			C2247.2-201.6,2256.1-210.5,2266.9-210.5z"/>
	</g>
	<g>
		<path class="st8" d="M2131.4-433.8v-31c0-11,8.8-19.9,19.7-19.9s19.7,8.9,19.7,19.9v31H2131.4z"/>
		<path class="st10" d="M2151.4-485c7.3,0,13.6,4,17.1,10c-3.6-3.8-8.6-6.2-14.2-6.2c-10.9,0-19.7,8.9-19.7,19.9v27.2h-2.8v-31
			C2131.7-476.1,2140.5-485,2151.4-485z"/>
	</g>
	<path class="st6" d="M2192.1,169.7v-18c0,0-7.9,6.6-11.5,18H2192.1z"/>
	<g>
		<rect x="2202.7" y="-630.8" class="st3" width="34.8" height="30.8"/>
		<rect x="2208.8" y="-625.4" class="st1" width="22.6" height="20.1"/>
	</g>
	<path class="st9" d="M2658.3,422.1v32.3h-509.7v-53.2c0,0,169.3-56.9,174-60.8c4.7-3.9,93.4,4.1,112.7,6.8s52,14.7,54.7,17.3"/>
	<path class="st11" d="M2662.6,438.4c-4.4-15.8-8.1-32-14.3-47.2c-16.2-18.6-32-38-47.2-57.5c-6.3-7.8-12.8-15.8-22.5-19.4
		c-39.6-17.5-78.9-36.1-118.5-53.8c-23.3-5.2-47.7-1.1-71.6-1.8c-21.4,1.3-42.8-3.4-62.9-10.4c-17.1-5-33.5-12.1-51.1-13.4
		c-19.9,1.3-39.1,8.4-58.8,12.6c0,0.1-0.1,0.2-0.1,0.2h0.1c-10.3,25.1-22.2,49.3-34.8,73.2c-21.6,41.2-45.3,81.7-65.5,122
		c-0.5,0.9-0.9,2-1.5,3l12.3-3.4c7.5-2.6,14.9-5.3,22.4-8.1v20h509.7v-15C2659.7,439.1,2661.2,438.8,2662.6,438.4z"/>
	<path class="st9" d="M1778.1,386.3c-0.6,1.5-46.1,72.7-46.1,72.7l50.7,24.6l55.7-108.3"/>
</g>
</svg>
