<?xml version="1.0" encoding="utf-8"?>
<!-- Generator: Adobe Illustrator 19.0.0, SVG Export Plug-In . SVG Version: 6.00 Build 0)  -->
<svg version="1.1" id="Capa_1" xmlns="http://www.w3.org/2000/svg" xmlns:xlink="http://www.w3.org/1999/xlink" x="0px" y="0px"
	 viewBox="0 0 34 34" style="enable-background:new 0 0 34 34;" xml:space="preserve">
<style type="text/css">
	.st0{fill:#E9644B;}
	.st1{fill:#FFFFFF;}
	.st2{fill:#3FC0F0;}
	.st3{fill:#79CCF0;}
	.st4{fill:#1385C8;}
	.st5{fill:#696969;}
</style>
<g>
	<path class="st0" d="M-125.8,40c9.4,0,17-7.6,17-17c0-9.4-7.6-17-17-17c-9.4,0-17,7.6-17,17C-142.9,32.4-135.2,40-125.8,40"/>
	<path class="st1" d="M-122.5,23l-5.6,3.3v-6.5L-122.5,23z M-117.3,26v-6.1c0,0,0-2.9-2.9-2.9h-11.1c0,0-2.9,0-2.9,2.9V26
		c0,0,0,2.9,2.9,2.9h11.1C-120.3,29-117.3,29-117.3,26"/>
</g>
<g>
	<path class="st2" d="M114.9,25.8c9.4,0,17-7.6,17-17c0-9.4-7.6-17-17-17c-9.4,0-17,7.6-17,17C97.9,18.2,105.6,25.8,114.9,25.8"/>
	<path class="st1" d="M114.2,4.6c0.3,0.4,0.5,1,0.5,1.6c0,0.6-0.2,1.2-0.5,1.5c-0.2,0.2-0.4,0.4-0.8,0.6c0.5,0.2,0.9,0.5,1.2,0.9
		c0.3,0.4,0.4,0.9,0.4,1.5c0,0.6-0.2,1.2-0.5,1.7c-0.2,0.3-0.4,0.6-0.7,0.8c-0.3,0.3-0.7,0.4-1.2,0.5c-0.5,0.1-1,0.1-1.5,0.1h-4.7
		V3.4h5.1C112.8,3.5,113.7,3.8,114.2,4.6z M108.5,5.3v2.3h2.6c0.5,0,0.8-0.1,1.1-0.3c0.3-0.2,0.4-0.5,0.4-0.9c0-0.5-0.2-0.8-0.6-1
		c-0.3-0.1-0.7-0.2-1.2-0.2H108.5z M108.5,9.3v2.8h2.6c0.5,0,0.8-0.1,1.1-0.2c0.5-0.2,0.7-0.7,0.7-1.3c0-0.5-0.2-0.9-0.7-1.1
		c-0.3-0.1-0.6-0.2-1.1-0.2H108.5z M121.4,6.3c0.5,0.2,1,0.6,1.3,1.1c0.3,0.5,0.5,1,0.6,1.6c0.1,0.4,0.1,0.9,0.1,1.5h-5.7
		c0,0.8,0.3,1.3,0.8,1.6c0.3,0.2,0.7,0.3,1.1,0.3c0.5,0,0.8-0.1,1.1-0.4c0.2-0.1,0.3-0.3,0.4-0.5h2.1c-0.1,0.5-0.3,0.9-0.8,1.4
		c-0.7,0.8-1.7,1.1-2.9,1.1c-1,0-1.9-0.3-2.7-1c-0.8-0.6-1.2-1.7-1.2-3.1c0-1.3,0.4-2.4,1.1-3.1c0.7-0.7,1.6-1.1,2.8-1.1
		C120.3,6,120.9,6.1,121.4,6.3z M118.4,8.1c-0.3,0.3-0.5,0.7-0.5,1.2h3.5c0-0.5-0.2-0.9-0.5-1.2c-0.3-0.3-0.7-0.4-1.2-0.4
		C119.1,7.6,118.7,7.8,118.4,8.1z M121.8,3.9h-4.5v1.3h4.5V3.9z"/>
</g>
<g>
	<path class="st3" d="M-236.4,54.4c9.4,0,17-7.6,17-17c0-9.4-7.6-17-17-17c-9.4,0-17,7.6-17,17C-253.4,46.8-245.8,54.4-236.4,54.4"
		/>
	<path class="st1" d="M-227.8,32.9c-0.6,0.3-1.3,0.5-2,0.6c0.7-0.4,1.3-1.1,1.5-1.9c-0.7,0.4-1.4,0.7-2.2,0.8
		c-0.6-0.7-1.5-1.1-2.6-1.1c-1.9,0-3.5,1.6-3.5,3.5c0,0.3,0,0.5,0.1,0.8c-2.9-0.1-5.5-1.5-7.2-3.7c-0.3,0.5-0.5,1.1-0.5,1.8
		c0,1.2,0.6,2.3,1.6,2.9c-0.6,0-1.1-0.2-1.6-0.4v0c0,1.7,1.2,3.1,2.8,3.4c-0.3,0.1-0.6,0.1-0.9,0.1c-0.2,0-0.4,0-0.7-0.1
		c0.4,1.4,1.7,2.4,3.3,2.4c-1.2,0.9-2.7,1.5-4.3,1.5c-0.3,0-0.6,0-0.8,0c1.5,1,3.4,1.6,5.4,1.6c6.4,0,9.9-5.3,9.9-9.9
		c0-0.2,0-0.3,0-0.5C-228.9,34.2-228.3,33.6-227.8,32.9"/>
</g>
<g>
	<path class="st4" d="M17,34c9.4,0,17-7.6,17-17c0-9.4-7.6-17-17-17C7.6,0,0,7.6,0,17C0,26.4,7.6,34,17,34"/>
	<path class="st1" d="M12.2,24.1H8.9V13.5h3.3V24.1z M10.5,12.2L10.5,12.2c-1.2,0-2-0.8-2-1.8c0-1,0.8-1.8,2-1.8c1.2,0,2,0.8,2,1.8
		C12.5,11.4,11.8,12.2,10.5,12.2z M25.5,24.1h-3.8v-5.5c0-1.4-0.6-2.4-1.9-2.4c-1,0-1.5,0.7-1.8,1.3C18,17.7,18,18.1,18,18.4v5.7
		h-3.7c0,0,0-9.7,0-10.6H18v1.7c0.2-0.7,1.4-1.8,3.3-1.8c2.4,0,4.2,1.5,4.2,4.8V24.1z"/>
</g>
<g>
	<path class="st5" d="M-39.7,34c9.4,0,17-7.6,17-17c0-9.4-7.6-17-17-17c-9.4,0-17,7.6-17,17C-56.7,26.4-49,34-39.7,34"/>
	<path class="st1" d="M-34.4,8.5h-10.4c-1.8,0-3.3,1.5-3.3,3.3v3.5v7c0,1.8,1.5,3.3,3.3,3.3h10.4c1.8,0,3.3-1.5,3.3-3.3v-7v-3.5
		C-31.1,10-32.6,8.5-34.4,8.5z M-33.5,10.5l0.4,0v0.4v2.5l-2.9,0l0-2.9L-33.5,10.5z M-42.1,15.3c0.5-0.8,1.4-1.2,2.4-1.2
		s1.9,0.5,2.4,1.2c0.4,0.5,0.6,1.1,0.6,1.7c0,1.7-1.3,3-3,3c-1.7,0-3-1.3-3-3C-42.6,16.4-42.4,15.8-42.1,15.3z M-32.8,22.2
		c0,0.9-0.7,1.6-1.6,1.6h-10.4c-0.9,0-1.6-0.7-1.6-1.6v-7h2.5c-0.2,0.5-0.3,1.1-0.3,1.7c0,2.6,2.1,4.7,4.7,4.7
		c2.6,0,4.7-2.1,4.7-4.7c0-0.6-0.1-1.2-0.3-1.7h2.5V22.2z"/>
</g>
</svg>
