<?xml version="1.0" encoding="utf-8"?>
<!-- Generator: Adobe Illustrator 19.0.0, SVG Export Plug-In . SVG Version: 6.00 Build 0)  -->
<svg version="1.1" id="Layer_1" xmlns="http://www.w3.org/2000/svg" xmlns:xlink="http://www.w3.org/1999/xlink" x="0px" y="0px"
	 viewBox="-470 378 250.1 86.9" style="enable-background:new -470 378 250.1 86.9;" xml:space="preserve">
<style type="text/css">
	.st0{fill:#FFFFFF;}
	.st1{fill:none;}
</style>
<rect id="XMLID_100_" x="-464.5" y="383.4" class="st0" width="56.1" height="55.9"/>
<rect id="XMLID_99_" x="-425.7" y="412.2" class="st0" width="196.6" height="43.3"/>
<polygon id="XMLID_98_" class="st1" points="-425.7,439.5 -425.7,455.5 -281.7,455.5 -281.7,412.2 -408.4,412.2 -408.4,439.5 "/>
<path id="XMLID_95_" d="M-464.5,383.4v56.1h29.7h4h1.1h4h17.4v-27.3v-4v-1.3v-4v-19.5H-464.5z M-412.4,406.9v1.3v4v23.3h-13.3h-4
	h-1.1h-4h-25.7v-48.1h48.1v15.5V406.9z"/>
<polygon id="XMLID_94_" points="-229.2,408.2 -277.7,408.2 -408.4,408.2 -408.4,412.2 -286.9,412.2 -281.7,412.2 -277.7,412.2 
	-229.2,412.2 -229.2,455.5 -277.7,455.5 -425.7,455.5 -425.7,439.5 -429.7,439.5 -429.7,459.5 -286.9,459.5 -277.7,459.5 
	-229.2,459.5 -225.2,459.5 -225.2,455.5 -225.2,412.2 -225.2,408.2 "/>
<path d="M-223.9,402.9h-56.6H-345h-58.1v-1.3v-3.5v-2.5v-0.9v-4.4v-1v-2.4v-0.1v-3.4V382v-4h-3.9h-0.1h-4.6H-470v50.3v7.8v4.8v4h4
	h9.4h3.2h3.9h9.5h3.2h2v6.8v1.8v2.8v1.2v0.5v1.3v1.6v0.8v2.1v1.1h87.4h39.2h84.3h3.1h0.9v-4v-54v-4H-223.9z M-223.9,460.9h-84.3
	h-39.2h-83.4v-1.6V458v-0.5v-1.2v-2.8v-1.8v-10.8h-4h-2h-3.2h-9.5h-3.9h-3.2h-9.4v-4.8v-7.8V382h54.3h4.6v1.4v3.4v0.1v2.4v1v4.4v0.9
	v2.5v3.5v1.3v4h4h58.1h64.5h56.6V460.9z"/>
<g id="XMLID_79_">
	<path id="XMLID_82_" d="M-454.9,419.5l6.4-16.1h3.2l6.4,16.1h-3.4l-1-2.5h-7.3l-1,2.5H-454.9z M-446.8,407.7l-2.4,6.1h4.8
		L-446.8,407.7z"/>
	<path id="XMLID_80_" d="M-436.5,419.5v-16.1h1.1l7,7.9l7-7.9h1.1v16.1h-3.2v-9.3l-4.8,5.4l-4.8-5.4v9.3H-436.5z"/>
</g>
<g id="XMLID_53_">
	<path id="XMLID_77_" d="M-393.5,440.2c-1.7-1.7-2.5-3.8-2.5-6.3s0.9-4.6,2.5-6.3c1.7-1.7,3.8-2.5,6.3-2.5s4.7,0.8,6.5,2.4l-2.4,2.5
		c-1.2-0.9-2.6-1.4-4.1-1.4c-1.6,0-2.9,0.5-3.8,1.5c-1,1-1.5,2.2-1.5,3.8c0,1.6,0.5,2.9,1.5,3.9s2.3,1.5,3.8,1.5
		c1.6,0,3-0.5,4.1-1.4l2.4,2.6c-1.8,1.6-4,2.4-6.5,2.4C-389.8,442.7-391.8,441.9-393.5,440.2z"/>
	<path id="XMLID_74_" d="M-366.3,435l4.4,7.7h-4.1l-4.2-7.3h-3.2v7.3h-3.5V425h7.7c4.1,0,6.2,1.7,6.2,5.1
		C-363,432.7-364.1,434.3-366.3,435z M-373.4,432.1h5c1.4,0,2.2-0.7,2.2-1.9s-0.8-1.8-2.2-1.8h-5V432.1z"/>
	<path id="XMLID_72_" d="M-360.1,442.7v-17.6h13v3.3h-9.5v3.8h7.1v3.3h-7.1v4h9.4v3.3h-12.9V442.7z"/>
	<path id="XMLID_69_" d="M-344.5,442.7l7.1-17.7h3.5l7.1,17.7h-3.8l-1.1-2.7h-8l-1.1,2.7H-344.5z M-335.5,429.8l-2.7,6.7h5.3
		L-335.5,429.8z"/>
	<path id="XMLID_67_" d="M-309.7,425v3.3h-5.9v14.4h-3.5v-14.3h-5.9V425H-309.7z"/>
	<path id="XMLID_65_" d="M-307.1,425h3.5v17.7h-3.5V425z"/>
	<path id="XMLID_60_" d="M-298.3,440.2c-1.7-1.7-2.5-3.8-2.5-6.3s0.8-4.6,2.5-6.3c1.7-1.7,3.8-2.5,6.3-2.5s4.6,0.8,6.3,2.5
		c1.7,1.7,2.5,3.8,2.5,6.3s-0.8,4.6-2.5,6.3c-1.7,1.7-3.8,2.5-6.3,2.5C-294.6,442.7-296.7,441.9-298.3,440.2z M-292,439.4
		c1.6,0,2.8-0.5,3.8-1.6s1.5-2.4,1.5-4s-0.5-2.9-1.5-4s-2.3-1.6-3.8-1.6c-1.6,0-2.8,0.5-3.8,1.6s-1.5,2.4-1.5,4s0.5,2.9,1.5,4
		S-293.6,439.4-292,439.4z"/>
	<path id="XMLID_58_" d="M-280.6,442.7V425h1.2l11.1,11.1V425h3.5v17.7h-1.3l-11-11v11H-280.6z"/>
	<path id="XMLID_54_" d="M-251.5,425.6c0.9,0.4,1.8,1,2.5,1.8l-2.4,2.4c-0.8-0.9-1.9-1.4-3.3-1.4c-1.4,0-2.3,0.3-2.7,1
		c-0.4,0.7-0.4,1.2,0,1.7s1.3,0.8,2.7,1.1c1.5,0.2,2.9,0.6,4.1,1.5c1.2,0.8,1.8,2.1,1.8,4c0,1.4-0.7,2.6-2,3.7
		c-1.3,1-2.8,1.5-4.5,1.5c-1.6,0-3-0.2-4.1-0.7s-2-1.1-2.8-1.9l2.4-2.4c0.8,0.9,2.1,1.5,4,1.7c1.6,0,2.6-0.3,2.9-1
		c0.4-0.7,0.4-1.3,0-2c-0.4-0.7-1.4-1.1-2.9-1.2c-1.4-0.2-2.7-0.6-3.9-1.3c-1.2-0.7-1.8-1.9-1.8-3.7c0-1.6,0.7-2.8,2-3.8
		c1.3-0.9,2.7-1.4,4.1-1.4C-253.7,425-252.4,425.2-251.5,425.6z"/>
</g>
<image style="overflow:visible;" width="1920" height="1080" xlink:href="8548F97C.jpg"  transform="matrix(1 0 0 1 -56 -81.12)">
</image>
</svg>
