<?xml version="1.0" encoding="utf-8"?>
<!-- Generator: Adobe Illustrator 19.0.0, SVG Export Plug-In . SVG Version: 6.00 Build 0)  -->
<svg version="1.1" xmlns="http://www.w3.org/2000/svg" xmlns:xlink="http://www.w3.org/1999/xlink" x="0px" y="0px"
	 viewBox="0 0 769.8 644.9" style="enable-background:new 0 0 769.8 644.9;" xml:space="preserve">
<style type="text/css">
	.st0{fill-rule:evenodd;clip-rule:evenodd;fill:#4378B5;}
	.st1{fill-rule:evenodd;clip-rule:evenodd;fill:#FCE851;}
	.st2{fill-rule:evenodd;clip-rule:evenodd;fill:#FCC205;}
	.st3{fill-rule:evenodd;clip-rule:evenodd;fill:#FFFFFF;}
	.st4{fill-rule:evenodd;clip-rule:evenodd;fill:#EF7517;}
	.st5{fill-rule:evenodd;clip-rule:evenodd;fill:#E6E6E6;}
	.st6{fill:#EF7517;}
	.st7{fill:#FF9747;}
	.st8{fill-rule:evenodd;clip-rule:evenodd;fill:#FF9747;}
	.st9{fill-rule:evenodd;clip-rule:evenodd;fill:#6695CC;}
	.st10{fill:#FF984A;}
	.st11{fill-rule:evenodd;clip-rule:evenodd;fill:#FF984A;}
	.st12{fill-rule:evenodd;clip-rule:evenodd;fill:#5FBA6B;}
	.st13{fill-rule:evenodd;clip-rule:evenodd;fill:#818A8C;}
	.st14{fill-rule:evenodd;clip-rule:evenodd;fill:#97A1A3;}
	.st15{fill-rule:evenodd;clip-rule:evenodd;fill:#CCD3D4;}
	.st16{fill-rule:evenodd;clip-rule:evenodd;fill:#216E2B;}
	.st17{fill-rule:evenodd;clip-rule:evenodd;fill:#2C8238;}
	.st18{fill-rule:evenodd;clip-rule:evenodd;fill:#3A9E48;}
	.st19{fill-rule:evenodd;clip-rule:evenodd;fill:#734325;}
	.st20{fill-rule:evenodd;clip-rule:evenodd;fill:#8C5D3F;}
	.st21{fill-rule:evenodd;clip-rule:evenodd;fill:#99CF3C;}
	.st22{fill-rule:evenodd;clip-rule:evenodd;fill:#B5E85D;}
	.st23{fill-rule:evenodd;clip-rule:evenodd;fill:#E3E3E3;}
	.st24{fill-rule:evenodd;clip-rule:evenodd;fill:#FFD3CD;}
	.st25{fill-rule:evenodd;clip-rule:evenodd;fill:#FEFEFE;}
	.st26{fill-rule:evenodd;clip-rule:evenodd;fill:#BF6A7E;}
	.st27{fill-rule:evenodd;clip-rule:evenodd;fill:#CCF0F7;}
	.st28{fill-rule:evenodd;clip-rule:evenodd;fill:#C7AC71;}
	.st29{fill:#ABD2FF;}
</style>
<g id="Background">
</g>
<g id="Objects_1_">
	<g>
		<path class="st0" d="M769.8,583.1c0,22.5-13.9,61.8-51.3,61.8H51.3C13.9,644.9,0,605.6,0,583.1H769.8z"/>
	</g>
	<g>
		<g>
			<path class="st1" d="M133.4,113.6c22.7,0,41.2-18.5,41.2-41.2c0-22.7-18.5-41.2-41.2-41.2S92.3,49.8,92.3,72.4
				C92.3,95.1,110.8,113.6,133.4,113.6z"/>
		</g>
		<g>
			<path class="st1" d="M133.4,0l6.2,23.2c-2-0.3-4.1-0.4-6.2-0.4c-2.1,0-4.2,0.1-6.2,0.4L133.4,0L133.4,0z M157.4,28.9L176,13.8
				l-8.6,22.4C164.4,33.4,161,30.9,157.4,28.9L157.4,28.9z M178.4,51.3l24-1.2l-20.1,13.1C181.4,59,180.1,55,178.4,51.3L178.4,51.3z
				 M182.2,81.7l20.1,13.1l-24-1.2C180.1,89.9,181.4,85.9,182.2,81.7L182.2,81.7z M167.4,108.6L176,131l-18.6-15.1
				C161,113.9,164.4,111.5,167.4,108.6L167.4,108.6z M139.7,121.7l-6.2,23.2l-6.2-23.2c2,0.3,4.1,0.4,6.2,0.4
				C135.5,122.1,137.6,122,139.7,121.7L139.7,121.7z M109.5,115.9L90.9,131l8.6-22.4C102.5,111.5,105.9,113.9,109.5,115.9
				L109.5,115.9z M88.5,93.6l-24,1.2l20.1-13.1C85.5,85.9,86.8,89.9,88.5,93.6L88.5,93.6z M84.7,63.1L64.6,50.1l24,1.2
				C86.8,55,85.5,59,84.7,63.1L84.7,63.1z M99.5,36.2l-8.6-22.4l18.6,15.1C105.9,30.9,102.5,33.4,99.5,36.2z"/>
		</g>
		<g>
			<path class="st2" d="M133.4,101.1c15.8,0,28.7-12.9,28.7-28.7c0-15.8-12.9-28.7-28.7-28.7c-15.8,0-28.7,12.9-28.7,28.7
				C104.7,88.2,117.6,101.1,133.4,101.1z"/>
		</g>
	</g>
	<g>
		<g>
			<path class="st3" d="M324.4,73.3c17.8,0,32.3-10.5,32.3-23.4c0-12.9-14.5-23.4-32.3-23.4c-17.8,0-32.3,10.5-32.3,23.4
				C292.1,62.8,306.6,73.3,324.4,73.3z"/>
		</g>
		<g>
			<path class="st3" d="M292.4,84.4c13.6,0,24.7-8,24.7-17.9S306,48.6,292.4,48.6c-13.6,0-24.7,8-24.7,17.9S278.8,84.4,292.4,84.4z"
				/>
		</g>
		<g>
			<path class="st3" d="M361.5,76.1c12.1,0,21.9-7.1,21.9-15.9s-9.9-15.9-21.9-15.9c-12.1,0-21.9,7.1-21.9,15.9
				S349.4,76.1,361.5,76.1z"/>
		</g>
		<g>
			<path class="st3" d="M329.7,97.5c15.9,0,28.9-9.4,28.9-20.9c0-11.5-13-20.9-28.9-20.9c-15.9,0-28.9,9.4-28.9,20.9
				C300.8,88.1,313.8,97.5,329.7,97.5z"/>
		</g>
	</g>
	<g>
		<g>
			<path class="st4" d="M367.5,71.1c-21.3,0-38.6,17.3-38.6,38.6c0,17.7,15,33,25.2,47h14.6h1.6h10.6c9.7-13.3,25.1-29.5,25.1-47
				C406.1,88.4,388.8,71.1,367.5,71.1z"/>
		</g>
		<g>
			<path class="st5" d="M367.5,71.1c-15.7,0-28.5,17.3-28.5,38.6c0,17.7,11.1,33,18.6,47h10.8h1.2h7.8c7.2-13.3,18.5-29.5,18.5-47
				C396,88.4,383.2,71.1,367.5,71.1z"/>
		</g>
		<g>
			<path class="st4" d="M367.5,71.1c-9.3,0-16.8,17.3-16.8,38.6c0,17.7,6.6,33,11,47c3.9,0,7.8,0,11.7,0c4.2-13.3,11-29.5,11-47
				C384.3,88.4,376.8,71.1,367.5,71.1z"/>
		</g>
		<g>
			<path class="st5" d="M367.5,71.1c-3.2,0-5.9,17.3-5.9,38.6c0,17.7,2.3,33,3.8,47h2.2h0.2h1.6c1.5-13.3,3.8-29.5,3.8-47
				C373.4,88.4,370.7,71.1,367.5,71.1z"/>
		</g>
		<g>
			<polygon class="st4" points="354.1,156.6 354.1,167 380.9,167 380.9,156.6 370.4,156.6 368.7,156.6 			"/>
		</g>
		<g>
			<path class="st0" d="M358.9,189v12.3c0,0.9,0.6,1.6,1.4,1.6h14.5c0.7,0,1.4-0.7,1.4-1.6V189h-6.8h-1H358.9z"/>
		</g>
		<g>
			<path class="st6" d="M379.6,166.7l-4.4,22.3l1,0.1l4.8-22.2L379.6,166.7L379.6,166.7z M366.8,166.9V189h1.4v-22.2H366.8
				L366.8,166.9z M354.1,167l4.8,22.2l1-0.2l-4.4-22.2L354.1,167z"/>
		</g>
		<g>
			<path class="st7" d="M367.5,189v-22.2h-0.7V189H367.5L367.5,189z M354.1,167l4.8,22.2l1-0.1l-4.4-22.3L354.1,167z"/>
		</g>
		<g>
			<path class="st6" d="M371.4,192.4c-1.5,0-2.9-0.5-4-1.4c-1.3,1.1-2.9,1.6-4.6,1.4c-2.1-0.2-4.1-1.4-4.7-2.7l2.5-1.2
				c0.1,0.3,1.1,1.1,2.5,1.2c1.3,0.1,2.4-0.4,3.2-1.5l1.1-1.4l1.1,1.4c0.8,1.1,1.9,1.6,3.3,1.5c1.5-0.1,2.5-0.9,2.7-1.2l2.5,1.2
				c-0.7,1.3-2.7,2.5-4.8,2.7C371.9,192.4,371.7,192.4,371.4,192.4z"/>
		</g>
		<g>
			<path class="st4" d="M367.9,189h-0.8c-0.6,1.2-1.5,2.7-1.9,4.4c-0.5,2,1,3.3,2.3,3.3c1.3,0,2.8-1.3,2.3-3.3
				C369.4,191.7,368.5,190.2,367.9,189z"/>
		</g>
		<g>
			<path class="st4" d="M359.3,189h-0.4v7.8c1.3,0,2.8-1.3,2.3-3.3C360.8,191.7,359.9,190.2,359.3,189z"/>
		</g>
		<g>
			<path class="st4" d="M375.8,188.7l0.3,0.3v7.8c-1.3,0-2.8-1.3-2.3-3.3C374.3,191.7,375.3,189.9,375.8,188.7z"/>
		</g>
		<g>
			<path class="st8" d="M367.5,71.1c-21.3,0-38.6,17.3-38.6,38.6c0,17.7,15,33,25.2,47h13.4C364.2,128.1,364.6,99.6,367.5,71.1z"/>
		</g>
		<g>
			<path class="st3" d="M367.5,71.1c-15.7,0-28.5,17.3-28.5,38.6c0,17.7,11.1,33,18.6,47h9.9V71.1z"/>
		</g>
		<g>
			<path class="st8" d="M367.5,71.1c-9.3,0-16.8,17.3-16.8,38.6c0,17.7,6.6,33,11,47h5.9C360.5,128.1,361.7,99.6,367.5,71.1z"/>
		</g>
		<g>
			<path class="st3" d="M367.5,71.1c-3.2,0-5.9,17.3-5.9,38.6c0,17.7,2.3,33,3.8,47h2V71.1z"/>
		</g>
		<g>
			<rect x="354.1" y="156.6" class="st8" width="13.4" height="10.5"/>
		</g>
		<g>
			<path class="st9" d="M358.9,189v12.3c0,0.9,0.6,1.6,1.4,1.6h7.3c0-2.3,0-3.9,0-6.2c-0.7-2.4-0.8-5.5,0-7.8H358.9z"/>
		</g>
		<g>
			<path class="st10" d="M358.9,189.2c0.2,0.4,0.5,0.7,0.9,1c0.7,0.5,1.6,1,2.6,1.1c1.1,0.2,2.2,0.1,3.3-0.4c0.7-0.4,1-1,1.6-1.8
				l0.1-0.2v-1.1l-0.5,0.8c-0.5,0.7-1.1,1.1-1.7,1.4c-0.9,0.4-1.9,0.5-2.7,0.3c-0.9-0.2-1.7-0.5-2.2-1c-0.3-0.2-0.5-0.5-0.6-0.7
				L358.9,189.2z"/>
		</g>
		<g>
			<g>
				<path class="st11" d="M367.5,189h-0.4c-0.6,1.2-1.5,2.7-1.9,4.4c-0.5,2,1,3.3,2.3,3.3V189z"/>
			</g>
			<g>
				<path class="st11" d="M359.1,188.7l-0.2,0.3v7.8c1.3,0,2.8-1.3,2.3-3.3C360.8,191.7,359.7,189.9,359.1,188.7z"/>
			</g>
		</g>
	</g>
	<g>
		<path class="st12" d="M0,525.4c256.6,0,513.2,0,769.8,0v57.8H0V525.4z"/>
	</g>
	<g>
		<g>
			<polygon class="st13" points="726.4,525.4 556.6,259.4 480.5,266.4 452.2,258.6 281.9,525.4 			"/>
		</g>
		<g>
			<polygon class="st14" points="411.5,525.4 480.5,266.4 452.2,258.6 281.9,525.4 			"/>
		</g>
		<g>
			<polygon class="st15" points="480.5,266.4 556.6,259.4 504.2,177.3 			"/>
		</g>
		<g>
			<polygon class="st3" points="504.2,177.3 452.2,258.6 480.5,266.4 			"/>
		</g>
	</g>
	<g>
		<g>
			<polygon class="st13" points="473.4,525.4 306,189.9 230.9,198.7 203,188.9 35.1,525.4 			"/>
		</g>
		<g>
			<polygon class="st14" points="162.9,525.4 230.9,198.7 203,188.9 35.1,525.4 			"/>
		</g>
		<g>
			<polygon class="st15" points="230.9,198.7 306,189.9 254.2,86.4 			"/>
		</g>
		<g>
			<polygon class="st3" points="254.2,86.4 203,188.9 230.9,198.7 			"/>
		</g>
	</g>
	<g>
		<g>
			<path class="st16" d="M419.4,373.8c-123.3,0-227.7,63.6-263.5,151.6h527C647.1,437.4,542.7,373.8,419.4,373.8z"/>
		</g>
		<g>
			<path class="st17" d="M416,373.8c-121.7,1.2-224.5,64.4-260,151.5h255.5C452.6,451.9,461,391.5,416,373.8z"/>
		</g>
	</g>
	<g>
		<g>
			<path class="st18" d="M563.4,458.6c-96.4,0-178.1,28-206.4,66.8h412.9C741.4,486.6,659.8,458.6,563.4,458.6z"/>
		</g>
		<g>
			<path class="st12" d="M563.4,458.6c-96.4,0-178.1,28-206.4,66.8h258.6C616.1,492.1,596.7,470.5,563.4,458.6z"/>
		</g>
	</g>
	<g>
		<g>
			<path class="st18" d="M223.8,425.9c-104.5,0-193,42.3-223.8,100.8h447.5C416.8,468.2,328.2,425.9,223.8,425.9z"/>
		</g>
		<g>
			<path class="st12" d="M223.8,425.9c-104.5,0-193,42.3-223.8,100.8h280.4C280.9,476.6,259.9,443.9,223.8,425.9z"/>
		</g>
	</g>
	<g>
		<g>
			<path class="st19" d="M250.9,427.7h7.1V453c-2.5,1.8-4.9,2-7.1,0V427.7z"/>
		</g>
		<g>
			<path class="st20" d="M254.5,427.7h3.6V453c-1.2,0.9-2.4,1.4-3.6,1.4V427.7z"/>
		</g>
		<g>
			<ellipse class="st21" cx="254.5" cy="404.3" rx="20.4" ry="33"/>
		</g>
		<g>
			<path class="st22" d="M255.1,371.3c11,0.5,19.9,15.1,19.9,33c0,18.2-9.2,33-20.4,33c-6-12.7-6.7-51.4,0-66
				C254.7,371.3,254.9,371.3,255.1,371.3z"/>
		</g>
	</g>
	<g>
		<g>
			<path class="st19" d="M319.1,388.1h4.3v15.1c-1.5,1.1-2.9,1.2-4.3,0V388.1z"/>
		</g>
		<g>
			<path class="st20" d="M321.3,388.1h2.1v15.1c-0.7,0.5-1.4,0.8-2.1,0.8V388.1z"/>
		</g>
		<g>
			<ellipse class="st21" cx="321.3" cy="374.1" rx="12.2" ry="19.7"/>
		</g>
		<g>
			<path class="st22" d="M321.6,354.4c6.6,0.3,11.9,9,11.9,19.7c0,10.9-5.5,19.7-12.2,19.7c-3.6-7.6-4-30.7,0-39.4
				C321.4,354.4,321.5,354.4,321.6,354.4z"/>
		</g>
	</g>
	<g>
		<g>
			<path class="st19" d="M616.6,457.1h9.5v19.1c-3.4,1.4-6.6,1.5-9.5,0V457.1z"/>
		</g>
		<g>
			<path class="st20" d="M621.3,457.1h4.8v19.1c-1.6,0.7-3.2,1-4.8,1.1V457.1z"/>
		</g>
		<g>
			<path class="st21" d="M621.3,362.9c17.6,28,27.5,59.4,27.6,95.2c-18,5.8-36.4,6.3-55.2,0C595.5,426.4,606,394.6,621.3,362.9z"/>
		</g>
		<g>
			<path class="st22" d="M621.3,362.9c17.6,28,27.5,59.4,27.6,95.2c-9.1,2.9-18.3,4.5-27.6,4.5C619.1,450.5,618.5,391,621.3,362.9z"
				/>
		</g>
	</g>
	<g>
		<g>
			<path class="st19" d="M384.7,428.3h6.8V442c-2.4,1-4.7,1.1-6.8,0V428.3z"/>
		</g>
		<g>
			<path class="st20" d="M388.1,428.3h3.4V442c-1.2,0.5-2.3,0.7-3.4,0.8V428.3z"/>
		</g>
		<g>
			<path class="st21" d="M388.1,360.9c12.6,20,19.7,42.5,19.8,68.1c-12.9,4.1-26.1,4.5-39.5,0C369.6,406.3,377.1,383.6,388.1,360.9z
				"/>
		</g>
		<g>
			<path class="st22" d="M388.1,360.9c12.6,20,19.7,42.5,19.8,68.1c-6.5,2.1-13.1,3.2-19.8,3.3C386.5,423.6,386.1,381,388.1,360.9z"
				/>
		</g>
	</g>
	<g>
		<g>
			<path class="st19" d="M424.9,381.5h4.9v9.8c-1.7,0.7-3.4,0.8-4.9,0V381.5z"/>
		</g>
		<g>
			<path class="st20" d="M427.4,381.5h2.4v9.8c-0.8,0.3-1.7,0.5-2.4,0.5V381.5z"/>
		</g>
		<g>
			<path class="st21" d="M427.4,333.1c9,14.4,14.1,30.5,14.2,48.8c-9.3,3-18.7,3.3-28.3,0C414.1,365.7,419.5,349.4,427.4,333.1z"/>
		</g>
		<g>
			<path class="st22" d="M427.4,333.1c9,14.4,14.1,30.5,14.2,48.8c-4.7,1.5-9.4,2.3-14.2,2.3C426.2,378,425.9,347.5,427.4,333.1z"/>
		</g>
	</g>
	<g>
		<g>
			<path class="st19" d="M559.5,481.3h12.3v43.6c-4.3,3.1-8.5,3.4-12.3,0V481.3z"/>
		</g>
		<g>
			<path class="st20" d="M565.6,481.3h6.1v43.6c-2.1,1.5-4.2,2.4-6.1,2.4V481.3z"/>
		</g>
		<g>
			<ellipse class="st21" cx="565.6" cy="452.1" rx="43.6" ry="45.8"/>
		</g>
		<g>
			<path class="st22" d="M566.8,406.3c23.6,0.7,42.5,20.9,42.5,45.7c0,25.3-19.5,45.8-43.6,45.8c-12.7-17.6-14.3-71.3,0-91.5
				C566,406.3,566.4,406.3,566.8,406.3z"/>
		</g>
	</g>
	<g>
		<g>
			<path class="st19" d="M494.6,393.2h6.5v23.2c-2.3,1.7-4.5,1.8-6.5,0V393.2z"/>
		</g>
		<g>
			<path class="st20" d="M497.9,393.2h3.3v23.2c-1.1,0.8-2.2,1.3-3.3,1.3V393.2z"/>
		</g>
		<g>
			<path class="st21" d="M497.9,353.3c12.8,0,23.2,10.9,23.2,24.4c0,13.5-10.4,24.4-23.2,24.4c-12.8,0-23.2-10.9-23.2-24.4
				C474.6,364.2,485,353.3,497.9,353.3z"/>
		</g>
		<g>
			<path class="st22" d="M498.5,353.3c12.5,0.4,22.6,11.1,22.6,24.4c0,13.5-10.4,24.4-23.2,24.4c-6.8-9.4-7.6-38,0-48.7
				C498.1,353.3,498.3,353.3,498.5,353.3z"/>
		</g>
	</g>
	<g>
		<g>
			<path class="st19" d="M287.1,456.9c0,0-1.3-0.5-2.8-0.5c-1.5,0-3.4,0.5-4.2,2.6c-0.4,0.9-0.5,1.8-0.5,2.7c0,1.9,0.6,3.7,0.6,5.5
				c0,0.9-0.2,1.9-0.6,2.8l0.2,0.4l0.4-0.2c0.5-1.1,0.7-2.1,0.7-3.1c0-1.9-0.6-3.7-0.6-5.5c0-0.8,0.1-1.6,0.4-2.5
				c0.7-1.8,2.2-2.2,3.6-2.2c0.7,0,1.3,0.1,1.8,0.2c0.5,0.1,0.8,0.2,0.8,0.2l0.4-0.2L287.1,456.9z"/>
		</g>
		<g>
			<path class="st23" d="M301.2,479.4c0,1.2-0.8,2.1-1.7,2.1c-0.9,0-1.7-1-1.7-2.1v-9.6c0-1.2,0.8-2.1,1.7-2.1c0.9,0,1.7,1,1.7,2.1
				V479.4z"/>
		</g>
		<g>
			<path class="st23" d="M308.7,479.4c0,1.2-0.7,2.1-1.6,2.1c-0.9,0-1.6-1-1.6-2.1v-9.6c0-1.2,0.7-2.1,1.6-2.1c0.9,0,1.6,1,1.6,2.1
				V479.4z"/>
		</g>
		<g>
			<path class="st24" d="M304.2,470.9c0,4-3.2,7.2-7.2,7.2c-4,0-7.2-3.2-7.2-7.2c0-4,3.2-7.2,7.2-7.2
				C300.9,463.7,304.2,466.9,304.2,470.9z"/>
		</g>
		<g>
			<path class="st24" d="M300.4,477.8c0,0.4-0.3,0.7-0.7,0.7c-0.4,0-0.7-0.3-0.7-0.7v-1.1c0-0.4,0.3-0.7,0.7-0.7
				c0.4,0,0.7,0.3,0.7,0.7V477.8z"/>
		</g>
		<g>
			<path class="st24" d="M297.2,478.6c0,0.4-0.3,0.7-0.7,0.7c-0.4,0-0.7-0.3-0.7-0.7v-1.1c0-0.4,0.3-0.7,0.7-0.7
				c0.4,0,0.7,0.3,0.7,0.7V478.6z"/>
		</g>
		<g>
			<path class="st25" d="M316.6,481.1c0,1.2-0.7,2.1-1.6,2.1c-0.9,0-1.6-1-1.6-2.1v-9.6c0-1.2,0.7-2.1,1.6-2.1
				c0.9,0,1.6,0.9,1.6,2.1V481.1z"/>
		</g>
		<g>
			<path class="st25" d="M294.4,481.1c0,1.2-0.8,2.1-1.7,2.1c-1,0-1.7-1-1.7-2.1v-9.6c0-1.2,0.8-2.1,1.7-2.1c1,0,1.7,0.9,1.7,2.1
				V481.1z"/>
		</g>
		<g>
			<path class="st25" d="M321.5,462.6c0,6.3-5.5,11.4-12.4,11.4l-11.9,0c-6.8,0-12.4-5.1-12.4-11.4c0-6.3,5.5-11.4,12.4-11.4h11.9
				C315.9,451.2,321.5,456.3,321.5,462.6z"/>
		</g>
		<g>
			<path class="st19" d="M293.8,451.6c-0.8,2.2-2,4.6-0.7,6.7c2.3,3.3,5.1,0.1,8.2,0.6c2.2,0.4,2.5,1.4,4.8,0.6
				c1.5-0.6,3.4-2.1,4-3.3c0.6-1.2,0.7-3.5-0.2-5c-0.2,0-0.5,0-0.7,0h-11.9C296,451.2,294.8,451.3,293.8,451.6z"/>
		</g>
		<g>
			<path class="st19" d="M297.7,474.1c0.4-1.8-2.2-2.5-2.6-4.3c-0.3-1.6,0.6-2.2-0.8-3.4c-1-0.8-2.9-1.4-4.2-1.3
				c-1.2,0.1-3.1,0.9-4.3,2c1.9,4.1,6.3,7,11.4,7H297.7z"/>
		</g>
		<g>
			<path class="st19" d="M305.7,474.1c-1.6-2-2.4-5.5,0.2-6.7c2.7-1.2,2.8,1.5,4.2-1.7c0.6-1.1,2-2,3.7-1.8c2.5,0.2,3.1,1.4,4.7,4.7
				c0.2,0.4,0.3,0.9,0.3,1.3c-2.3,2.6-5.7,4.3-9.6,4.3H305.7z"/>
		</g>
		<g>
			<path class="st23" d="M326.3,453.1c0,0,4.4-1.2,3.4-5.7c0,0,3.5,5.7-1.9,7.6L326.3,453.1z"/>
		</g>
		<g>
			<path class="st23" d="M317.9,453.8c0,0-4.4-1.2-3.4-5.7c0,0-3.5,5.7,1.9,7.6L317.9,453.8z"/>
		</g>
		<g>
			<path class="st19" d="M317.4,462.6v-7c0-2.8,2.2-5,5-5c2.8,0,5,2.2,5,5v7H317.4z"/>
		</g>
		<g>
			<path class="st19" d="M328.3,452.9c0,1.3-1,2.3-2.3,2.3l-7,0c-1.3,0-2.3-1-2.3-2.3c0-1.3,1-2.3,2.3-2.3h7
				C327.2,450.6,328.3,451.6,328.3,452.9z"/>
		</g>
		<g>
			<path class="st19" d="M330.7,458.1c0.5,0.7,0.2,1.7-0.5,2.1c-0.7,0.5-1.7,0.2-2.1-0.5l-2.2-3.5c-0.5-0.7-0.2-1.7,0.5-2.1
				c0.7-0.5,1.7-0.2,2.1,0.5L330.7,458.1z"/>
		</g>
		<g>
			<path class="st19" d="M312.8,459.5c-0.5,0.9-0.3,2,0.6,2.6c0.9,0.5,2,0.3,2.6-0.6l2.6-4.2c0.5-0.9,0.3-2-0.6-2.6
				c-0.9-0.5-2-0.3-2.6,0.6L312.8,459.5z"/>
		</g>
		<g>
			<path class="st24" d="M327.4,463c0,1.8-1.6,3.3-3.6,3.3l-2.8,0c-2,0-3.6-1.5-3.6-3.3c0-1.8,1.6-3.3,3.6-3.3h2.8
				C325.8,459.7,327.4,461.2,327.4,463z"/>
		</g>
		<g>
			<polygon class="st26" points="321.5,464.5 321.2,464.8 320.9,464.5 320.9,464 321.2,463.7 321.5,464 			"/>
		</g>
		<g>
			<polygon class="st26" points="323.9,464.5 323.6,464.8 323.3,464.5 323.3,464 323.6,463.7 323.9,464 			"/>
		</g>
	</g>
	<g>
		<g>
			<path class="st3" d="M581.6,171.3c23.6,0,42.8-13.9,42.8-31c0-17.1-19.2-31-42.8-31c-23.6,0-42.8,13.9-42.8,31
				C538.8,157.3,558,171.3,581.6,171.3z"/>
		</g>
		<g>
			<path class="st3" d="M546.9,147c18.1,0,32.8-10.7,32.8-23.7c0-13.1-14.7-23.7-32.8-23.7c-18.1,0-32.8,10.7-32.8,23.7
				C514.1,136.4,528.8,147,546.9,147z"/>
		</g>
		<g>
			<path class="st3" d="M621.9,145.2c16,0,29.1-9.5,29.1-21c0-11.6-13.1-21-29.1-21c-16,0-29.1,9.5-29.1,21
				C592.8,135.7,605.8,145.2,621.9,145.2z"/>
		</g>
		<g>
			<path class="st3" d="M595,125.1c11.6,0,21.1-6.9,21.1-15.3s-9.5-15.3-21.1-15.3c-11.6,0-21.1,6.9-21.1,15.3
				S583.4,125.1,595,125.1z"/>
		</g>
	</g>
	<g>
		<path class="st0" d="M392.3,468.7c39.9,21.6,74,56.6,55.3,56.6c-19,0-40.5,27.2-41.4,57.6c0,1.4-34.9,24.7-42.6,0.2
			c-1.2-32.2,8.4-57.8,28.3-57.8C431.8,525.4,429.5,495.4,392.3,468.7z"/>
	</g>
	<g>
		<g>
			<path class="st19" d="M356.2,435.9c0,0,1.1-0.4,2.3-0.4c1.2,0,2.8,0.4,3.4,2.1c0.3,0.8,0.4,1.5,0.4,2.2c0,1.6-0.5,3-0.5,4.5
				c0,0.8,0.1,1.5,0.5,2.3l-0.1,0.4l-0.4-0.1c-0.4-0.9-0.6-1.7-0.6-2.5c0-1.6,0.5-3,0.5-4.5c0-0.7-0.1-1.3-0.4-2
				c-0.6-1.4-1.8-1.8-2.9-1.8c-0.6,0-1.1,0.1-1.5,0.2c-0.4,0.1-0.6,0.2-0.6,0.2l-0.4-0.2L356.2,435.9z"/>
		</g>
		<g>
			<path class="st23" d="M344.6,454.2c0,1,0.6,1.7,1.4,1.7c0.8,0,1.4-0.8,1.4-1.7v-7.8c0-1-0.6-1.7-1.4-1.7c-0.8,0-1.4,0.8-1.4,1.7
				V454.2z"/>
		</g>
		<g>
			<path class="st23" d="M338.5,454.2c0,1,0.6,1.7,1.3,1.7c0.7,0,1.3-0.8,1.3-1.7v-7.8c0-1-0.6-1.7-1.3-1.7c-0.7,0-1.3,0.8-1.3,1.7
				V454.2z"/>
		</g>
		<g>
			<circle class="st24" cx="348.1" cy="447.3" r="5.9"/>
		</g>
		<g>
			<path class="st24" d="M345.3,453c0,0.3,0.2,0.5,0.5,0.5c0.3,0,0.5-0.2,0.5-0.5v-0.9c0-0.3-0.2-0.5-0.5-0.5
				c-0.3,0-0.5,0.2-0.5,0.6V453z"/>
		</g>
		<g>
			<path class="st24" d="M347.9,453.6c0,0.3,0.2,0.5,0.5,0.5c0.3,0,0.5-0.2,0.5-0.5v-0.9c0-0.3-0.2-0.5-0.5-0.5
				c-0.3,0-0.5,0.2-0.5,0.6V453.6z"/>
		</g>
		<g>
			<path class="st25" d="M332.1,455.6c0,1,0.6,1.7,1.3,1.7c0.7,0,1.3-0.8,1.3-1.7v-7.8c0-1-0.6-1.7-1.3-1.7c-0.7,0-1.3,0.8-1.3,1.7
				V455.6z"/>
		</g>
		<g>
			<path class="st25" d="M350.2,455.6c0,1,0.6,1.7,1.4,1.7c0.8,0,1.4-0.8,1.4-1.7v-7.8c0-1-0.6-1.7-1.4-1.7c-0.8,0-1.4,0.8-1.4,1.7
				V455.6z"/>
		</g>
		<g>
			<path class="st25" d="M328.1,440.6c0,5.2,4.5,9.3,10.1,9.3h9.8c5.6,0,10.1-4.2,10.1-9.3c0-5.2-4.5-9.3-10.1-9.3l-9.8,0
				C332.6,431.2,328.1,435.4,328.1,440.6z"/>
		</g>
		<g>
			<path class="st19" d="M350.7,431.6c0.7,1.8,1.7,3.8,0.5,5.5c-1.9,2.7-4.2,0.1-6.7,0.5c-1.8,0.3-2,1.2-3.9,0.5
				c-1.3-0.5-2.8-1.7-3.3-2.7c-0.5-1-0.6-2.9,0.2-4.1c0.2,0,0.4,0,0.6,0l9.8,0C348.9,431.2,349.8,431.3,350.7,431.6z"/>
		</g>
		<g>
			<path class="st19" d="M347.5,449.9c-0.4-1.5,1.8-2,2.1-3.5c0.2-1.3-0.5-1.8,0.7-2.8c0.8-0.6,2.4-1.1,3.4-1.1
				c1,0.1,2.6,0.7,3.5,1.6c-1.5,3.4-5.1,5.7-9.3,5.7H347.5z"/>
		</g>
		<g>
			<path class="st19" d="M341,449.9c1.3-1.6,2-4.5-0.1-5.5c-2.2-1-2.3,1.2-3.5-1.4c-0.5-0.9-1.7-1.6-3-1.5c-2,0.2-2.5,1.2-3.8,3.8
				c-0.2,0.4-0.2,0.7-0.2,1.1c1.9,2.1,4.7,3.5,7.9,3.5H341z"/>
		</g>
		<g>
			<path class="st23" d="M324.2,432.8c0,0-3.6-1-2.8-4.7c0,0-2.9,4.7,1.6,6.2L324.2,432.8z"/>
		</g>
		<g>
			<path class="st23" d="M331,433.3c0,0,3.6-1,2.8-4.7c0,0,2.9,4.7-1.6,6.2L331,433.3z"/>
		</g>
		<g>
			<path class="st19" d="M331.4,440.5v-5.7c0-2.2-1.8-4.1-4.1-4.1c-2.3,0-4.1,1.8-4.1,4.1v5.7H331.4z"/>
		</g>
		<g>
			<path class="st19" d="M322.5,432.6c0,1,0.8,1.9,1.9,1.9h5.8c1,0,1.9-0.8,1.9-1.9c0-1-0.8-1.9-1.9-1.9h-5.8
				C323.4,430.7,322.5,431.5,322.5,432.6z"/>
		</g>
		<g>
			<path class="st19" d="M320.6,436.9c-0.4,0.6-0.2,1.4,0.4,1.7c0.6,0.4,1.4,0.2,1.8-0.4l1.8-2.9c0.4-0.6,0.2-1.4-0.4-1.7
				c-0.6-0.4-1.4-0.2-1.7,0.4L320.6,436.9z"/>
		</g>
		<g>
			<path class="st19" d="M335.2,438c0.4,0.7,0.2,1.6-0.5,2.1c-0.7,0.4-1.6,0.2-2.1-0.5l-2.1-3.4c-0.4-0.7-0.2-1.6,0.5-2.1
				c0.7-0.4,1.6-0.2,2.1,0.5L335.2,438z"/>
		</g>
		<g>
			<path class="st24" d="M323.3,440.9c0,1.5,1.3,2.7,2.9,2.7h2.3c1.6,0,2.9-1.2,2.9-2.7c0-1.5-1.3-2.7-2.9-2.7h-2.3
				C324.6,438.2,323.3,439.4,323.3,440.9z"/>
		</g>
		<g>
			<polygon class="st26" points="328.1,442.1 328.3,442.3 328.5,442.1 328.5,441.6 328.3,441.4 328.1,441.6 			"/>
		</g>
		<g>
			<polygon class="st26" points="326.1,442.1 326.4,442.3 326.6,442.1 326.6,441.6 326.4,441.4 326.1,441.6 			"/>
		</g>
	</g>
	<g>
		<g>
			<rect x="66" y="465.7" class="st3" width="77" height="59.6"/>
		</g>
		<g>
			<polygon class="st4" points="146.4,443.1 62.6,443.1 53.9,465.7 155.1,465.7 			"/>
		</g>
		<g>
			<rect x="112.6" y="500.2" class="st3" width="14.1" height="25.2"/>
		</g>
		<g>
			<rect x="114.6" y="501.8" class="st27" width="10.1" height="22"/>
		</g>
		<g>
			<rect x="111" y="498.6" class="st3" width="17.3" height="1.6"/>
		</g>
		<g>
			<rect x="83.9" y="435" class="st3" width="16.6" height="12.5"/>
		</g>
		<g>
			<rect x="81.7" y="428.7" class="st4" width="21" height="6.3"/>
		</g>
		<g>
			<rect x="108.1" y="472.7" class="st3" width="23" height="19.3"/>
		</g>
		<g>
			<rect x="110" y="474.3" class="st27" width="19.2" height="16.1"/>
		</g>
		<g>
			<rect x="118.7" y="472.7" class="st3" width="1.9" height="19.3"/>
		</g>
		<g>
			<rect x="108.1" y="481.4" class="st3" width="23" height="1.9"/>
		</g>
		<g>
			<rect x="77.9" y="472.7" class="st3" width="23" height="19.3"/>
		</g>
		<g>
			<rect x="79.8" y="474.3" class="st27" width="19.2" height="16.1"/>
		</g>
		<g>
			<rect x="88.4" y="472.7" class="st3" width="1.9" height="19.3"/>
		</g>
		<g>
			<rect x="77.9" y="481.4" class="st3" width="23" height="1.9"/>
		</g>
		<g>
			<rect x="77.9" y="500.2" class="st3" width="23" height="19.3"/>
		</g>
		<g>
			<rect x="79.8" y="501.8" class="st27" width="19.2" height="16.1"/>
		</g>
		<g>
			<rect x="88.4" y="500.2" class="st3" width="1.9" height="19.3"/>
		</g>
		<g>
			<rect x="77.9" y="508.9" class="st3" width="23" height="1.9"/>
		</g>
	</g>
	<g>
		<g>
			<rect x="445.7" y="534" class="st28" width="315.9" height="40.2"/>
		</g>
		<g>
			<g>
				<g>
					<path class="st22" d="M664.9,548c0.4,0.5,0.2,1.3-0.3,1.6c-0.5,0.4-1.3,0.2-1.6-0.3l-5.3-7.6c-0.4-0.5-0.2-1.3,0.3-1.6
						c0.5-0.4,1.3-0.2,1.6,0.3L664.9,548z"/>
				</g>
				<g>
					<path class="st22" d="M665.7,548.6c0,0.6-0.4,1.2-1.1,1.2c-0.7,0-1.2-0.5-1.2-1.1l-0.6-9.2c0-0.7,0.5-1.2,1.1-1.3
						c0.7,0,1.2,0.4,1.2,1.1L665.7,548.6z"/>
				</g>
				<g>
					<path class="st22" d="M665.1,549.5c-0.5,0.5-1.2,0.5-1.7,0c-0.5-0.5-0.5-1.2,0-1.7l6.5-6.6c0.5-0.5,1.2-0.5,1.7,0
						c0.5,0.5,0.5,1.2,0,1.7L665.1,549.5z"/>
				</g>
			</g>
			<g>
				<g>
					<path class="st22" d="M685.3,548c0.4,0.5,0.2,1.3-0.3,1.6c-0.5,0.4-1.3,0.2-1.6-0.3l-5.3-7.6c-0.4-0.5-0.2-1.3,0.3-1.6
						c0.5-0.4,1.3-0.2,1.6,0.3L685.3,548z"/>
				</g>
				<g>
					<path class="st22" d="M686,548.6c0,0.6-0.4,1.2-1.1,1.2c-0.6,0-1.2-0.5-1.2-1.1l-0.6-9.2c0-0.7,0.5-1.2,1.1-1.3
						c0.7,0,1.2,0.4,1.3,1.1L686,548.6z"/>
				</g>
				<g>
					<path class="st22" d="M685.5,549.5c-0.5,0.5-1.2,0.5-1.7,0c-0.5-0.5-0.5-1.2,0-1.7l6.4-6.6c0.5-0.5,1.2-0.5,1.7,0
						c0.5,0.5,0.5,1.2,0,1.7L685.5,549.5z"/>
				</g>
			</g>
			<g>
				<g>
					<path class="st22" d="M705.7,548c0.4,0.5,0.2,1.3-0.3,1.6c-0.5,0.4-1.3,0.2-1.6-0.3l-5.3-7.6c-0.4-0.5-0.2-1.3,0.3-1.6
						c0.5-0.4,1.3-0.2,1.6,0.3L705.7,548z"/>
				</g>
				<g>
					<path class="st22" d="M706.4,548.6c0,0.6-0.4,1.2-1.1,1.2c-0.7,0-1.2-0.5-1.3-1.1l-0.6-9.2c0-0.7,0.5-1.2,1.1-1.3
						c0.7,0,1.2,0.4,1.3,1.1L706.4,548.6z"/>
				</g>
				<g>
					<path class="st22" d="M705.8,549.5c-0.5,0.5-1.2,0.5-1.7,0c-0.5-0.5-0.5-1.2,0-1.7l6.4-6.6c0.5-0.5,1.2-0.5,1.7,0
						c0.5,0.5,0.5,1.2,0,1.7L705.8,549.5z"/>
				</g>
			</g>
			<g>
				<g>
					<path class="st22" d="M726,548c0.4,0.5,0.2,1.3-0.3,1.6c-0.5,0.4-1.3,0.2-1.6-0.3l-5.3-7.6c-0.4-0.5-0.2-1.3,0.3-1.6
						c0.5-0.4,1.3-0.2,1.6,0.3L726,548z"/>
				</g>
				<g>
					<path class="st22" d="M726.7,548.6c0,0.6-0.4,1.2-1.1,1.2c-0.7,0-1.2-0.5-1.2-1.1l-0.6-9.2c0-0.7,0.5-1.2,1.1-1.3
						c0.6,0,1.2,0.4,1.3,1.1L726.7,548.6z"/>
				</g>
				<g>
					<path class="st22" d="M726.2,549.5c-0.5,0.5-1.2,0.5-1.7,0c-0.5-0.5-0.5-1.2,0-1.7l6.5-6.6c0.5-0.5,1.2-0.5,1.7,0
						c0.5,0.5,0.5,1.2,0,1.7L726.2,549.5z"/>
				</g>
			</g>
			<g>
				<g>
					<path class="st22" d="M746.4,548c0.4,0.5,0.2,1.3-0.3,1.6c-0.5,0.4-1.3,0.2-1.6-0.3l-5.3-7.6c-0.4-0.5-0.2-1.3,0.3-1.6
						c0.5-0.4,1.3-0.2,1.6,0.3L746.4,548z"/>
				</g>
				<g>
					<path class="st22" d="M747.1,548.6c0,0.6-0.4,1.2-1.1,1.2c-0.6,0-1.2-0.5-1.2-1.1l-0.6-9.2c0-0.7,0.5-1.2,1.1-1.3
						c0.7,0,1.2,0.4,1.3,1.1L747.1,548.6z"/>
				</g>
				<g>
					<path class="st22" d="M746.5,549.5c-0.5,0.5-1.2,0.5-1.7,0c-0.5-0.5-0.5-1.2,0-1.7l6.4-6.6c0.5-0.5,1.2-0.5,1.7,0
						c0.5,0.5,0.5,1.2,0,1.7L746.5,549.5z"/>
				</g>
			</g>
			<g>
				<g>
					<path class="st22" d="M664.9,568.2c0.4,0.5,0.2,1.3-0.3,1.6c-0.5,0.4-1.3,0.2-1.6-0.3l-5.3-7.6c-0.4-0.5-0.2-1.3,0.3-1.6
						c0.5-0.4,1.3-0.2,1.6,0.3L664.9,568.2z"/>
				</g>
				<g>
					<path class="st22" d="M665.7,568.8c0,0.6-0.4,1.2-1.1,1.2c-0.7,0-1.2-0.5-1.2-1.1l-0.6-9.2c0-0.7,0.5-1.2,1.1-1.3
						c0.7,0,1.2,0.4,1.2,1.1L665.7,568.8z"/>
				</g>
				<g>
					<path class="st22" d="M665.1,569.6c-0.5,0.5-1.2,0.5-1.7,0c-0.5-0.5-0.5-1.2,0-1.7l6.5-6.6c0.5-0.5,1.2-0.5,1.7,0
						c0.5,0.5,0.5,1.2,0,1.7L665.1,569.6z"/>
				</g>
			</g>
			<g>
				<g>
					<path class="st22" d="M685.3,568.2c0.4,0.5,0.2,1.3-0.3,1.6c-0.5,0.4-1.3,0.2-1.6-0.3l-5.3-7.6c-0.4-0.5-0.2-1.3,0.3-1.6
						c0.5-0.4,1.3-0.2,1.6,0.3L685.3,568.2z"/>
				</g>
				<g>
					<path class="st22" d="M686,568.8c0,0.6-0.4,1.2-1.1,1.2c-0.6,0-1.2-0.5-1.2-1.1l-0.6-9.2c0-0.7,0.5-1.2,1.1-1.3
						c0.7,0,1.2,0.4,1.3,1.1L686,568.8z"/>
				</g>
				<g>
					<path class="st22" d="M685.5,569.6c-0.5,0.5-1.2,0.5-1.7,0c-0.5-0.5-0.5-1.2,0-1.7l6.4-6.6c0.5-0.5,1.2-0.5,1.7,0
						c0.5,0.5,0.5,1.2,0,1.7L685.5,569.6z"/>
				</g>
			</g>
			<g>
				<g>
					<path class="st22" d="M705.7,568.2c0.4,0.5,0.2,1.3-0.3,1.6c-0.5,0.4-1.3,0.2-1.6-0.3l-5.3-7.6c-0.4-0.5-0.2-1.3,0.3-1.6
						c0.5-0.4,1.3-0.2,1.6,0.3L705.7,568.2z"/>
				</g>
				<g>
					<path class="st22" d="M706.4,568.8c0,0.6-0.4,1.2-1.1,1.2c-0.7,0-1.2-0.5-1.3-1.1l-0.6-9.2c0-0.7,0.5-1.2,1.1-1.3
						c0.7,0,1.2,0.4,1.3,1.1L706.4,568.8z"/>
				</g>
				<g>
					<path class="st22" d="M705.8,569.6c-0.5,0.5-1.2,0.5-1.7,0c-0.5-0.5-0.5-1.2,0-1.7l6.4-6.6c0.5-0.5,1.2-0.5,1.7,0
						c0.5,0.5,0.5,1.2,0,1.7L705.8,569.6z"/>
				</g>
			</g>
			<g>
				<g>
					<path class="st22" d="M726,568.2c0.4,0.5,0.2,1.3-0.3,1.6c-0.5,0.4-1.3,0.2-1.6-0.3l-5.3-7.6c-0.4-0.5-0.2-1.3,0.3-1.6
						c0.5-0.4,1.3-0.2,1.6,0.3L726,568.2z"/>
				</g>
				<g>
					<path class="st22" d="M726.7,568.8c0,0.6-0.4,1.2-1.1,1.2c-0.7,0-1.2-0.5-1.2-1.1l-0.6-9.2c0-0.7,0.5-1.2,1.1-1.3
						c0.6,0,1.2,0.4,1.3,1.1L726.7,568.8z"/>
				</g>
				<g>
					<path class="st22" d="M726.2,569.6c-0.5,0.5-1.2,0.5-1.7,0c-0.5-0.5-0.5-1.2,0-1.7l6.5-6.6c0.5-0.5,1.2-0.5,1.7,0
						c0.5,0.5,0.5,1.2,0,1.7L726.2,569.6z"/>
				</g>
			</g>
			<g>
				<g>
					<path class="st22" d="M746.4,568.2c0.4,0.5,0.2,1.3-0.3,1.6c-0.5,0.4-1.3,0.2-1.6-0.3l-5.3-7.6c-0.4-0.5-0.2-1.3,0.3-1.6
						c0.5-0.4,1.3-0.2,1.6,0.3L746.4,568.2z"/>
				</g>
				<g>
					<path class="st22" d="M747.1,568.8c0,0.6-0.4,1.2-1.1,1.2c-0.6,0-1.2-0.5-1.2-1.1l-0.6-9.2c0-0.7,0.5-1.2,1.1-1.3
						c0.7,0,1.2,0.4,1.3,1.1L747.1,568.8z"/>
				</g>
				<g>
					<path class="st22" d="M746.5,569.6c-0.5,0.5-1.2,0.5-1.7,0c-0.5-0.5-0.5-1.2,0-1.7l6.4-6.6c0.5-0.5,1.2-0.5,1.7,0
						c0.5,0.5,0.5,1.2,0,1.7L746.5,569.6z"/>
				</g>
			</g>
			<g>
				<g>
					<path class="st22" d="M563.1,548c0.4,0.5,0.2,1.3-0.3,1.6c-0.5,0.4-1.3,0.2-1.6-0.3l-5.3-7.6c-0.4-0.5-0.2-1.3,0.3-1.6
						c0.5-0.4,1.3-0.2,1.6,0.3L563.1,548z"/>
				</g>
				<g>
					<path class="st22" d="M563.8,548.6c0,0.6-0.4,1.2-1.1,1.2c-0.7,0-1.2-0.5-1.3-1.1l-0.6-9.2c0-0.7,0.5-1.2,1.1-1.2
						c0.7,0,1.2,0.4,1.3,1.1L563.8,548.6z"/>
				</g>
				<g>
					<path class="st22" d="M563.3,549.5c-0.5,0.5-1.2,0.5-1.7,0c-0.5-0.5-0.5-1.2,0-1.7l6.4-6.6c0.5-0.5,1.2-0.5,1.7,0
						c0.5,0.5,0.5,1.2,0,1.7L563.3,549.5z"/>
				</g>
			</g>
			<g>
				<g>
					<path class="st22" d="M583.5,548c0.4,0.5,0.2,1.3-0.3,1.6c-0.5,0.4-1.3,0.2-1.6-0.3l-5.3-7.6c-0.4-0.5-0.2-1.3,0.3-1.6
						c0.5-0.4,1.3-0.2,1.6,0.3L583.5,548z"/>
				</g>
				<g>
					<path class="st22" d="M584.2,548.6c0,0.6-0.4,1.2-1.1,1.2c-0.7,0-1.2-0.5-1.2-1.1l-0.6-9.2c0-0.7,0.5-1.2,1.1-1.2
						c0.6,0,1.2,0.4,1.2,1.1L584.2,548.6z"/>
				</g>
				<g>
					<path class="st22" d="M583.7,549.5c-0.5,0.5-1.2,0.5-1.7,0c-0.5-0.5-0.5-1.2,0-1.7l6.5-6.6c0.5-0.5,1.2-0.5,1.7,0
						c0.5,0.5,0.5,1.2,0,1.7L583.7,549.5z"/>
				</g>
			</g>
			<g>
				<g>
					<path class="st22" d="M603.9,548c0.4,0.5,0.2,1.3-0.3,1.6c-0.5,0.4-1.3,0.2-1.6-0.3l-5.3-7.6c-0.4-0.5-0.2-1.3,0.3-1.6
						c0.5-0.4,1.3-0.2,1.6,0.3L603.9,548z"/>
				</g>
				<g>
					<path class="st22" d="M604.6,548.6c0,0.6-0.4,1.2-1.1,1.2c-0.6,0-1.2-0.5-1.2-1.1l-0.6-9.2c0-0.7,0.5-1.2,1.1-1.2
						c0.7,0,1.2,0.4,1.3,1.1L604.6,548.6z"/>
				</g>
				<g>
					<path class="st22" d="M604,549.5c-0.5,0.5-1.2,0.5-1.7,0c-0.5-0.5-0.5-1.2,0-1.7l6.4-6.6c0.5-0.5,1.2-0.5,1.7,0
						c0.5,0.5,0.5,1.2,0,1.7L604,549.5z"/>
				</g>
			</g>
			<g>
				<g>
					<path class="st22" d="M624.2,548c0.4,0.5,0.2,1.3-0.3,1.6c-0.5,0.4-1.3,0.2-1.6-0.3l-5.3-7.6c-0.4-0.5-0.2-1.3,0.3-1.6
						c0.5-0.4,1.3-0.2,1.6,0.3L624.2,548z"/>
				</g>
				<g>
					<path class="st22" d="M624.9,548.6c0,0.6-0.4,1.2-1.1,1.2c-0.7,0-1.2-0.5-1.2-1.1l-0.6-9.2c0-0.7,0.5-1.2,1.1-1.2
						c0.6,0,1.2,0.4,1.2,1.1L624.9,548.6z"/>
				</g>
				<g>
					<path class="st22" d="M624.4,549.5c-0.5,0.5-1.2,0.5-1.7,0c-0.5-0.5-0.5-1.2,0-1.7l6.4-6.6c0.5-0.5,1.2-0.5,1.7,0
						c0.5,0.5,0.5,1.2,0,1.7L624.4,549.5z"/>
				</g>
			</g>
			<g>
				<g>
					<path class="st22" d="M644.6,548c0.4,0.5,0.2,1.3-0.3,1.6c-0.5,0.4-1.3,0.2-1.6-0.3l-5.3-7.6c-0.4-0.5-0.2-1.3,0.3-1.6
						c0.5-0.4,1.3-0.2,1.6,0.3L644.6,548z"/>
				</g>
				<g>
					<path class="st22" d="M645.3,548.6c0,0.6-0.4,1.2-1.1,1.2c-0.6,0-1.2-0.5-1.2-1.1l-0.6-9.2c0-0.7,0.5-1.2,1.1-1.2
						c0.7,0,1.2,0.4,1.3,1.1L645.3,548.6z"/>
				</g>
				<g>
					<path class="st22" d="M644.7,549.5c-0.5,0.5-1.2,0.5-1.7,0c-0.5-0.5-0.5-1.2,0-1.7l6.4-6.6c0.5-0.5,1.2-0.5,1.7,0
						c0.5,0.5,0.5,1.2,0,1.7L644.7,549.5z"/>
				</g>
			</g>
			<g>
				<g>
					<path class="st22" d="M563.1,568.2c0.4,0.5,0.2,1.3-0.3,1.6c-0.5,0.4-1.3,0.2-1.6-0.3l-5.3-7.6c-0.4-0.5-0.2-1.3,0.3-1.6
						c0.5-0.4,1.3-0.2,1.6,0.3L563.1,568.2z"/>
				</g>
				<g>
					<path class="st22" d="M563.8,568.8c0,0.6-0.4,1.2-1.1,1.2c-0.7,0-1.2-0.5-1.3-1.1l-0.6-9.2c0-0.6,0.5-1.2,1.1-1.2
						c0.7,0,1.2,0.4,1.3,1.1L563.8,568.8z"/>
				</g>
				<g>
					<path class="st22" d="M563.3,569.6c-0.5,0.5-1.2,0.5-1.7,0c-0.5-0.5-0.5-1.2,0-1.7l6.4-6.6c0.5-0.5,1.2-0.5,1.7,0
						c0.5,0.5,0.5,1.2,0,1.7L563.3,569.6z"/>
				</g>
			</g>
			<g>
				<g>
					<path class="st22" d="M583.5,568.2c0.4,0.5,0.2,1.3-0.3,1.6c-0.5,0.4-1.3,0.2-1.6-0.3l-5.3-7.6c-0.4-0.5-0.2-1.3,0.3-1.6
						c0.5-0.4,1.3-0.2,1.6,0.3L583.5,568.2z"/>
				</g>
				<g>
					<path class="st22" d="M584.2,568.8c0,0.6-0.4,1.2-1.1,1.2c-0.7,0-1.2-0.5-1.2-1.1l-0.6-9.2c0-0.6,0.5-1.2,1.1-1.2
						c0.6,0,1.2,0.4,1.2,1.1L584.2,568.8z"/>
				</g>
				<g>
					<path class="st22" d="M583.7,569.6c-0.5,0.5-1.2,0.5-1.7,0c-0.5-0.5-0.5-1.2,0-1.7l6.5-6.6c0.5-0.5,1.2-0.5,1.7,0
						c0.5,0.5,0.5,1.2,0,1.7L583.7,569.6z"/>
				</g>
			</g>
			<g>
				<g>
					<path class="st22" d="M603.9,568.2c0.4,0.5,0.2,1.3-0.3,1.6c-0.5,0.4-1.3,0.2-1.6-0.3l-5.3-7.6c-0.4-0.5-0.2-1.3,0.3-1.6
						c0.5-0.4,1.3-0.2,1.6,0.3L603.9,568.2z"/>
				</g>
				<g>
					<path class="st22" d="M604.6,568.8c0,0.6-0.4,1.2-1.1,1.2c-0.6,0-1.2-0.5-1.2-1.1l-0.6-9.2c0-0.6,0.5-1.2,1.1-1.2
						c0.7,0,1.2,0.4,1.3,1.1L604.6,568.8z"/>
				</g>
				<g>
					<path class="st22" d="M604,569.6c-0.5,0.5-1.2,0.5-1.7,0c-0.5-0.5-0.5-1.2,0-1.7l6.4-6.6c0.5-0.5,1.2-0.5,1.7,0
						c0.5,0.5,0.5,1.2,0,1.7L604,569.6z"/>
				</g>
			</g>
			<g>
				<g>
					<path class="st22" d="M624.2,568.2c0.4,0.5,0.2,1.3-0.3,1.6c-0.5,0.4-1.3,0.2-1.6-0.3l-5.3-7.6c-0.4-0.5-0.2-1.3,0.3-1.6
						c0.5-0.4,1.3-0.2,1.6,0.3L624.2,568.2z"/>
				</g>
				<g>
					<path class="st22" d="M624.9,568.8c0,0.6-0.4,1.2-1.1,1.2c-0.7,0-1.2-0.5-1.2-1.1l-0.6-9.2c0-0.6,0.5-1.2,1.1-1.2
						c0.6,0,1.2,0.4,1.2,1.1L624.9,568.8z"/>
				</g>
				<g>
					<path class="st22" d="M624.4,569.6c-0.5,0.5-1.2,0.5-1.7,0c-0.5-0.5-0.5-1.2,0-1.7l6.4-6.6c0.5-0.5,1.2-0.5,1.7,0
						c0.5,0.5,0.5,1.2,0,1.7L624.4,569.6z"/>
				</g>
			</g>
			<g>
				<g>
					<path class="st22" d="M644.6,568.2c0.4,0.5,0.2,1.3-0.3,1.6c-0.5,0.4-1.3,0.2-1.6-0.3l-5.3-7.6c-0.4-0.5-0.2-1.3,0.3-1.6
						c0.5-0.4,1.3-0.2,1.6,0.3L644.6,568.2z"/>
				</g>
				<g>
					<path class="st22" d="M645.3,568.8c0,0.6-0.4,1.2-1.1,1.2c-0.6,0-1.2-0.5-1.2-1.1l-0.6-9.2c0-0.6,0.5-1.2,1.1-1.2
						c0.7,0,1.2,0.4,1.3,1.1L645.3,568.8z"/>
				</g>
				<g>
					<path class="st22" d="M644.7,569.6c-0.5,0.5-1.2,0.5-1.7,0c-0.5-0.5-0.5-1.2,0-1.7l6.4-6.6c0.5-0.5,1.2-0.5,1.7,0
						c0.5,0.5,0.5,1.2,0,1.7L644.7,569.6z"/>
				</g>
			</g>
			<g>
				<g>
					<path class="st22" d="M461.3,548c0.4,0.5,0.2,1.3-0.3,1.6c-0.5,0.4-1.3,0.2-1.6-0.3l-5.3-7.6c-0.4-0.5-0.2-1.3,0.3-1.6
						c0.5-0.4,1.3-0.2,1.6,0.3L461.3,548z"/>
				</g>
				<g>
					<path class="st22" d="M462,548.6c0,0.6-0.4,1.2-1.1,1.2c-0.7,0-1.2-0.5-1.2-1.1l-0.6-9.2c0-0.7,0.5-1.2,1.1-1.2
						c0.7,0,1.2,0.4,1.2,1.1L462,548.6z"/>
				</g>
				<g>
					<path class="st22" d="M461.5,549.5c-0.5,0.5-1.2,0.5-1.7,0c-0.5-0.5-0.5-1.2,0-1.7l6.4-6.6c0.5-0.5,1.2-0.5,1.7,0
						c0.5,0.5,0.5,1.2,0,1.7L461.5,549.5z"/>
				</g>
			</g>
			<g>
				<g>
					<path class="st22" d="M481.7,548c0.4,0.5,0.2,1.3-0.3,1.6c-0.5,0.4-1.3,0.2-1.6-0.3l-5.3-7.6c-0.4-0.5-0.2-1.3,0.3-1.6
						c0.5-0.4,1.3-0.2,1.6,0.3L481.7,548z"/>
				</g>
				<g>
					<path class="st22" d="M482.4,548.6c0,0.6-0.4,1.2-1.1,1.2c-0.7,0-1.2-0.5-1.3-1.1l-0.6-9.2c0-0.7,0.5-1.2,1.1-1.2
						c0.7,0,1.2,0.4,1.2,1.1L482.4,548.6z"/>
				</g>
				<g>
					<path class="st22" d="M481.9,549.5c-0.5,0.5-1.2,0.5-1.7,0c-0.5-0.5-0.5-1.2,0-1.7l6.4-6.6c0.5-0.5,1.2-0.5,1.7,0
						c0.5,0.5,0.5,1.2,0,1.7L481.9,549.5z"/>
				</g>
			</g>
			<g>
				<g>
					<path class="st22" d="M502.1,548c0.4,0.5,0.2,1.3-0.3,1.6c-0.5,0.4-1.3,0.2-1.6-0.3l-5.3-7.6c-0.4-0.5-0.2-1.3,0.3-1.6
						c0.5-0.4,1.3-0.2,1.6,0.3L502.1,548z"/>
				</g>
				<g>
					<path class="st22" d="M502.8,548.6c0,0.6-0.4,1.2-1.1,1.2c-0.6,0-1.2-0.5-1.2-1.1l-0.6-9.2c0-0.7,0.5-1.2,1.1-1.2
						c0.6,0,1.2,0.4,1.2,1.1L502.8,548.6z"/>
				</g>
				<g>
					<path class="st22" d="M502.2,549.5c-0.5,0.5-1.2,0.5-1.7,0c-0.5-0.5-0.5-1.2,0-1.7l6.4-6.6c0.5-0.5,1.2-0.5,1.7,0
						c0.5,0.5,0.5,1.2,0,1.7L502.2,549.5z"/>
				</g>
			</g>
			<g>
				<g>
					<path class="st22" d="M522.4,548c0.4,0.5,0.2,1.3-0.3,1.6c-0.5,0.4-1.3,0.2-1.6-0.3l-5.3-7.6c-0.4-0.5-0.2-1.3,0.3-1.6
						c0.5-0.4,1.3-0.2,1.6,0.3L522.4,548z"/>
				</g>
				<g>
					<path class="st22" d="M523.1,548.6c0,0.6-0.4,1.2-1.1,1.2c-0.7,0-1.2-0.5-1.3-1.1l-0.6-9.2c0-0.7,0.5-1.2,1.1-1.2
						c0.7,0,1.2,0.4,1.3,1.1L523.1,548.6z"/>
				</g>
				<g>
					<path class="st22" d="M522.6,549.5c-0.5,0.5-1.2,0.5-1.7,0c-0.5-0.5-0.5-1.2,0-1.7l6.4-6.6c0.5-0.5,1.2-0.5,1.7,0
						c0.5,0.5,0.5,1.2,0,1.7L522.6,549.5z"/>
				</g>
			</g>
			<g>
				<g>
					<path class="st22" d="M542.8,548c0.4,0.5,0.2,1.3-0.3,1.6c-0.5,0.4-1.3,0.2-1.6-0.3l-5.3-7.6c-0.4-0.5-0.2-1.3,0.3-1.6
						c0.5-0.4,1.3-0.2,1.6,0.3L542.8,548z"/>
				</g>
				<g>
					<path class="st22" d="M543.5,548.6c0,0.6-0.4,1.2-1.1,1.2c-0.6,0-1.2-0.5-1.3-1.1l-0.6-9.2c0-0.7,0.5-1.2,1.1-1.2
						c0.6,0,1.2,0.4,1.2,1.1L543.5,548.6z"/>
				</g>
				<g>
					<path class="st22" d="M542.9,549.5c-0.5,0.5-1.2,0.5-1.7,0c-0.5-0.5-0.5-1.2,0-1.7l6.5-6.6c0.5-0.5,1.2-0.5,1.7,0
						c0.5,0.5,0.5,1.2,0,1.7L542.9,549.5z"/>
				</g>
			</g>
			<g>
				<g>
					<path class="st22" d="M461.3,568.2c0.4,0.5,0.2,1.3-0.3,1.6c-0.5,0.4-1.3,0.2-1.6-0.3l-5.3-7.6c-0.4-0.5-0.2-1.3,0.3-1.6
						c0.5-0.4,1.3-0.2,1.6,0.3L461.3,568.2z"/>
				</g>
				<g>
					<path class="st22" d="M462,568.8c0,0.6-0.4,1.2-1.1,1.2c-0.7,0-1.2-0.5-1.2-1.1l-0.6-9.2c0-0.7,0.5-1.2,1.1-1.3
						c0.7,0,1.2,0.4,1.2,1.1L462,568.8z"/>
				</g>
				<g>
					<path class="st22" d="M461.5,569.6c-0.5,0.5-1.2,0.5-1.7,0c-0.5-0.5-0.5-1.2,0-1.7l6.4-6.6c0.5-0.5,1.2-0.5,1.7,0
						c0.5,0.5,0.5,1.2,0,1.7L461.5,569.6z"/>
				</g>
			</g>
			<g>
				<g>
					<path class="st22" d="M481.7,568.2c0.4,0.5,0.2,1.3-0.3,1.6c-0.5,0.4-1.3,0.2-1.6-0.3l-5.3-7.6c-0.4-0.5-0.2-1.3,0.3-1.6
						c0.5-0.4,1.3-0.2,1.6,0.3L481.7,568.2z"/>
				</g>
				<g>
					<path class="st22" d="M482.4,568.8c0,0.6-0.4,1.2-1.1,1.2c-0.7,0-1.2-0.5-1.3-1.1l-0.6-9.2c0-0.7,0.5-1.2,1.1-1.3
						c0.7,0,1.2,0.4,1.2,1.1L482.4,568.8z"/>
				</g>
				<g>
					<path class="st22" d="M481.9,569.6c-0.5,0.5-1.2,0.5-1.7,0c-0.5-0.5-0.5-1.2,0-1.7l6.4-6.6c0.5-0.5,1.2-0.5,1.7,0
						c0.5,0.5,0.5,1.2,0,1.7L481.9,569.6z"/>
				</g>
			</g>
			<g>
				<g>
					<path class="st22" d="M502.1,568.2c0.4,0.5,0.2,1.3-0.3,1.6c-0.5,0.4-1.3,0.2-1.6-0.3l-5.3-7.6c-0.4-0.5-0.2-1.3,0.3-1.6
						c0.5-0.4,1.3-0.2,1.6,0.3L502.1,568.2z"/>
				</g>
				<g>
					<path class="st22" d="M502.8,568.8c0,0.6-0.4,1.2-1.1,1.2c-0.6,0-1.2-0.5-1.2-1.1l-0.6-9.2c0-0.7,0.5-1.2,1.1-1.3
						c0.6,0,1.2,0.4,1.2,1.1L502.8,568.8z"/>
				</g>
				<g>
					<path class="st22" d="M502.2,569.6c-0.5,0.5-1.2,0.5-1.7,0c-0.5-0.5-0.5-1.2,0-1.7l6.4-6.6c0.5-0.5,1.2-0.5,1.7,0
						c0.5,0.5,0.5,1.2,0,1.7L502.2,569.6z"/>
				</g>
			</g>
			<g>
				<g>
					<path class="st22" d="M522.4,568.2c0.4,0.5,0.2,1.3-0.3,1.6c-0.5,0.4-1.3,0.2-1.6-0.3l-5.3-7.6c-0.4-0.5-0.2-1.3,0.3-1.6
						c0.5-0.4,1.3-0.2,1.6,0.3L522.4,568.2z"/>
				</g>
				<g>
					<path class="st22" d="M523.1,568.8c0,0.6-0.4,1.2-1.1,1.2c-0.7,0-1.2-0.5-1.3-1.1l-0.6-9.2c0-0.7,0.5-1.2,1.1-1.3
						c0.7,0,1.2,0.4,1.3,1.1L523.1,568.8z"/>
				</g>
				<g>
					<path class="st22" d="M522.6,569.6c-0.5,0.5-1.2,0.5-1.7,0c-0.5-0.5-0.5-1.2,0-1.7l6.4-6.6c0.5-0.5,1.2-0.5,1.7,0
						c0.5,0.5,0.5,1.2,0,1.7L522.6,569.6z"/>
				</g>
			</g>
			<g>
				<g>
					<path class="st22" d="M542.8,568.2c0.4,0.5,0.2,1.3-0.3,1.6c-0.5,0.4-1.3,0.2-1.6-0.3l-5.3-7.6c-0.4-0.5-0.2-1.3,0.3-1.6
						c0.5-0.4,1.3-0.2,1.6,0.3L542.8,568.2z"/>
				</g>
				<g>
					<path class="st22" d="M543.5,568.8c0,0.6-0.4,1.2-1.1,1.2c-0.6,0-1.2-0.5-1.3-1.1l-0.6-9.2c0-0.7,0.5-1.2,1.1-1.3
						c0.6,0,1.2,0.4,1.2,1.1L543.5,568.8z"/>
				</g>
				<g>
					<path class="st22" d="M542.9,569.6c-0.5,0.5-1.2,0.5-1.7,0c-0.5-0.5-0.5-1.2,0-1.7l6.5-6.6c0.5-0.5,1.2-0.5,1.7,0
						c0.5,0.5,0.5,1.2,0,1.7L542.9,569.6z"/>
				</g>
			</g>
		</g>
		<g>
			<g>
				<path class="st3" d="M601.5,525.5h-4.7v-3.8h4.7v-4.8h3.7V534h-3.7v-3.3h-4.7v-3.8h4.7V525.5z M596.8,525.5h-4.7v1.5h4.7v3.8
					h-4.7v3.3h-3.7v-3.3h-4.7v-3.8h4.7v-1.5h-4.7v-3.8h4.7v-4.8h3.7v4.8h4.7V525.5z M583.8,521.7v3.8h-4.7v1.5h4.7v3.8h-4.7v3.3
					h-3.7v-3.3h-4.7v-3.8h4.7v-1.5h-4.7v-3.8h4.7v-4.8h3.7v4.8H583.8z M570.7,521.7v3.8h-4.7v1.5h4.7v3.8h-4.7v3.3h-3.7v-3.3h-4.7
					v-3.8h4.7v-1.5h-4.7v-3.8h4.7v-4.8h3.7v4.8H570.7z M557.7,521.7v3.8H553v1.5h4.7v3.8H553v3.3h-3.7v-3.3h-4.7v-3.8h4.7v-1.5h-4.7
					v-3.8h4.7v-4.8h3.7v4.8H557.7z M544.7,521.7v3.8H540v1.5h4.7v3.8H540v3.3h-3.7v-3.3h-4.7v-3.8h4.7v-1.5h-4.7v-3.8h4.7v-4.8h3.7
					v4.8H544.7z M531.6,521.7v3.8H527v1.5h4.7v3.8H527v3.3h-3.7v-3.3h-4.7v-3.8h4.7v-1.5h-4.7v-3.8h4.7v-4.8h3.7v4.8H531.6z
					 M518.6,521.7v3.8h-4.7v1.5h4.7v3.8h-4.7v3.3h-3.7v-3.3h-4.7v-3.8h4.7v-1.5h-4.7v-3.8h4.7v-4.8h3.7v4.8H518.6z M505.6,521.7v3.8
					h-4.7v1.5h4.7v3.8h-4.7v3.3h-3.7v-3.3h-4.7v-3.8h4.7v-1.5h-4.7v-3.8h4.7v-4.8h3.7v4.8H505.6z M492.5,521.7v3.8h-4.7v1.5h4.7v3.8
					h-4.7v3.3h-3.7v-3.3h-4.7v-3.8h4.7v-1.5h-4.7v-3.8h4.7v-4.8h3.7v4.8H492.5z M479.5,521.7v3.8h-4.7v1.5h4.7v3.8h-4.7v3.3h-3.7
					v-3.3h-4.7v-3.8h4.7v-1.5h-4.7v-3.8h4.7v-4.8h3.7v4.8H479.5z M466.5,521.7v3.8h-4.7v1.5h4.7v3.8h-4.7v3.3h-3.7v-3.3h-4.7v-3.8
					h4.7v-1.5h-4.7v-3.8h4.7v-4.8h3.7v4.8H466.5z M453.4,521.7v3.8h-4.7v1.5h4.7v3.8h-4.7v3.3H445v-17.2h3.7v4.8H453.4z"/>
			</g>
			<g>
				<path class="st3" d="M757.9,525.5h-4.7v-3.8h4.7v-4.8h3.7V534h-3.7v-3.3h-4.7v-3.8h4.7V525.5z M753.2,525.5h-4.7v1.5h4.7v3.8
					h-4.7v3.3h-3.7v-3.3h-4.7v-3.8h4.7v-1.5h-4.7v-3.8h4.7v-4.8h3.7v4.8h4.7V525.5z M740.2,521.7v3.8h-4.7v1.5h4.7v3.8h-4.7v3.3
					h-3.7v-3.3h-4.7v-3.8h4.7v-1.5h-4.7v-3.8h4.7v-4.8h3.7v4.8H740.2z M727.1,521.7v3.8h-4.7v1.5h4.7v3.8h-4.7v3.3h-3.7v-3.3h-4.7
					v-3.8h4.7v-1.5h-4.7v-3.8h4.7v-4.8h3.7v4.8H727.1z M714.1,521.7v3.8h-4.7v1.5h4.7v3.8h-4.7v3.3h-3.7v-3.3h-4.7v-3.8h4.7v-1.5
					h-4.7v-3.8h4.7v-4.8h3.7v4.8H714.1z M701.1,521.7v3.8h-4.7v1.5h4.7v3.8h-4.7v3.3h-3.7v-3.3H688v-3.8h4.7v-1.5H688v-3.8h4.7v-4.8
					h3.7v4.8H701.1z M688,521.7v3.8h-4.7v1.5h4.7v3.8h-4.7v3.3h-3.7v-3.3H675v-3.8h4.7v-1.5H675v-3.8h4.7v-4.8h3.7v4.8H688z
					 M675,521.7v3.8h-4.7v1.5h4.7v3.8h-4.7v3.3h-3.7v-3.3H662v-3.8h4.7v-1.5H662v-3.8h4.7v-4.8h3.7v4.8H675z M662,521.7v3.8h-4.7
					v1.5h4.7v3.8h-4.7v3.3h-3.7v-3.3h-4.7v-3.8h4.7v-1.5h-4.7v-3.8h4.7v-4.8h3.7v4.8H662z M648.9,521.7v3.8h-4.7v1.5h4.7v3.8h-4.7
					v3.3h-3.7v-3.3h-4.7v-3.8h4.7v-1.5h-4.7v-3.8h4.7v-4.8h3.7v4.8H648.9z M635.9,521.7v3.8h-4.7v1.5h4.7v3.8h-4.7v3.3h-3.7v-3.3
					h-4.7v-3.8h4.7v-1.5h-4.7v-3.8h4.7v-4.8h3.7v4.8H635.9z M622.9,521.7v3.8h-4.7v1.5h4.7v3.8h-4.7v3.3h-3.7v-3.3h-4.7v-3.8h4.7
					v-1.5h-4.7v-3.8h4.7v-4.8h3.7v4.8H622.9z M609.8,521.7v3.8h-4.7v1.5h4.7v3.8h-4.7v3.3h-3.7v-17.2h3.7v4.8H609.8z"/>
			</g>
		</g>
		<g>
			<path class="st3" d="M198.9,522v3.3h-3.7V522h-4.7v-3.8h4.7v-1.5h-4.7V513h4.7v-4.8h3.7v4.8v3.8v1.5V522z M190.5,522h-4.7v3.3
				h-3.7V522h-4.7v-3.8h4.7v-1.5h-4.7V513h4.7v-4.8h3.7v4.8h4.7v3.8h-4.7v1.5h4.7V522z M177.5,522h-4.7v3.3h-3.7V522h-4.7v-3.8h4.7
				v-1.5h-4.7V513h4.7v-4.8h3.7v4.8h4.7v3.8h-4.7v1.5h4.7V522z M164.4,522h-4.7v3.3H156V522h-4.7v-3.8h4.7v-1.5h-4.7V513h4.7v-4.8
				h3.7v4.8h4.7v3.8h-4.7v1.5h4.7V522z M151.4,522h-4.7v3.3H143v-17.2h3.7v4.8h4.7v3.8h-4.7v1.5h4.7V522z"/>
		</g>
	</g>
	<g>
		<g>
			<polygon class="st19" points="367.4,606.2 354.8,627.1 259.5,627.1 239.9,606.2 			"/>
		</g>
		<g>
			<path class="st25" d="M338.6,606.7h-59c0,0,0-87.2,0-100.5C330.3,543,338.6,606.7,338.6,606.7z"/>
		</g>
	</g>
	<g>
		<g>
			<path class="st29" d="M129.4,608c0-1.5,1.2-2.8,2.8-2.8c1.5,0,2.8,1.2,2.8,2.8c0,2.6,1,4.9,2.7,6.5l0.1,0.1
				c1.7,1.6,3.9,2.6,6.4,2.6c2.6,0,4.9-1,6.5-2.7l0,0c1.7-1.7,2.7-4,2.7-6.5c0-1.5,1.2-2.8,2.8-2.8c1.5,0,2.8,1.2,2.8,2.8
				c0,2.6,1,4.9,2.7,6.5l0,0l0,0c1.7,1.7,4,2.7,6.5,2.7c2.6,0,4.9-1,6.5-2.7l0,0c1.7-1.7,2.7-4,2.7-6.5c0-1.5,1.2-2.8,2.8-2.8
				c1.5,0,2.8,1.2,2.8,2.8c0,2.6,1,4.9,2.7,6.5l0.1,0.1c1.7,1.6,3.9,2.6,6.4,2.6c2.6,0,4.9-1,6.5-2.7l0,0c1.7-1.7,2.7-4,2.7-6.5
				c0-1.5,1.2-2.8,2.8-2.8c1.5,0,2.8,1.2,2.8,2.8c0,4.1-1.7,7.8-4.3,10.4l0,0l0,0l0,0c-2.7,2.7-6.4,4.3-10.4,4.3
				c-4,0-7.6-1.6-10.3-4.2c-0.1,0-0.1-0.1-0.2-0.2c-0.6-0.6-1.1-1.2-1.6-1.8c-0.5,0.7-1,1.3-1.6,1.8l0,0l0,0l0,0
				c-2.7,2.7-6.4,4.3-10.4,4.3c-4.1,0-7.8-1.7-10.4-4.3l0,0c-0.6-0.6-1.1-1.2-1.6-1.8c-0.5,0.7-1,1.3-1.6,1.8l0,0l0,0l0,0
				c-2.7,2.7-6.4,4.3-10.4,4.3c-4,0-7.6-1.6-10.3-4.2c-0.1,0-0.1-0.1-0.2-0.2c-0.6-0.6-1.1-1.2-1.6-1.8c-0.5,0.7-1,1.3-1.6,1.8l0,0
				l0,0l0,0c-2.7,2.7-6.4,4.3-10.4,4.3c-4.1,0-7.8-1.7-10.4-4.3l0,0c-2.7-2.7-4.3-6.4-4.3-10.5c0-1.5,1.2-2.8,2.8-2.8
				s2.8,1.2,2.8,2.8c0,2.6,1,4.9,2.7,6.5l0,0l0,0c1.7,1.7,4,2.7,6.5,2.7c2.6,0,4.9-1,6.5-2.7l0,0C128.4,612.9,129.4,610.6,129.4,608
				z"/>
		</g>
		<g>
			<path class="st29" d="M437,608c0-1.5,1.2-2.8,2.8-2.8c1.5,0,2.8,1.2,2.8,2.8c0,2.6,1,4.9,2.7,6.5l0,0c1.7,1.7,4,2.7,6.5,2.7
				c2.6,0,4.9-1,6.5-2.7l0,0c1.7-1.7,2.7-4,2.7-6.5c0-1.5,1.2-2.8,2.8-2.8c1.5,0,2.8,1.2,2.8,2.8c0,2.6,1,4.9,2.7,6.5l0,0
				c1.7,1.7,4,2.7,6.5,2.7c2.6,0,4.9-1,6.5-2.7l0,0c1.7-1.7,2.7-4,2.7-6.5c0-1.5,1.2-2.8,2.8-2.8c1.5,0,2.8,1.2,2.8,2.8
				c0,2.6,1,4.9,2.7,6.5l0.1,0.1c1.7,1.6,3.9,2.6,6.4,2.6c2.6,0,4.9-1,6.5-2.7l0,0c1.7-1.7,2.7-4,2.7-6.5c0-1.5,1.2-2.8,2.8-2.8
				c1.5,0,2.8,1.2,2.8,2.8c0,4.1-1.7,7.8-4.3,10.4l0,0l0,0l0,0c-2.7,2.7-6.4,4.3-10.4,4.3c-4,0-7.6-1.6-10.3-4.2
				c-0.1,0-0.1-0.1-0.2-0.2c-0.6-0.6-1.1-1.2-1.6-1.8c-0.5,0.7-1,1.3-1.6,1.8l0,0l0,0l0,0c-2.7,2.7-6.4,4.3-10.4,4.3
				c-4.1,0-7.8-1.7-10.4-4.3l0,0l0,0l0,0c-0.6-0.6-1.1-1.2-1.6-1.8c-0.5,0.7-1,1.3-1.6,1.8l0,0l0,0l0,0c-2.7,2.7-6.4,4.3-10.4,4.3
				c-4.1,0-7.8-1.7-10.4-4.3l0,0l0,0l0,0c-0.6-0.6-1.1-1.2-1.6-1.8c-0.5,0.7-1,1.3-1.6,1.8c-2.7,2.7-6.4,4.3-10.5,4.3
				c-4.1,0-7.8-1.7-10.4-4.3l0,0c-2.7-2.7-4.3-6.4-4.3-10.5c0-1.5,1.2-2.8,2.8-2.8c1.5,0,2.8,1.2,2.8,2.8c0,2.6,1,4.9,2.7,6.5l0,0
				l0,0c1.7,1.7,4,2.7,6.5,2.7c2.6,0,4.9-1,6.5-2.7C436,612.9,437,610.6,437,608z"/>
		</g>
	</g>
</g>
</svg>
