<?xml version="1.0" encoding="utf-8"?>
<!-- Generator: Adobe Illustrator 19.0.0, SVG Export Plug-In . SVG Version: 6.00 Build 0)  -->
<svg version="1.1" id="Layer_1" xmlns="http://www.w3.org/2000/svg" xmlns:xlink="http://www.w3.org/1999/xlink" x="0px" y="0px"
	 viewBox="736.7 163.9 1356.4 1171.1" style="enable-background:new 736.7 163.9 1356.4 1171.1;" xml:space="preserve">
<style type="text/css">
	.st0{fill:#424242;}
	.st1{opacity:0.14;fill:#231F20;}
	.st2{fill:#FFFFFF;}
</style>
<image style="overflow:visible;" width="1300" height="876" xlink:href="C:\Users\Zecele\Desktop\35969741-collection-of-flat-mountains-illustrations-with-sun-clouds-and-a-volcano-Stock-Vector.jpg"  transform="matrix(0.24 0 0 0.24 3160 -551.2)">
</image>
<image style="overflow:visible;" width="1500" height="1600" xlink:href="C:\Users\Zecele\Desktop\stock-vector-color-vector-flat-icon-set-and-illustration-summer-time-village-mountain-sun-clouds-trees-209955592.jpg"  transform="matrix(0.24 0 0 0.24 3160 -551.2)">
</image>
<g>
	<polygon class="st0" points="2093.1,1335 1845,1335 1845,906.7 	"/>
	<polygon class="st0" points="1414.9,163.9 1414.9,163.9 1165.2,595.2 1322.9,495.3 1428.4,595.6 1428.4,532.6 1513.6,595.6 
		1513.6,532.6 1686.1,632.3 1845,906.7 1845,1335 736.7,1335 	"/>
	<polygon class="st1" points="1414.9,163.9 1414.9,163.9 1165.2,595.2 1322.9,495.3 1428.4,595.6 1428.4,532.6 1513.6,595.6 
		1513.6,532.6 1686.1,632.3 1845,906.7 1845,1335 736.7,1335 	"/>
	<polygon class="st2" points="1414.9,163.9 1686.2,632.3 1686.1,632.3 1414.9,163.9 	"/>
	<polygon class="st1" points="1414.9,163.9 1686.2,632.3 1686.1,632.3 1414.9,163.9 	"/>
	<polygon class="st2" points="1513.6,595.6 1428.4,532.6 1428.4,595.6 1322.9,495.3 1165.2,595.2 1414.9,163.9 1686.1,632.3 
		1513.6,532.6 	"/>
	<polygon class="st1" points="1513.6,595.6 1428.4,532.6 1428.4,595.6 1322.9,495.3 1165.2,595.2 1414.9,163.9 1686.1,632.3 
		1513.6,532.6 	"/>
</g>
<polygon class="st0" points="4197.1,-244.7 4197.1,-244.7 5111.9,1335 3282.2,1335 "/>
<polygon class="st2" points="4744.4,700.3 4396.2,499.3 4396.2,626.4 4224.4,499.3 4224.4,626.4 4011.5,423.8 3693.2,625.4 
	4197.1,-244.7 "/>
</svg>
