<?xml version="1.0" encoding="utf-8"?>
<!-- Generator: Adobe Illustrator 19.0.0, SVG Export Plug-In . SVG Version: 6.00 Build 0)  -->
<svg version="1.1" id="Layer_1" xmlns="http://www.w3.org/2000/svg" xmlns:xlink="http://www.w3.org/1999/xlink" x="0px" y="0px"
	 viewBox="-173 322.8 248.9 197.1" style="enable-background:new -173 322.8 248.9 197.1;" xml:space="preserve">
<style type="text/css">
	.st0{fill:#D9D9D8;}
	.st1{fill:#ECECEC;}
	.st2{fill:#1D1D1B;}
	.st3{fill:#B76B5F;}
	.st4{fill:#B74632;}
	.st5{fill:#A43E2E;}
	.st6{fill:#634019;}
</style>
<g>
	<g>
		<path id="XMLID_86_" class="st0" d="M24.8,417.6c0,14.8-7.7,26.9-17.2,26.9s-17.2-12-17.2-26.9c0-14.8,7.7-26.9,17.2-26.9
			S24.8,402.8,24.8,417.6z"/>
		<path class="st1" d="M26.5,417.6c0-15.7-8.4-28.5-18.8-28.5s-18.8,12.8-18.8,28.5s8.4,28.5,18.8,28.5
			C18,446.1,26.5,433.3,26.5,417.6z M23.2,417.6c0,13.9-7,25.2-15.6,25.2s-15.5-11.3-15.5-25.2s7-25.2,15.5-25.2
			C16.2,392.4,23.2,403.7,23.2,417.6z"/>
	</g>
	<g>
		<circle id="XMLID_83_" class="st0" cx="-43.7" cy="469.1" r="7.9"/>
	</g>
	<g>
		<path id="XMLID_82_" class="st0" d="M-146.1,447c0,3.2-2.6,5.9-5.9,5.9c-3.2,0-5.9-2.6-5.9-5.9c0-3.2,2.6-5.9,5.9-5.9
			S-146.1,443.7-146.1,447z"/>
	</g>
	<g>
		<path class="st2" d="M-144.4,447c0,4.2-3.4,7.5-7.5,7.5c-4.2,0-7.5-3.4-7.5-7.5c0-4.2,3.4-7.5,7.5-7.5
			C-147.8,439.4-144.4,442.8-144.4,447z M-147.4,447c0-2.5-2.1-4.6-4.6-4.6s-4.6,2-4.6,4.6c0,2.5,2,4.6,4.6,4.6
			C-149.4,451.5-147.4,449.5-147.4,447z"/>
	</g>
	<g>
		<path class="st2" d="M-34,469.1c0,5.3-4.3,9.7-9.7,9.7c-5.3,0-9.7-4.3-9.7-9.7c0-5.3,4.3-9.7,9.7-9.7
			C-38.3,459.5-34,463.8-34,469.1z M-37.3,469.1c0-3.5-2.9-6.4-6.4-6.4s-6.4,2.9-6.4,6.4s2.9,6.4,6.4,6.4
			C-40.1,475.5-37.3,472.7-37.3,469.1z"/>
	</g>
	<g>
		<path id="XMLID_77_" class="st3" d="M-148.8,411.8c0,0-15.4-11.7-22.6-7.5c-7.2,4.3,12.8,20.5,12.8,20.5L-148.8,411.8z"/>
	</g>
	<g>
		<path id="XMLID_76_" class="st4" d="M36,505.7c6.8,6,7.7,13.5,1.5,13.5c0,0-25.2,1.7-27.1,0s-8.5-7.8-14.2-14.1l-120.4-123.2
			c-6.5-7.1-18.8-16.4-12.5-16.4h23.1c6.2,0,14.5,3.9,21.9,11.3L36,505.7z"/>
	</g>
	<g>
		<path id="XMLID_75_" class="st5" d="M36,505.7c6.8,6,7.7,13.5,1.5,13.5c0,0-25.2,1.7-27.1,0s-14.2-14.1-14.2-14.1
			c6.6-6.3-95.3-135.7-87.9-128.3L36,505.7z"/>
	</g>
	<g>
		<path id="XMLID_74_" class="st6" d="M-123.2,376.2c-0.1,0-0.2,0-0.3,0c-0.9-0.1-1.5-1-1.4-1.9l6.2-40c0.1-0.9,1-1.5,1.9-1.4
			s1.5,1,1.4,1.9l-6.2,40C-121.7,375.6-122.4,376.2-123.2,376.2z"/>
	</g>
	<g>
		<path id="XMLID_73_" class="st6" d="M-104.9,376.2c-0.1,0-0.2,0-0.3,0c-0.9-0.1-1.5-1-1.4-1.9l6.2-40c0.1-0.9,1-1.5,1.9-1.4
			s1.5,1,1.4,1.9l-6.2,40C-103.5,375.6-104.1,376.2-104.9,376.2z"/>
	</g>
	<g>
		<path id="XMLID_72_" class="st6" d="M12.3,512.9c-0.1,0-0.2,0-0.3,0c-0.9-0.1-1.5-1-1.4-1.9l6.2-40c0.1-0.9,1-1.5,1.9-1.4
			s1.5,1,1.4,1.9l-6.2,40C13.8,512.3,13.1,512.9,12.3,512.9z"/>
	</g>
	<g>
		<path id="XMLID_71_" class="st6" d="M31.9,512.9c-0.1,0-0.2,0-0.3,0c-0.9-0.1-1.5-1-1.4-1.9l6.2-40c0.1-0.9,1-1.5,1.9-1.4
			s1.5,1,1.4,1.9l-6.2,40C33.4,512.3,32.7,512.9,31.9,512.9z"/>
	</g>
	<g>
		<path id="XMLID_70_" class="st4" d="M-57.1,411.8c0,0-23.2-0.6-38.6,9.6l-34.8,0.7c0,0,10.5-30.5-9.5-29.5s-40.3,43.6,0,54.1
			s136.1-5.2,136.1-5.2s21.7-19.4,5.9-31.8C-13.7,397.1-57.1,411.8-57.1,411.8z"/>
	</g>
	<g>
		<path id="XMLID_69_" class="st5" d="M-57.1,411.8c0,0,15.5,30.9-82.9,34.9c40.3,10.5,136.1-5.2,136.1-5.2s21.7-19.4,5.9-31.8
			C-13.7,397.1-57.1,411.8-57.1,411.8z"/>
	</g>
	<g>
		<path id="XMLID_68_" class="st3" d="M-153.7,427.3c0,0,9.8-4.3,21.9-1.6c12.2,2.6,13.1,19,8.6,19
			C-127.8,444.7-153.1,432.9-153.7,427.3z"/>
	</g>
	<path id="XMLID_67_" class="st4" d="M-103.2,322.8c7.2,0,16.7,4.5,25.3,13.1L69.3,484.4c7.9,6.9,8.9,15.5,1.7,15.5
		c0,0-29.1,2-31.2,0c-2.1-2-9.8-9-16.4-16.2l-138.8-142c-7.4-8.3-21.6-18.9-14.4-18.9"/>
</g>
</svg>
