<?xml version="1.0" encoding="utf-8"?>
<!-- Generator: Adobe Illustrator 19.0.0, SVG Export Plug-In . SVG Version: 6.00 Build 0)  -->
<svg version="1.1" id="Capa_1" xmlns="http://www.w3.org/2000/svg" xmlns:xlink="http://www.w3.org/1999/xlink" x="0px" y="0px"
	 viewBox="0 0 34 34" style="enable-background:new 0 0 34 34;" xml:space="preserve">
<style type="text/css">
	.st0{fill:#E9644B;}
	.st1{fill:#FFFFFF;}
	.st2{fill:#3FC0F0;}
	.st3{fill:#79CCF0;}
	.st4{fill:#1385C8;}
	.st5{fill:#696969;}
</style>
<g>
	<path class="st0" d="M127.5,19.6c9.4,0,17-7.6,17-17c0-9.4-7.6-17-17-17c-9.4,0-17,7.6-17,17C110.5,12,118.1,19.6,127.5,19.6"/>
	<path class="st1" d="M130.8,2.6l-5.6,3.3v-6.5L130.8,2.6z M136,5.7v-6.1c0,0,0-2.9-2.9-2.9H122c0,0-2.9,0-2.9,2.9v6.1
		c0,0,0,2.9,2.9,2.9h11.1C133.1,8.6,136,8.6,136,5.7"/>
</g>
<g>
	<path class="st2" d="M368.3,5.5c9.4,0,17-7.6,17-17c0-9.4-7.6-17-17-17c-9.4,0-17,7.6-17,17C351.3-2.1,358.9,5.5,368.3,5.5"/>
	<path class="st1" d="M367.6-15.8c0.3,0.4,0.5,1,0.5,1.6c0,0.6-0.2,1.2-0.5,1.5c-0.2,0.2-0.4,0.4-0.8,0.6c0.5,0.2,0.9,0.5,1.2,0.9
		c0.3,0.4,0.4,0.9,0.4,1.5c0,0.6-0.2,1.2-0.5,1.7c-0.2,0.3-0.4,0.6-0.7,0.8c-0.3,0.3-0.7,0.4-1.2,0.5c-0.5,0.1-1,0.1-1.5,0.1h-4.7
		v-10.5h5.1C366.2-16.9,367.1-16.5,367.6-15.8z M361.9-15.1v2.3h2.6c0.5,0,0.8-0.1,1.1-0.3c0.3-0.2,0.4-0.5,0.4-0.9
		c0-0.5-0.2-0.8-0.6-1c-0.3-0.1-0.7-0.2-1.2-0.2H361.9z M361.9-11v2.8h2.6c0.5,0,0.8-0.1,1.1-0.2c0.5-0.2,0.7-0.7,0.7-1.3
		c0-0.5-0.2-0.9-0.7-1.1c-0.3-0.1-0.6-0.2-1.1-0.2H361.9z M374.8-14c0.5,0.2,1,0.6,1.3,1.1c0.3,0.5,0.5,1,0.6,1.6
		c0.1,0.4,0.1,0.9,0.1,1.5h-5.7c0,0.8,0.3,1.3,0.8,1.6c0.3,0.2,0.7,0.3,1.1,0.3c0.5,0,0.8-0.1,1.1-0.4c0.2-0.1,0.3-0.3,0.4-0.5h2.1
		c-0.1,0.5-0.3,0.9-0.8,1.4c-0.7,0.8-1.7,1.1-2.9,1.1c-1,0-1.9-0.3-2.7-1c-0.8-0.6-1.2-1.7-1.2-3.1c0-1.3,0.4-2.4,1.1-3.1
		c0.7-0.7,1.6-1.1,2.8-1.1C373.6-14.4,374.3-14.3,374.8-14z M371.8-12.3c-0.3,0.3-0.5,0.7-0.5,1.2h3.5c0-0.5-0.2-0.9-0.5-1.2
		c-0.3-0.3-0.7-0.4-1.2-0.4C372.5-12.7,372-12.6,371.8-12.3z M375.2-16.4h-4.5v1.3h4.5V-16.4z"/>
</g>
<g>
	<path class="st3" d="M17,34c9.4,0,17-7.6,17-17c0-9.4-7.6-17-17-17C7.6,0,0,7.6,0,17C0,26.4,7.6,34,17,34"/>
	<path class="st1" d="M25.5,12.6c-0.6,0.3-1.3,0.5-2,0.6c0.7-0.4,1.3-1.1,1.5-1.9c-0.7,0.4-1.4,0.7-2.2,0.8
		c-0.6-0.7-1.5-1.1-2.6-1.1c-1.9,0-3.5,1.6-3.5,3.5c0,0.3,0,0.5,0.1,0.8c-2.9-0.1-5.5-1.5-7.2-3.7c-0.3,0.5-0.5,1.1-0.5,1.8
		c0,1.2,0.6,2.3,1.6,2.9c-0.6,0-1.1-0.2-1.6-0.4v0c0,1.7,1.2,3.1,2.8,3.4c-0.3,0.1-0.6,0.1-0.9,0.1c-0.2,0-0.4,0-0.7-0.1
		c0.4,1.4,1.7,2.4,3.3,2.4c-1.2,0.9-2.7,1.5-4.3,1.5c-0.3,0-0.6,0-0.8,0c1.5,1,3.4,1.6,5.4,1.6c6.4,0,9.9-5.3,9.9-9.9
		c0-0.2,0-0.3,0-0.5C24.5,13.9,25.1,13.3,25.5,12.6"/>
</g>
<g>
	<path class="st4" d="M270.4,13.6c9.4,0,17-7.6,17-17c0-9.4-7.6-17-17-17c-9.4,0-17,7.6-17,17C253.4,6,261,13.6,270.4,13.6"/>
	<path class="st1" d="M265.6,3.8h-3.3V-6.9h3.3V3.8z M263.9-8.2L263.9-8.2c-1.2,0-2-0.8-2-1.8c0-1,0.8-1.8,2-1.8c1.2,0,2,0.8,2,1.8
		C265.9-9,265.1-8.2,263.9-8.2z M278.9,3.8h-3.8v-5.5c0-1.4-0.6-2.4-1.9-2.4c-1,0-1.5,0.7-1.8,1.3c-0.1,0.2-0.1,0.5-0.1,0.9v5.7
		h-3.7c0,0,0-9.7,0-10.6h3.7v1.7c0.2-0.7,1.4-1.8,3.3-1.8c2.4,0,4.2,1.5,4.2,4.8V3.8z"/>
</g>
<g>
	<path class="st5" d="M213.7,13.6c9.4,0,17-7.6,17-17c0-9.4-7.6-17-17-17c-9.4,0-17,7.6-17,17C196.7,6,204.3,13.6,213.7,13.6"/>
	<path class="st1" d="M219-11.9h-10.4c-1.8,0-3.3,1.5-3.3,3.3v3.5v7c0,1.8,1.5,3.3,3.3,3.3H219c1.8,0,3.3-1.5,3.3-3.3v-7v-3.5
		C222.2-10.4,220.8-11.9,219-11.9z M219.9-9.9l0.4,0v0.4V-7l-2.9,0l0-2.9L219.9-9.9z M211.3-5.1c0.5-0.8,1.4-1.2,2.4-1.2
		c1,0,1.9,0.5,2.4,1.2c0.4,0.5,0.6,1.1,0.6,1.7c0,1.7-1.3,3-3,3c-1.7,0-3-1.3-3-3C210.7-4,211-4.6,211.3-5.1z M220.6,1.9
		c0,0.9-0.7,1.6-1.6,1.6h-10.4c-0.9,0-1.6-0.7-1.6-1.6v-7h2.5c-0.2,0.5-0.3,1.1-0.3,1.7c0,2.6,2.1,4.7,4.7,4.7
		c2.6,0,4.7-2.1,4.7-4.7c0-0.6-0.1-1.2-0.3-1.7h2.5V1.9z"/>
</g>
</svg>
