<?xml version="1.0" encoding="utf-8"?>
<!-- Generator: Adobe Illustrator 19.0.0, SVG Export Plug-In . SVG Version: 6.00 Build 0)  -->
<svg version="1.1" id="Layer_1" xmlns="http://www.w3.org/2000/svg" xmlns:xlink="http://www.w3.org/1999/xlink" x="0px" y="0px"
	 viewBox="59 60.2 714.4 720.7" style="enable-background:new 59 60.2 714.4 720.7;" xml:space="preserve">
<style type="text/css">
	.st0{fill:#E5DED9;}
	.st1{fill:#EC313C;}
	.st2{opacity:0.3;enable-background:new    ;}
</style>
<g>
	<polygon class="st0" points="739.6,177.2 733,167.9 457.9,369.2 464.5,378.5 	"/>
	<polygon class="st1" points="745.4,185.2 739.6,177.2 86.2,655.3 91.9,663.2 	"/>
	<polygon class="st0" points="372.8,471.7 366.1,462.4 91,663.7 97.7,673 	"/>
	<polygon class="st0" points="360.4,454.5 334.1,417.8 59,619.1 85.3,655.8 	"/>
	<polygon class="st0" points="773.4,224.2 745.4,185.2 470.2,386.4 498.3,425.5 	"/>
	<polygon class="st2" points="334.1,417.8 97.7,673 59,619.1 	"/>
	<polygon class="st2" points="733,167.9 498.1,425.5 457.9,369.2 	"/>
	<polygon class="st1" points="649,753.6 656.9,747.8 182.6,86.8 174.7,92.5 	"/>
	<polygon class="st0" points="656.1,746.8 665.3,740.1 466,462.3 456.8,469 	"/>
	<polygon class="st0" points="609.5,780.9 648.3,752.5 448.9,474.7 410.2,503.1 	"/>
	<polygon class="st2" points="410.2,503.1 665.3,740.1 609.5,780.9 	"/>
	<polygon class="st0" points="364.8,377 374,370.3 174.7,92.5 165.5,99.2 	"/>
	<polygon class="st0" points="381.9,364.6 418.2,338 218.9,60.2 182.6,86.8 	"/>
	<polygon class="st2" points="165.5,99.2 418.2,338 364.8,377 	"/>
</g>
</svg>
