<?xml version="1.0" encoding="utf-8"?>
<!-- Generator: Adobe Illustrator 19.0.0, SVG Export Plug-In . SVG Version: 6.00 Build 0)  -->
<svg version="1.1" id="Capa_1" xmlns="http://www.w3.org/2000/svg" xmlns:xlink="http://www.w3.org/1999/xlink" x="0px" y="0px"
	 viewBox="0 0 34 34" style="enable-background:new 0 0 34 34;" xml:space="preserve">
<style type="text/css">
	.st0{fill:#E9644B;}
	.st1{fill:#FFFFFF;}
	.st2{fill:#3FC0F0;}
	.st3{fill:#79CCF0;}
	.st4{fill:#1385C8;}
	.st5{fill:#696969;}
</style>
<g>
	<path class="st0" d="M17,34c9.4,0,17-7.6,17-17c0-9.4-7.6-17-17-17C7.6,0,0,7.6,0,17C0,26.4,7.6,34,17,34"/>
	<path class="st1" d="M20.3,17l-5.6,3.3v-6.5L20.3,17z M25.5,20V14c0,0,0-2.9-2.9-2.9H11.4c0,0-2.9,0-2.9,2.9V20c0,0,0,2.9,2.9,2.9
		h11.1C22.6,23,25.5,23,25.5,20"/>
</g>
<g>
	<path class="st2" d="M257.8,19.9c9.4,0,17-7.6,17-17c0-9.4-7.6-17-17-17c-9.4,0-17,7.6-17,17C240.8,12.2,248.4,19.9,257.8,19.9"/>
	<path class="st1" d="M257.1-1.4c0.3,0.4,0.5,1,0.5,1.6c0,0.6-0.2,1.2-0.5,1.5c-0.2,0.2-0.4,0.4-0.8,0.6c0.5,0.2,0.9,0.5,1.2,0.9
		c0.3,0.4,0.4,0.9,0.4,1.5c0,0.6-0.2,1.2-0.5,1.7c-0.2,0.3-0.4,0.6-0.7,0.8c-0.3,0.3-0.7,0.4-1.2,0.5c-0.5,0.1-1,0.1-1.5,0.1h-4.7
		V-2.5h5.1C255.7-2.5,256.6-2.1,257.1-1.4z M251.4-0.7v2.3h2.6c0.5,0,0.8-0.1,1.1-0.3c0.3-0.2,0.4-0.5,0.4-0.9c0-0.5-0.2-0.8-0.6-1
		c-0.3-0.1-0.7-0.2-1.2-0.2H251.4z M251.4,3.4v2.8h2.6c0.5,0,0.8-0.1,1.1-0.2c0.5-0.2,0.7-0.7,0.7-1.3c0-0.5-0.2-0.9-0.7-1.1
		c-0.3-0.1-0.6-0.2-1.1-0.2H251.4z M264.3,0.4c0.5,0.2,1,0.6,1.3,1.1c0.3,0.5,0.5,1,0.6,1.6c0.1,0.4,0.1,0.9,0.1,1.5h-5.7
		c0,0.8,0.3,1.3,0.8,1.6c0.3,0.2,0.7,0.3,1.1,0.3c0.5,0,0.8-0.1,1.1-0.4c0.2-0.1,0.3-0.3,0.4-0.5h2.1c-0.1,0.5-0.3,0.9-0.8,1.4
		c-0.7,0.8-1.7,1.1-2.9,1.1c-1,0-1.9-0.3-2.7-1c-0.8-0.6-1.2-1.7-1.2-3.1c0-1.3,0.4-2.4,1.1-3.1c0.7-0.7,1.6-1.1,2.8-1.1
		C263.1,0,263.7,0.1,264.3,0.4z M261.2,2.1c-0.3,0.3-0.5,0.7-0.5,1.2h3.5c0-0.5-0.2-0.9-0.5-1.2c-0.3-0.3-0.7-0.4-1.2-0.4
		C261.9,1.7,261.5,1.8,261.2,2.1z M264.7-2h-4.5v1.3h4.5V-2z"/>
</g>
<g>
	<path class="st3" d="M-93.5,48.4c9.4,0,17-7.6,17-17c0-9.4-7.6-17-17-17c-9.4,0-17,7.6-17,17C-110.5,40.8-102.9,48.4-93.5,48.4"/>
	<path class="st1" d="M-85,26.9c-0.6,0.3-1.3,0.5-2,0.6c0.7-0.4,1.3-1.1,1.5-1.9c-0.7,0.4-1.4,0.7-2.2,0.8c-0.6-0.7-1.5-1.1-2.6-1.1
		c-1.9,0-3.5,1.6-3.5,3.5c0,0.3,0,0.5,0.1,0.8c-2.9-0.1-5.5-1.5-7.2-3.7c-0.3,0.5-0.5,1.1-0.5,1.8c0,1.2,0.6,2.3,1.6,2.9
		c-0.6,0-1.1-0.2-1.6-0.4v0c0,1.7,1.2,3.1,2.8,3.4c-0.3,0.1-0.6,0.1-0.9,0.1c-0.2,0-0.4,0-0.7-0.1c0.4,1.4,1.7,2.4,3.3,2.4
		c-1.2,0.9-2.7,1.5-4.3,1.5c-0.3,0-0.6,0-0.8,0c1.5,1,3.4,1.6,5.4,1.6c6.4,0,9.9-5.3,9.9-9.9c0-0.2,0-0.3,0-0.5
		C-86.1,28.3-85.5,27.6-85,26.9"/>
</g>
<g>
	<path class="st4" d="M159.9,28c9.4,0,17-7.6,17-17c0-9.4-7.6-17-17-17c-9.4,0-17,7.6-17,17C142.9,20.4,150.5,28,159.9,28"/>
	<path class="st1" d="M155.1,18.1h-3.3V7.5h3.3V18.1z M153.4,6.2L153.4,6.2c-1.2,0-2-0.8-2-1.8c0-1,0.8-1.8,2-1.8c1.2,0,2,0.8,2,1.8
		C155.4,5.4,154.6,6.2,153.4,6.2z M168.4,18.1h-3.8v-5.5c0-1.4-0.6-2.4-1.9-2.4c-1,0-1.5,0.7-1.8,1.3c-0.1,0.2-0.1,0.5-0.1,0.9v5.7
		h-3.7c0,0,0-9.7,0-10.6h3.7v1.7c0.2-0.7,1.4-1.8,3.3-1.8c2.4,0,4.2,1.5,4.2,4.8V18.1z"/>
</g>
<g>
	<path class="st5" d="M103.2,28c9.4,0,17-7.6,17-17c0-9.4-7.6-17-17-17c-9.4,0-17,7.6-17,17C86.2,20.4,93.8,28,103.2,28"/>
	<path class="st1" d="M108.4,2.5H98c-1.8,0-3.3,1.5-3.3,3.3v3.5v7c0,1.8,1.5,3.3,3.3,3.3h10.4c1.8,0,3.3-1.5,3.3-3.3v-7V5.8
		C111.7,4,110.2,2.5,108.4,2.5z M109.4,4.5l0.4,0v0.4v2.5l-2.9,0l0-2.9L109.4,4.5z M100.8,9.3c0.5-0.8,1.4-1.2,2.4-1.2
		s1.9,0.5,2.4,1.2c0.4,0.5,0.6,1.1,0.6,1.7c0,1.7-1.3,3-3,3s-3-1.3-3-3C100.2,10.4,100.4,9.8,100.8,9.3z M110,16.3
		c0,0.9-0.7,1.6-1.6,1.6H98c-0.9,0-1.6-0.7-1.6-1.6v-7h2.5c-0.2,0.5-0.3,1.1-0.3,1.7c0,2.6,2.1,4.7,4.7,4.7c2.6,0,4.7-2.1,4.7-4.7
		c0-0.6-0.1-1.2-0.3-1.7h2.5V16.3z"/>
</g>
</svg>
